<?xml version="1.0" encoding="utf-8"?>
<!-- Generator: Adobe Illustrator 21.0.0, SVG Export Plug-In . SVG Version: 6.00 Build 0)  -->
<svg version="1.1" id="图层_1" xmlns="http://www.w3.org/2000/svg" xmlns:xlink="http://www.w3.org/1999/xlink" x="0px" y="0px"
	 viewBox="0 0 1400.7 256.2" style="enable-background:new 0 0 1400.7 256.2;" xml:space="preserve">
<style type="text/css">
	.st0{clip-path:url(#SVGID_2_);fill:#FFFFFF;}
	.st1{fill:#FFFFFF;}
	.st2{fill:#EA96A3;}
	.st3{fill:#CA984C;}
	.st4{fill:#98A246;}
	.st5{fill:#48AF72;}
	.st6{fill:#4BABA4;}
	.st7{fill:#53ACCD;}
	.st8{fill:#B6A8EB;}
	.st9{fill:#E78CD7;}
	.st10{stroke:#000000;stroke-width:0.8;stroke-linejoin:round;stroke-miterlimit:10;}
	.st11{fill-rule:evenodd;clip-rule:evenodd;}
	.st12{fill:none;stroke:#000000;stroke-width:0.8;stroke-linecap:square;stroke-miterlimit:10;}
</style>
<g>
	<g>
		<defs>
			<rect id="SVGID_1_" x="0" y="8" width="1400.6" height="248.2"/>
		</defs>
		<clipPath id="SVGID_2_">
			<use xlink:href="#SVGID_1_"  style="overflow:visible;"/>
		</clipPath>
		<rect y="7.9" class="st0" width="1400.7" height="248.3"/>
	</g>
	<rect x="174.2" y="38.5" class="st1" width="1219.2" height="158.7"/>
	<rect x="174.2" y="40.5" class="st2" width="1161.2" height="15.9"/>
	<rect x="174.2" y="60.3" class="st3" width="591.9" height="15.9"/>
	<rect x="174.2" y="80.1" class="st4" width="526.1" height="15.9"/>
	<rect x="174.2" y="100" class="st5" width="412.8" height="15.9"/>
	<rect x="174.2" y="119.8" class="st6" width="327.7" height="15.9"/>
	<rect x="174.2" y="139.6" class="st7" width="239.6" height="15.9"/>
	<rect x="174.2" y="159.5" class="st8" width="193.9" height="15.9"/>
	<rect x="174.2" y="179.3" class="st9" width="189.8" height="15.9"/>
	<line class="st10" x1="174.2" y1="197.2" x2="174.2" y2="200.7"/>
	<path class="st11" d="M169.9,211.5c0-1.5,0.2-2.8,0.7-3.9c0.4-1.1,1.1-1.9,1.8-2.4c0.6-0.4,1.2-0.6,1.8-0.6c1,0,1.9,0.5,2.7,1.6
		c1,1.3,1.5,3,1.5,5.2c0,1.5-0.2,2.8-0.7,3.9c-0.4,1.1-1,1.8-1.7,2.3c-0.7,0.5-1.3,0.7-2,0.7c-1.3,0-2.3-0.7-3.2-2.2
		C170.3,214.8,169.9,213.2,169.9,211.5 M171.8,211.7c0,1.8,0.2,3.3,0.7,4.5c0.4,1,0.9,1.5,1.7,1.5c0.3,0,0.7-0.1,1.1-0.5
		c0.4-0.3,0.7-0.8,0.9-1.6c0.3-1.1,0.5-2.7,0.5-4.7c0-1.5-0.2-2.8-0.5-3.8c-0.2-0.7-0.5-1.3-0.9-1.6c-0.3-0.2-0.6-0.3-1-0.3
		c-0.4,0-0.8,0.2-1.2,0.6c-0.5,0.6-0.8,1.4-1,2.6C171.9,209.4,171.8,210.6,171.8,211.7L171.8,211.7z"/>
	<line class="st10" x1="408.6" y1="197.2" x2="408.6" y2="200.7"/>
	<path class="st11" d="M407.3,204.8l-0.8,1.7h-4l-0.9,1.8c1.7,0.3,3.1,0.9,4.1,1.9c0.9,0.9,1.3,1.9,1.3,3.1c0,0.7-0.1,1.3-0.4,1.9
		s-0.6,1.1-1.1,1.5c-0.4,0.4-0.9,0.8-1.4,1c-0.8,0.3-1.5,0.5-2.3,0.5c-0.8,0-1.4-0.1-1.7-0.4c-0.4-0.3-0.5-0.6-0.5-0.9
		c0-0.2,0.1-0.3,0.2-0.5c0.1-0.1,0.3-0.2,0.6-0.2c0.2,0,0.3,0,0.4,0.1c0.1,0.1,0.3,0.2,0.7,0.4c0.5,0.3,1,0.5,1.5,0.5
		c0.8,0,1.4-0.3,2-0.9c0.6-0.6,0.9-1.3,0.9-2.1c0-0.8-0.3-1.5-0.8-2.2c-0.5-0.7-1.2-1.2-2.1-1.6c-0.7-0.3-1.7-0.5-2.9-0.5l2.5-5.1
		H407.3L407.3,204.8z"/>
	<path class="st11" d="M409.2,211.5c0-1.5,0.2-2.8,0.7-3.9c0.4-1.1,1.1-1.9,1.8-2.4c0.6-0.4,1.2-0.6,1.8-0.6c1,0,1.9,0.5,2.7,1.6
		c1,1.3,1.5,3,1.5,5.2c0,1.5-0.2,2.8-0.7,3.9c-0.4,1.1-1,1.8-1.7,2.3c-0.7,0.5-1.3,0.7-2,0.7c-1.3,0-2.3-0.7-3.2-2.2
		C409.5,214.8,409.2,213.2,409.2,211.5 M411.1,211.7c0,1.8,0.2,3.3,0.7,4.5c0.4,1,0.9,1.5,1.7,1.5c0.3,0,0.7-0.1,1.1-0.5
		c0.4-0.3,0.7-0.8,0.9-1.6c0.3-1.1,0.5-2.7,0.5-4.7c0-1.5-0.2-2.8-0.5-3.8c-0.2-0.7-0.5-1.3-0.9-1.6c-0.3-0.2-0.6-0.3-1-0.3
		c-0.4,0-0.8,0.2-1.2,0.6c-0.5,0.6-0.8,1.4-1,2.6S411.1,210.6,411.1,211.7L411.1,211.7z"/>
	<line class="st10" x1="642.9" y1="197.2" x2="642.9" y2="200.7"/>
	<path class="st11" d="M630.2,206.1l3.2-1.6h0.3v11.2c0,0.8,0,1.2,0.1,1.4c0.1,0.2,0.2,0.3,0.4,0.4c0.2,0.1,0.6,0.2,1.2,0.2v0.4h-5
		v-0.4c0.6,0,1-0.1,1.2-0.2c0.2-0.1,0.3-0.2,0.4-0.4c0.1-0.2,0.1-0.6,0.1-1.4v-7.1c0-1,0-1.6-0.1-1.9c0-0.2-0.1-0.4-0.2-0.5
		c-0.1-0.1-0.3-0.1-0.4-0.1c-0.2,0-0.6,0.1-1,0.3L630.2,206.1L630.2,206.1z"/>
	<path class="st11" d="M638.6,211.5c0-1.5,0.2-2.8,0.7-3.9c0.4-1.1,1.1-1.9,1.8-2.4c0.6-0.4,1.2-0.6,1.8-0.6c1,0,1.9,0.5,2.7,1.6
		c1,1.3,1.5,3,1.5,5.2c0,1.5-0.2,2.8-0.7,3.9c-0.4,1.1-1,1.8-1.7,2.3c-0.7,0.5-1.3,0.7-2,0.7c-1.3,0-2.3-0.7-3.2-2.2
		C639,214.8,638.6,213.2,638.6,211.5 M640.6,211.7c0,1.8,0.2,3.3,0.7,4.5c0.4,1,0.9,1.5,1.7,1.5c0.3,0,0.7-0.1,1.1-0.5
		c0.4-0.3,0.7-0.8,0.9-1.6c0.3-1.1,0.5-2.7,0.5-4.7c0-1.5-0.2-2.8-0.5-3.8c-0.2-0.7-0.5-1.3-0.9-1.6c-0.3-0.2-0.6-0.3-1-0.3
		c-0.4,0-0.8,0.2-1.2,0.6c-0.5,0.6-0.8,1.4-1,2.6S640.6,210.6,640.6,211.7L640.6,211.7z"/>
	<path class="st11" d="M648.5,211.5c0-1.5,0.2-2.8,0.7-3.9c0.4-1.1,1.1-1.9,1.8-2.4c0.6-0.4,1.2-0.6,1.8-0.6c1,0,1.9,0.5,2.7,1.6
		c1,1.3,1.5,3,1.5,5.2c0,1.5-0.2,2.8-0.7,3.9c-0.4,1.1-1,1.8-1.7,2.3c-0.7,0.5-1.3,0.7-2,0.7c-1.3,0-2.3-0.7-3.2-2.2
		C648.8,214.8,648.5,213.2,648.5,211.5 M650.4,211.7c0,1.8,0.2,3.3,0.7,4.5c0.4,1,0.9,1.5,1.7,1.5c0.3,0,0.7-0.1,1.1-0.5
		c0.4-0.3,0.7-0.8,0.9-1.6c0.3-1.1,0.5-2.7,0.5-4.7c0-1.5-0.2-2.8-0.5-3.8c-0.2-0.7-0.5-1.3-0.9-1.6c-0.3-0.2-0.6-0.3-1-0.3
		c-0.4,0-0.8,0.2-1.2,0.6c-0.5,0.6-0.8,1.4-1,2.6C650.5,209.4,650.4,210.6,650.4,211.7L650.4,211.7z"/>
	<line class="st10" x1="877.2" y1="197.2" x2="877.2" y2="200.7"/>
	<path class="st11" d="M864.4,206.1l3.2-1.6h0.3v11.2c0,0.8,0,1.2,0.1,1.4c0.1,0.2,0.2,0.3,0.4,0.4c0.2,0.1,0.6,0.2,1.2,0.2v0.4h-5
		v-0.4c0.6,0,1-0.1,1.2-0.2c0.2-0.1,0.3-0.2,0.4-0.4c0.1-0.2,0.1-0.6,0.1-1.4v-7.1c0-1,0-1.6-0.1-1.9c0-0.2-0.1-0.4-0.2-0.5
		c-0.1-0.1-0.3-0.1-0.4-0.1c-0.2,0-0.6,0.1-1,0.3L864.4,206.1L864.4,206.1z"/>
	<path class="st11" d="M880.8,204.8l-0.8,1.7h-4l-0.9,1.8c1.7,0.3,3.1,0.9,4.1,1.9c0.9,0.9,1.3,1.9,1.3,3.1c0,0.7-0.1,1.3-0.4,1.9
		c-0.3,0.6-0.6,1.1-1.1,1.5c-0.4,0.4-0.9,0.8-1.4,1c-0.8,0.3-1.5,0.5-2.3,0.5c-0.8,0-1.4-0.1-1.7-0.4c-0.4-0.3-0.5-0.6-0.5-0.9
		c0-0.2,0.1-0.3,0.2-0.5c0.1-0.1,0.3-0.2,0.6-0.2c0.2,0,0.3,0,0.4,0.1c0.1,0.1,0.3,0.2,0.7,0.4c0.5,0.3,1,0.5,1.5,0.5
		c0.8,0,1.4-0.3,2-0.9c0.6-0.6,0.9-1.3,0.9-2.1c0-0.8-0.3-1.5-0.8-2.2c-0.5-0.7-1.2-1.2-2.1-1.6c-0.7-0.3-1.7-0.5-2.9-0.5l2.5-5.1
		H880.8L880.8,204.8z"/>
	<path class="st11" d="M883,211.5c0-1.5,0.2-2.8,0.7-3.9c0.4-1.1,1.1-1.9,1.8-2.4c0.6-0.4,1.2-0.6,1.8-0.6c1,0,1.9,0.5,2.7,1.6
		c1,1.3,1.5,3,1.5,5.2c0,1.5-0.2,2.8-0.7,3.9c-0.4,1.1-1,1.8-1.7,2.3c-0.7,0.5-1.3,0.7-2,0.7c-1.3,0-2.3-0.7-3.2-2.2
		C883.3,214.8,883,213.2,883,211.5 M884.9,211.7c0,1.8,0.2,3.3,0.7,4.5c0.4,1,0.9,1.5,1.7,1.5c0.3,0,0.7-0.1,1.1-0.5
		c0.4-0.3,0.7-0.8,0.9-1.6c0.3-1.1,0.5-2.7,0.5-4.7c0-1.5-0.2-2.8-0.5-3.8c-0.2-0.7-0.5-1.3-0.9-1.6c-0.3-0.2-0.6-0.3-1-0.3
		c-0.4,0-0.8,0.2-1.2,0.6c-0.5,0.6-0.8,1.4-1,2.6C885,209.4,884.9,210.6,884.9,211.7L884.9,211.7z"/>
	<line class="st10" x1="1111.5" y1="197.2" x2="1111.5" y2="200.7"/>
	<path class="st11" d="M1105.7,215.5l-0.9,2.5h-7.8v-0.4c2.3-2.1,3.9-3.8,4.9-5.1c0.9-1.3,1.4-2.5,1.4-3.6c0-0.8-0.3-1.5-0.8-2.1
		c-0.5-0.5-1.1-0.8-1.8-0.8c-0.7,0-1.2,0.2-1.8,0.6s-0.9,0.9-1.1,1.7h-0.4c0.2-1.2,0.6-2.1,1.2-2.8s1.5-1,2.5-1c1.1,0,2,0.4,2.7,1
		c0.7,0.7,1.1,1.5,1.1,2.4c0,0.7-0.2,1.3-0.5,2c-0.5,1.1-1.3,2.2-2.4,3.3c-1.6,1.8-2.6,2.8-3,3.2h3.5c0.7,0,1.2,0,1.5-0.1
		c0.3,0,0.5-0.1,0.8-0.3c0.2-0.2,0.4-0.4,0.6-0.7H1105.7L1105.7,215.5z"/>
	<path class="st11" d="M1107.1,211.5c0-1.5,0.2-2.8,0.7-3.9c0.4-1.1,1.1-1.9,1.8-2.4c0.6-0.4,1.2-0.6,1.8-0.6c1,0,1.9,0.5,2.7,1.6
		c1,1.3,1.5,3,1.5,5.2c0,1.5-0.2,2.8-0.7,3.9c-0.4,1.1-1,1.8-1.7,2.3c-0.7,0.5-1.3,0.7-2,0.7c-1.3,0-2.3-0.7-3.2-2.2
		C1107.5,214.8,1107.1,213.2,1107.1,211.5 M1109,211.7c0,1.8,0.2,3.3,0.7,4.5c0.4,1,0.9,1.5,1.7,1.5c0.3,0,0.7-0.1,1.1-0.5
		c0.4-0.3,0.7-0.8,0.9-1.6c0.3-1.1,0.5-2.7,0.5-4.7c0-1.5-0.2-2.8-0.5-3.8c-0.2-0.7-0.5-1.3-0.9-1.6c-0.3-0.2-0.6-0.3-1-0.3
		c-0.4,0-0.8,0.2-1.2,0.6c-0.5,0.6-0.8,1.4-1,2.6C1109.1,209.4,1109,210.6,1109,211.7L1109,211.7z"/>
	<path class="st11" d="M1117.2,211.5c0-1.5,0.2-2.8,0.7-3.9c0.4-1.1,1.1-1.9,1.8-2.4c0.6-0.4,1.2-0.6,1.8-0.6c1,0,1.9,0.5,2.7,1.6
		c1,1.3,1.5,3,1.5,5.2c0,1.5-0.2,2.8-0.7,3.9c-0.4,1.1-1,1.8-1.7,2.3c-0.7,0.5-1.3,0.7-2,0.7c-1.3,0-2.3-0.7-3.2-2.2
		C1117.5,214.8,1117.2,213.2,1117.2,211.5 M1119.1,211.7c0,1.8,0.2,3.3,0.7,4.5c0.4,1,0.9,1.5,1.7,1.5c0.3,0,0.7-0.1,1.1-0.5
		c0.4-0.3,0.7-0.8,0.9-1.6c0.3-1.1,0.5-2.7,0.5-4.7c0-1.5-0.2-2.8-0.5-3.8c-0.2-0.7-0.5-1.3-0.9-1.6c-0.3-0.2-0.6-0.3-1-0.3
		c-0.4,0-0.8,0.2-1.2,0.6c-0.5,0.6-0.8,1.4-1,2.6C1119.2,209.4,1119.1,210.6,1119.1,211.7L1119.1,211.7z"/>
	<line class="st10" x1="1345.8" y1="197.2" x2="1345.8" y2="200.7"/>
	<path class="st11" d="M1340,215.5l-0.9,2.5h-7.8v-0.4c2.3-2.1,3.9-3.8,4.9-5.1c0.9-1.3,1.4-2.5,1.4-3.6c0-0.8-0.3-1.5-0.8-2.1
		c-0.5-0.5-1.1-0.8-1.8-0.8c-0.7,0-1.2,0.2-1.8,0.6c-0.5,0.4-0.9,0.9-1.1,1.7h-0.4c0.2-1.2,0.6-2.1,1.2-2.8c0.7-0.6,1.5-1,2.5-1
		c1.1,0,2,0.4,2.7,1c0.7,0.7,1.1,1.5,1.1,2.4c0,0.7-0.2,1.3-0.5,2c-0.5,1.1-1.3,2.2-2.4,3.3c-1.6,1.8-2.6,2.8-3,3.2h3.5
		c0.7,0,1.2,0,1.5-0.1c0.3,0,0.5-0.1,0.8-0.3c0.2-0.2,0.4-0.4,0.6-0.7H1340L1340,215.5z"/>
	<path class="st11" d="M1349.6,204.8l-0.8,1.7h-4l-0.9,1.8c1.7,0.3,3.1,0.9,4.1,1.9c0.9,0.9,1.3,1.9,1.3,3.1c0,0.7-0.1,1.3-0.4,1.9
		c-0.3,0.6-0.6,1.1-1.1,1.5c-0.4,0.4-0.9,0.8-1.4,1c-0.8,0.3-1.5,0.5-2.3,0.5c-0.8,0-1.4-0.1-1.7-0.4c-0.4-0.3-0.5-0.6-0.5-0.9
		c0-0.2,0.1-0.3,0.2-0.5c0.1-0.1,0.3-0.2,0.6-0.2c0.2,0,0.3,0,0.4,0.1c0.1,0.1,0.3,0.2,0.7,0.4c0.5,0.3,1,0.5,1.5,0.5
		c0.8,0,1.4-0.3,2-0.9c0.6-0.6,0.9-1.3,0.9-2.1c0-0.8-0.3-1.5-0.8-2.2c-0.5-0.7-1.2-1.2-2.1-1.6c-0.7-0.3-1.7-0.5-2.9-0.5l2.5-5.1
		H1349.6L1349.6,204.8z"/>
	<path class="st11" d="M1351.4,211.5c0-1.5,0.2-2.8,0.7-3.9c0.4-1.1,1.1-1.9,1.8-2.4c0.6-0.4,1.2-0.6,1.8-0.6c1,0,1.9,0.5,2.7,1.6
		c1,1.3,1.5,3,1.5,5.2c0,1.5-0.2,2.8-0.7,3.9c-0.4,1.1-1,1.8-1.7,2.3c-0.7,0.5-1.3,0.7-2,0.7c-1.3,0-2.3-0.7-3.2-2.2
		C1351.8,214.8,1351.4,213.2,1351.4,211.5 M1353.4,211.7c0,1.8,0.2,3.3,0.7,4.5c0.4,1,0.9,1.5,1.7,1.5c0.3,0,0.7-0.1,1.1-0.5
		c0.4-0.3,0.7-0.8,0.9-1.6c0.3-1.1,0.5-2.7,0.5-4.7c0-1.5-0.2-2.8-0.5-3.8c-0.2-0.7-0.5-1.3-0.9-1.6c-0.3-0.2-0.6-0.3-1-0.3
		c-0.4,0-0.8,0.2-1.2,0.6c-0.5,0.6-0.8,1.4-1,2.6C1353.4,209.4,1353.4,210.6,1353.4,211.7L1353.4,211.7z"/>
	<path class="st11" d="M731.3,226.3c0.4,0,0.6,0.1,0.9,0.4c0.2,0.3,0.4,0.5,0.4,0.9c0,0.3-0.1,0.6-0.4,0.9c-0.2,0.3-0.5,0.4-0.9,0.4
		c-0.3,0-0.6-0.1-0.9-0.4c-0.3-0.3-0.4-0.5-0.4-0.9c0-0.4,0.1-0.6,0.3-0.9C730.7,226.5,731,226.3,731.3,226.3 M732.3,232.2v9
		c0,0.7,0.1,1.2,0.2,1.4c0.1,0.3,0.3,0.4,0.5,0.5s0.5,0.1,1.1,0.1v0.5h-5.4v-0.5c0.6,0,0.9,0,1.1-0.1c0.2-0.1,0.3-0.3,0.4-0.5
		c0.1-0.3,0.2-0.7,0.2-1.4v-4.3c0-1.2-0.1-2-0.1-2.4c0-0.3-0.1-0.4-0.3-0.5s-0.3-0.2-0.5-0.2c-0.2,0-0.5,0.1-0.8,0.2l-0.2-0.4
		l3.4-1.4H732.3L732.3,232.2z"/>
	<path class="st11" d="M738.7,234.6c0.8-0.8,1.3-1.3,1.5-1.4c0.4-0.3,0.8-0.6,1.2-0.7c0.4-0.1,0.8-0.3,1.3-0.3
		c0.7,0,1.3,0.2,1.8,0.6c0.5,0.4,0.9,1,1,1.8c0.8-1,1.5-1.6,2.1-1.9c0.6-0.3,1.2-0.5,1.8-0.5c0.6,0,1.1,0.1,1.6,0.5
		c0.4,0.3,0.8,0.8,1.1,1.5c0.2,0.5,0.3,1.2,0.3,2.2v4.8c0,0.7,0,1.2,0.2,1.4c0.1,0.2,0.2,0.3,0.5,0.5c0.2,0.1,0.6,0.2,1.1,0.2v0.5
		h-5.5v-0.5h0.2c0.5,0,0.9-0.1,1.1-0.3c0.2-0.1,0.3-0.3,0.4-0.6c0-0.1,0.1-0.5,0.1-1.2v-4.8c0-0.9-0.1-1.5-0.3-1.9
		c-0.3-0.5-0.8-0.8-1.5-0.8c-0.5,0-0.9,0.1-1.3,0.3c-0.5,0.2-1,0.6-1.6,1.2l0,0.1l0,0.5v5.3c0,0.8,0,1.3,0.1,1.4
		c0.1,0.2,0.2,0.4,0.5,0.5c0.2,0.1,0.6,0.2,1.2,0.2v0.5h-5.6v-0.5c0.6,0,1,0,1.3-0.2c0.2-0.1,0.4-0.4,0.5-0.7c0-0.1,0.1-0.5,0.1-1.2
		v-4.8c0-0.9-0.2-1.6-0.4-2c-0.4-0.5-0.9-0.8-1.5-0.8c-0.4,0-0.9,0.1-1.3,0.4c-0.7,0.4-1.2,0.8-1.6,1.2v6c0,0.8,0,1.2,0.2,1.4
		c0.1,0.2,0.3,0.4,0.4,0.5c0.2,0.1,0.6,0.1,1.2,0.1v0.5H735v-0.5c0.5,0,0.9,0,1-0.1c0.2-0.1,0.4-0.3,0.5-0.5s0.1-0.7,0.1-1.4v-4.3
		c0-1.2,0-2-0.1-2.4c0-0.3-0.2-0.5-0.3-0.6s-0.3-0.2-0.5-0.2c-0.2,0-0.5,0.1-0.8,0.2l-0.2-0.4l3.4-1.4h0.5V234.6L738.7,234.6z"/>
	<path class="st11" d="M754.1,233.6l3.4-1.4h0.5v2.6c0.6-1,1.1-1.6,1.7-2c0.6-0.4,1.2-0.6,1.8-0.6c1.1,0,2.1,0.5,2.8,1.3
		c0.9,1.1,1.4,2.5,1.4,4.2c0,2-0.6,3.5-1.7,4.8c-0.9,1-2,1.5-3.4,1.5c-0.6,0-1.1-0.1-1.6-0.3c-0.3-0.1-0.7-0.3-1.1-0.7v3.4
		c0,0.8,0,1.3,0.1,1.4c0.1,0.2,0.3,0.4,0.5,0.5c0.2,0.1,0.7,0.2,1.3,0.2v0.5H754v-0.5h0.3c0.5,0,0.8-0.1,1.1-0.3
		c0.2-0.1,0.3-0.3,0.4-0.5c0.1-0.2,0.1-0.7,0.1-1.5v-10.5c0-0.7-0.1-1.2-0.1-1.4c-0.1-0.2-0.2-0.4-0.3-0.5c-0.2-0.1-0.3-0.1-0.5-0.1
		c-0.2,0-0.5,0.1-0.8,0.2L754.1,233.6 M758,235.6v4.2c0,0.9,0,1.5,0.1,1.8c0.1,0.5,0.4,0.9,0.8,1.3c0.4,0.3,1,0.5,1.7,0.5
		c0.8,0,1.5-0.3,2-1c0.7-0.8,1-2,1-3.5c0-1.7-0.4-3-1.1-3.9c-0.5-0.6-1.1-1-1.8-1c-0.4,0-0.8,0.1-1.2,0.3
		C759.1,234.4,758.6,234.8,758,235.6L758,235.6z"/>
	<path class="st11" d="M772.8,232.2c1.7,0,3,0.6,4.1,1.9c0.8,1.1,1.3,2.4,1.3,3.8c0,1-0.3,2-0.7,3c-0.5,1-1.1,1.8-2,2.3
		s-1.8,0.8-2.8,0.8c-1.7,0-3-0.7-4-2c-0.9-1.1-1.3-2.4-1.3-3.8c0-1,0.3-2,0.8-3s1.2-1.8,2-2.3C771,232.4,771.9,232.2,772.8,232.2
		 M772.4,233c-0.5,0-0.9,0.1-1.3,0.4c-0.5,0.3-0.8,0.7-1.1,1.4c-0.3,0.6-0.4,1.5-0.4,2.5c0,1.6,0.3,3,1,4.2c0.7,1.2,1.5,1.8,2.6,1.8
		c0.8,0,1.4-0.3,2-1c0.5-0.6,0.8-1.8,0.8-3.4c0-2-0.5-3.5-1.3-4.7C774.1,233.4,773.3,233,772.4,233L772.4,233z"/>
	<path class="st11" d="M783.1,232.2v2.5c0.9-1.6,1.9-2.5,2.9-2.5c0.5,0,0.8,0.1,1.1,0.4c0.3,0.3,0.5,0.6,0.5,1
		c0,0.3-0.1,0.6-0.3,0.8c-0.2,0.2-0.5,0.3-0.8,0.3s-0.6-0.1-1-0.4c-0.3-0.3-0.6-0.4-0.8-0.4c-0.2,0-0.3,0.1-0.5,0.3
		c-0.4,0.4-0.8,0.9-1.2,1.6v5.4c0,0.6,0.1,1.1,0.2,1.4c0.1,0.2,0.3,0.4,0.6,0.6c0.3,0.1,0.6,0.2,1.2,0.2v0.5h-5.7v-0.5
		c0.5,0,1-0.1,1.3-0.3c0.2-0.1,0.3-0.3,0.4-0.6c0-0.1,0.1-0.5,0.1-1.2v-4.3c0-1.3,0-2.1-0.1-2.3c0-0.3-0.2-0.4-0.3-0.6
		c-0.1-0.1-0.3-0.2-0.5-0.2c-0.3,0-0.6,0.1-0.9,0.2l-0.1-0.4l3.4-1.4H783.1L783.1,232.2z"/>
	<path class="st11" d="M791.5,228.8v3.7h2.6v0.8h-2.6v7.3c0,0.7,0.1,1.2,0.3,1.5c0.2,0.3,0.5,0.4,0.8,0.4c0.2,0,0.5-0.1,0.8-0.3
		c0.3-0.1,0.4-0.4,0.6-0.8h0.5c-0.3,0.8-0.7,1.4-1.2,1.8c-0.5,0.4-1,0.6-1.6,0.6c-0.4,0-0.8-0.1-1.1-0.3c-0.3-0.2-0.6-0.5-0.8-0.9
		c-0.2-0.4-0.3-1-0.3-1.8v-7.5h-1.8V233c0.5-0.2,0.9-0.5,1.4-0.9c0.5-0.4,0.9-0.9,1.3-1.5c0.2-0.3,0.4-0.9,0.8-1.7H791.5
		L791.5,228.8z"/>
	<path class="st11" d="M801.3,242.1c-1.2,0.9-1.9,1.4-2.2,1.5c-0.4,0.2-0.9,0.3-1.4,0.3c-0.8,0-1.4-0.3-1.9-0.8
		c-0.5-0.5-0.8-1.2-0.8-2.1c0-0.6,0.1-1,0.4-1.4c0.3-0.5,0.9-1,1.7-1.5c0.8-0.5,2.2-1.1,4.2-1.8v-0.5c0-1.1-0.2-1.9-0.6-2.3
		c-0.3-0.4-0.9-0.6-1.5-0.6c-0.5,0-0.9,0.1-1.2,0.4c-0.3,0.3-0.5,0.6-0.5,1l0,0.7c0,0.4-0.1,0.7-0.3,0.9c-0.2,0.2-0.4,0.3-0.7,0.3
		c-0.3,0-0.6-0.1-0.8-0.3c-0.2-0.2-0.3-0.5-0.3-0.9c0-0.7,0.3-1.3,1.1-1.9c0.7-0.6,1.7-0.9,3-0.9c1,0,1.8,0.2,2.5,0.5
		c0.5,0.3,0.8,0.6,1.1,1.2c0.1,0.4,0.2,1.1,0.2,2.2v3.8c0,1.1,0,1.7,0,2c0.1,0.3,0.1,0.4,0.2,0.5c0.1,0.1,0.2,0.1,0.3,0.1
		c0.1,0,0.2,0,0.3-0.1c0.2-0.1,0.5-0.4,1-0.9v0.7c-0.9,1.2-1.8,1.8-2.6,1.8c-0.4,0-0.7-0.2-0.9-0.4
		C801.4,243.2,801.3,242.8,801.3,242.1 M801.3,241.3V237c-1.3,0.5-2.1,0.8-2.4,1c-0.7,0.4-1.1,0.7-1.4,1.1s-0.4,0.8-0.4,1.3
		c0,0.6,0.2,1.1,0.5,1.5s0.8,0.6,1.2,0.6C799.4,242.5,800.3,242.1,801.3,241.3L801.3,241.3z"/>
	<path class="st11" d="M809.5,234.5c1.3-1.6,2.6-2.4,3.8-2.4c0.6,0,1.1,0.1,1.6,0.5c0.4,0.3,0.8,0.8,1.1,1.5
		c0.2,0.5,0.3,1.3,0.3,2.3v4.8c0,0.7,0.1,1.2,0.2,1.4c0.1,0.2,0.2,0.4,0.4,0.5c0.2,0.1,0.6,0.1,1.1,0.1v0.5h-5.5v-0.5h0.3
		c0.5,0,0.9-0.1,1.1-0.2c0.2-0.2,0.4-0.4,0.5-0.7c0-0.1,0-0.5,0-1.1v-4.6c0-1-0.1-1.8-0.4-2.2c-0.3-0.5-0.7-0.7-1.3-0.7
		c-1,0-1.9,0.5-2.9,1.6v5.9c0,0.8,0,1.2,0.1,1.4c0.1,0.3,0.3,0.4,0.5,0.5c0.2,0.1,0.6,0.1,1.2,0.1v0.5h-5.5v-0.5h0.3
		c0.5,0,0.9-0.1,1.2-0.4c0.2-0.3,0.3-0.8,0.3-1.6V237c0-1.4,0-2.2-0.1-2.5c0-0.3-0.1-0.5-0.3-0.6c-0.1-0.1-0.3-0.2-0.5-0.2
		c-0.3,0-0.5,0.1-0.8,0.2l-0.2-0.4l3.4-1.4h0.5V234.5L809.5,234.5z"/>
	<path class="st11" d="M828.2,239.4c-0.3,1.5-0.9,2.6-1.8,3.4c-0.9,0.8-1.8,1.2-2.9,1.2c-1.3,0-2.4-0.5-3.3-1.6
		c-1-1-1.4-2.5-1.4-4.3c0-1.8,0.5-3.2,1.6-4.3c1.1-1.1,2.3-1.6,3.8-1.6c1.1,0,2,0.3,2.7,0.9s1.1,1.2,1.1,1.8c0,0.3-0.1,0.6-0.3,0.8
		c-0.2,0.2-0.5,0.3-0.8,0.3c-0.5,0-0.8-0.2-1.1-0.5c-0.1-0.1-0.2-0.5-0.3-1c0-0.5-0.2-0.9-0.5-1.1c-0.3-0.3-0.7-0.4-1.2-0.4
		c-0.8,0-1.5,0.3-2,0.9c-0.7,0.8-1,1.9-1,3.2c0,1.4,0.3,2.5,1,3.5c0.7,1,1.6,1.5,2.7,1.5c0.8,0,1.5-0.3,2.2-0.8c0.4-0.4,0.9-1,1.3-2
		L828.2,239.4L828.2,239.4z"/>
	<path class="st11" d="M831.6,236.7c0,1.7,0.4,3,1.2,3.9c0.8,1,1.8,1.4,2.9,1.4c0.7,0,1.3-0.2,1.9-0.6c0.6-0.4,1-1.1,1.4-2.1
		l0.4,0.3c-0.2,1.1-0.7,2.2-1.5,3.1c-0.8,0.9-1.8,1.4-3.1,1.4c-1.3,0-2.5-0.5-3.5-1.6c-1-1-1.4-2.4-1.4-4.2c0-1.9,0.5-3.4,1.5-4.5
		c1-1.1,2.2-1.6,3.7-1.6c1.3,0,2.3,0.4,3.1,1.3c0.8,0.8,1.2,1.9,1.2,3.3H831.6 M831.6,236h5.2c-0.1-0.7-0.1-1.2-0.3-1.5
		c-0.2-0.4-0.5-0.8-0.9-1s-0.8-0.4-1.3-0.4c-0.7,0-1.3,0.3-1.8,0.8C832,234.4,831.7,235.1,831.6,236L831.6,236z"/>
	<line class="st10" x1="174.2" y1="48.4" x2="170.7" y2="48.4"/>
	<path class="st11" d="M37.1,43.4v2.9h2.1V47h-2.1v5.8c0,0.6,0.1,1,0.2,1.2c0.2,0.2,0.4,0.3,0.7,0.3c0.2,0,0.4-0.1,0.6-0.2
		c0.2-0.1,0.3-0.3,0.5-0.6h0.4c-0.2,0.6-0.6,1.1-1,1.4c-0.4,0.3-0.8,0.5-1.3,0.5c-0.3,0-0.6-0.1-0.9-0.2c-0.3-0.2-0.5-0.4-0.6-0.7
		c-0.1-0.3-0.2-0.8-0.2-1.4v-6H34v-0.3c0.4-0.1,0.7-0.4,1.1-0.7c0.4-0.3,0.7-0.7,1-1.2c0.1-0.2,0.3-0.7,0.6-1.4H37.1L37.1,43.4z"/>
	<path class="st11" d="M44.4,46.1c1.4,0,2.4,0.5,3.3,1.5c0.7,0.9,1,1.9,1,3c0,0.8-0.2,1.6-0.6,2.4s-0.9,1.4-1.6,1.8
		s-1.4,0.6-2.2,0.6c-1.4,0-2.4-0.5-3.2-1.6c-0.7-0.9-1-1.9-1-3c0-0.8,0.2-1.6,0.6-2.4c0.4-0.8,0.9-1.4,1.6-1.8
		C42.9,46.3,43.6,46.1,44.4,46.1 M44.1,46.7c-0.4,0-0.7,0.1-1,0.3c-0.4,0.2-0.6,0.6-0.8,1.1c-0.2,0.5-0.3,1.2-0.3,2
		c0,1.3,0.2,2.4,0.8,3.4c0.5,1,1.2,1.4,2.1,1.4c0.6,0,1.1-0.3,1.6-0.8c0.4-0.5,0.6-1.4,0.6-2.7c0-1.6-0.4-2.8-1-3.8
		C45.4,47,44.8,46.7,44.1,46.7L44.1,46.7z"/>
	<path class="st11" d="M52.7,43.4v2.9h2.1V47h-2.1v5.8c0,0.6,0.1,1,0.2,1.2c0.2,0.2,0.4,0.3,0.7,0.3c0.2,0,0.4-0.1,0.6-0.2
		c0.2-0.1,0.3-0.3,0.5-0.6H55c-0.2,0.6-0.6,1.1-1,1.4c-0.4,0.3-0.8,0.5-1.3,0.5c-0.3,0-0.6-0.1-0.9-0.2c-0.3-0.2-0.5-0.4-0.6-0.7
		c-0.1-0.3-0.2-0.8-0.2-1.4v-6h-1.4v-0.3c0.4-0.1,0.7-0.4,1.1-0.7c0.4-0.3,0.7-0.7,1-1.2c0.1-0.2,0.3-0.7,0.6-1.4H52.7L52.7,43.4z"
		/>
	<path class="st11" d="M60.7,54c-0.9,0.7-1.5,1.1-1.7,1.2c-0.4,0.1-0.7,0.2-1.1,0.2c-0.6,0-1.1-0.2-1.5-0.6c-0.4-0.4-0.6-1-0.6-1.7
		c0-0.4,0.1-0.8,0.3-1.1c0.3-0.4,0.7-0.8,1.4-1.2c0.7-0.4,1.8-0.9,3.3-1.4V49c0-0.9-0.2-1.5-0.4-1.8c-0.3-0.3-0.7-0.5-1.2-0.5
		c-0.4,0-0.7,0.1-1,0.3c-0.3,0.2-0.4,0.5-0.4,0.8l0,0.6c0,0.3-0.1,0.5-0.2,0.7c-0.2,0.2-0.3,0.2-0.6,0.2s-0.4-0.1-0.6-0.2
		S56,48.6,56,48.3c0-0.6,0.3-1.1,0.9-1.5c0.6-0.5,1.4-0.7,2.4-0.7c0.8,0,1.4,0.1,2,0.4c0.4,0.2,0.7,0.5,0.8,0.9
		c0.1,0.3,0.2,0.9,0.2,1.7v3c0,0.9,0,1.4,0,1.6c0,0.2,0.1,0.3,0.2,0.4c0.1,0.1,0.2,0.1,0.3,0.1c0.1,0,0.2,0,0.3-0.1
		c0.1-0.1,0.4-0.3,0.8-0.7V54c-0.7,1-1.4,1.4-2.1,1.4c-0.3,0-0.6-0.1-0.8-0.3C60.7,54.9,60.7,54.5,60.7,54 M60.7,53.4v-3.4
		c-1,0.4-1.6,0.7-1.9,0.8c-0.5,0.3-0.9,0.6-1.1,0.9c-0.2,0.3-0.3,0.7-0.3,1c0,0.5,0.1,0.9,0.4,1.2c0.3,0.3,0.6,0.5,1,0.5
		C59.2,54.3,59.8,54,60.7,53.4L60.7,53.4z"/>
	<path class="st11" d="M67.5,41.4v11.9c0,0.6,0,0.9,0.1,1.1c0.1,0.2,0.2,0.3,0.4,0.4c0.2,0.1,0.5,0.1,0.9,0.1v0.4h-4.4v-0.4
		c0.4,0,0.7,0,0.8-0.1c0.1-0.1,0.3-0.2,0.3-0.4c0.1-0.2,0.1-0.6,0.1-1.1v-8.1c0-1,0-1.6-0.1-1.9c0-0.2-0.1-0.4-0.2-0.5
		c-0.1-0.1-0.2-0.1-0.4-0.1s-0.4,0.1-0.6,0.1l-0.2-0.3l2.7-1.1H67.5L67.5,41.4z"/>
	<path class="st11" d="M80.8,46.1v3h-0.3c-0.2-1-0.6-1.6-0.9-2c-0.4-0.3-0.9-0.5-1.5-0.5c-0.5,0-0.8,0.1-1.1,0.4
		c-0.3,0.2-0.4,0.5-0.4,0.8c0,0.4,0.1,0.7,0.3,0.9c0.2,0.3,0.6,0.6,1.2,0.9l1.4,0.7c1.3,0.7,2,1.5,2,2.6c0,0.8-0.3,1.5-0.9,2
		c-0.6,0.5-1.3,0.7-2.1,0.7c-0.6,0-1.2-0.1-1.9-0.3c-0.2-0.1-0.4-0.1-0.5-0.1c-0.2,0-0.3,0.1-0.3,0.2h-0.3v-3.2h0.3
		c0.2,0.9,0.5,1.6,1,2.1c0.5,0.5,1.1,0.7,1.7,0.7c0.4,0,0.8-0.1,1.1-0.4c0.3-0.3,0.4-0.6,0.4-1c0-0.4-0.2-0.8-0.5-1.1
		c-0.3-0.3-1-0.7-1.9-1.2c-0.9-0.5-1.6-0.9-1.8-1.3c-0.3-0.4-0.4-0.8-0.4-1.4c0-0.7,0.2-1.3,0.8-1.8c0.5-0.5,1.2-0.7,2-0.7
		c0.3,0,0.8,0.1,1.3,0.2c0.3,0.1,0.5,0.1,0.7,0.1c0.1,0,0.2,0,0.2-0.1c0,0,0.1-0.1,0.2-0.3H80.8L80.8,46.1z"/>
	<path class="st11" d="M85.5,43.4v2.9h2.1V47h-2.1v5.8c0,0.6,0.1,1,0.2,1.2c0.2,0.2,0.4,0.3,0.7,0.3c0.2,0,0.4-0.1,0.6-0.2
		c0.2-0.1,0.3-0.3,0.5-0.6h0.4c-0.2,0.6-0.6,1.1-1,1.4c-0.4,0.3-0.8,0.5-1.3,0.5c-0.3,0-0.6-0.1-0.9-0.2c-0.3-0.2-0.5-0.4-0.6-0.7
		c-0.1-0.3-0.2-0.8-0.2-1.4v-6h-1.4v-0.3c0.4-0.1,0.7-0.4,1.1-0.7c0.4-0.3,0.7-0.7,1-1.2c0.1-0.2,0.3-0.7,0.6-1.4H85.5L85.5,43.4z"
		/>
	<path class="st11" d="M90,49.7c0,1.3,0.3,2.4,1,3.1c0.6,0.8,1.4,1.1,2.3,1.1c0.6,0,1.1-0.2,1.5-0.5c0.4-0.3,0.8-0.9,1.1-1.7
		l0.3,0.2c-0.2,0.9-0.6,1.7-1.2,2.4c-0.7,0.7-1.5,1.1-2.5,1.1c-1.1,0-2-0.4-2.8-1.2c-0.8-0.8-1.1-2-1.1-3.4c0-1.5,0.4-2.7,1.2-3.6
		c0.8-0.8,1.8-1.3,3-1.3c1,0,1.8,0.3,2.5,1c0.6,0.7,1,1.5,1,2.6H90 M90,49.1h4.1c0-0.6-0.1-1-0.2-1.2c-0.2-0.4-0.4-0.6-0.7-0.8
		c-0.3-0.2-0.7-0.3-1-0.3c-0.5,0-1,0.2-1.4,0.6C90.3,47.8,90,48.4,90,49.1L90,49.1z"/>
	<path class="st11" d="M100,48c1-1.2,2-1.9,3-1.9c0.5,0,0.9,0.1,1.2,0.4c0.4,0.2,0.6,0.6,0.9,1.2c0.1,0.4,0.2,1,0.2,1.8v3.8
		c0,0.6,0,1,0.1,1.2c0.1,0.2,0.2,0.3,0.3,0.4c0.2,0.1,0.5,0.1,0.9,0.1v0.4h-4.4v-0.4h0.2c0.4,0,0.7-0.1,0.9-0.2
		c0.2-0.1,0.3-0.3,0.4-0.6c0-0.1,0-0.4,0-0.9v-3.7c0-0.8-0.1-1.4-0.3-1.8c-0.2-0.4-0.6-0.6-1.1-0.6c-0.8,0-1.5,0.4-2.3,1.3v4.7
		c0,0.6,0,1,0.1,1.1c0.1,0.2,0.2,0.3,0.4,0.4c0.2,0.1,0.5,0.1,1,0.1v0.4H97v-0.4h0.2c0.4,0,0.8-0.1,0.9-0.3c0.2-0.2,0.2-0.7,0.2-1.3
		v-3.3c0-1.1,0-1.7-0.1-2c0-0.2-0.1-0.4-0.2-0.5c-0.1-0.1-0.2-0.1-0.4-0.1c-0.2,0-0.4,0.1-0.7,0.2l-0.1-0.4l2.7-1.1h0.4V48L100,48z"
		/>
	<path class="st11" d="M109.8,43.4v2.9h2.1V47h-2.1v5.8c0,0.6,0.1,1,0.2,1.2c0.2,0.2,0.4,0.3,0.7,0.3c0.2,0,0.4-0.1,0.6-0.2
		c0.2-0.1,0.3-0.3,0.5-0.6h0.4c-0.2,0.6-0.6,1.1-1,1.4c-0.4,0.3-0.8,0.5-1.3,0.5c-0.3,0-0.6-0.1-0.9-0.2c-0.3-0.2-0.5-0.4-0.6-0.7
		c-0.1-0.3-0.2-0.8-0.2-1.4v-6h-1.4v-0.3c0.4-0.1,0.7-0.4,1.1-0.7c0.4-0.3,0.7-0.7,1-1.2c0.1-0.2,0.3-0.7,0.6-1.4H109.8L109.8,43.4z
		"/>
	<path class="st11" d="M120.8,41.4v11.9c0,0.6,0,0.9,0.1,1.1c0.1,0.2,0.2,0.3,0.4,0.4c0.2,0.1,0.5,0.1,0.9,0.1v0.4h-4.4v-0.4
		c0.4,0,0.7,0,0.8-0.1c0.1-0.1,0.3-0.2,0.3-0.4c0.1-0.2,0.1-0.6,0.1-1.1v-8.1c0-1,0-1.6-0.1-1.9c0-0.2-0.1-0.4-0.2-0.5
		c-0.1-0.1-0.2-0.1-0.4-0.1c-0.2,0-0.4,0.1-0.6,0.1l-0.2-0.3l2.7-1.1H120.8L120.8,41.4z"/>
	<path class="st11" d="M125,49.7c0,1.3,0.3,2.4,1,3.1c0.6,0.8,1.4,1.1,2.3,1.1c0.6,0,1.1-0.2,1.5-0.5s0.8-0.9,1.1-1.7l0.3,0.2
		c-0.2,0.9-0.6,1.7-1.2,2.4c-0.7,0.7-1.5,1.1-2.5,1.1c-1.1,0-2-0.4-2.8-1.2c-0.8-0.8-1.1-2-1.1-3.4c0-1.5,0.4-2.7,1.2-3.6
		c0.8-0.8,1.8-1.3,3-1.3c1,0,1.8,0.3,2.5,1c0.6,0.7,1,1.5,1,2.6H125 M125,49.1h4.1c0-0.6-0.1-1-0.2-1.2c-0.2-0.4-0.4-0.6-0.7-0.8
		c-0.3-0.2-0.7-0.3-1-0.3c-0.5,0-1,0.2-1.4,0.6C125.3,47.8,125.1,48.4,125,49.1L125,49.1z"/>
	<path class="st11" d="M135,48c1-1.2,2-1.9,3-1.9c0.5,0,0.9,0.1,1.2,0.4c0.4,0.2,0.6,0.6,0.9,1.2c0.1,0.4,0.2,1,0.2,1.8v3.8
		c0,0.6,0,1,0.1,1.2c0.1,0.2,0.2,0.3,0.3,0.4c0.2,0.1,0.5,0.1,0.9,0.1v0.4h-4.4v-0.4h0.2c0.4,0,0.7-0.1,0.9-0.2s0.3-0.3,0.4-0.6
		c0-0.1,0-0.4,0-0.9v-3.7c0-0.8-0.1-1.4-0.3-1.8c-0.2-0.4-0.6-0.6-1.1-0.6c-0.8,0-1.5,0.4-2.3,1.3v4.7c0,0.6,0,1,0.1,1.1
		c0.1,0.2,0.2,0.3,0.4,0.4s0.5,0.1,1,0.1v0.4H132v-0.4h0.2c0.4,0,0.8-0.1,0.9-0.3c0.2-0.2,0.2-0.7,0.2-1.3v-3.3c0-1.1,0-1.7-0.1-2
		c0-0.2-0.1-0.4-0.2-0.5c-0.1-0.1-0.2-0.1-0.4-0.1c-0.2,0-0.4,0.1-0.7,0.2l-0.1-0.4l2.7-1.1h0.4V48L135,48z"/>
	<path class="st11" d="M144.6,52c-0.6-0.3-1-0.6-1.3-1.1c-0.3-0.5-0.4-1-0.4-1.6c0-0.9,0.3-1.6,1-2.3c0.7-0.6,1.5-1,2.6-1
		c0.8,0,1.6,0.2,2.2,0.6h1.9c0.3,0,0.4,0,0.5,0c0,0,0.1,0,0.1,0.1c0,0.1,0.1,0.2,0.1,0.3c0,0.2,0,0.3-0.1,0.3c0,0-0.1,0.1-0.1,0.1
		c0,0-0.2,0-0.5,0h-1.2c0.4,0.5,0.5,1.1,0.5,1.8c0,0.8-0.3,1.5-1,2.1c-0.6,0.6-1.5,0.9-2.6,0.9c-0.5,0-0.9-0.1-1.4-0.2
		c-0.3,0.3-0.5,0.5-0.6,0.7c-0.1,0.2-0.1,0.3-0.1,0.5c0,0.1,0,0.2,0.2,0.3c0.1,0.1,0.3,0.2,0.6,0.2c0.2,0,0.6,0.1,1.4,0.1
		c1.3,0,2.2,0.1,2.6,0.1c0.6,0.1,1.1,0.3,1.5,0.7c0.4,0.4,0.5,0.8,0.5,1.3c0,0.7-0.4,1.4-1,2.1c-1,0.9-2.3,1.4-4,1.4
		c-1.3,0-2.3-0.3-3.2-0.9c-0.5-0.3-0.7-0.7-0.7-1c0-0.2,0-0.3,0.1-0.5c0.1-0.2,0.3-0.6,0.7-1c0-0.1,0.4-0.4,1-1
		c-0.3-0.2-0.6-0.4-0.7-0.5c-0.1-0.2-0.2-0.3-0.2-0.5c0-0.2,0.1-0.5,0.3-0.8C143.5,53,143.9,52.6,144.6,52 M146.3,46.5
		c-0.5,0-0.9,0.2-1.2,0.6c-0.3,0.4-0.5,1-0.5,1.8c0,1,0.2,1.8,0.7,2.4c0.3,0.4,0.8,0.6,1.3,0.6c0.5,0,0.9-0.2,1.2-0.6
		c0.3-0.4,0.5-0.9,0.5-1.7c0-1-0.2-1.8-0.7-2.4C147.3,46.8,146.8,46.5,146.3,46.5 M144.5,55.3c-0.3,0.3-0.5,0.6-0.7,0.9
		c-0.2,0.3-0.2,0.6-0.2,0.8c0,0.3,0.2,0.6,0.6,0.8c0.6,0.4,1.6,0.6,2.8,0.6c1.2,0,2-0.2,2.6-0.6c0.6-0.4,0.8-0.9,0.8-1.3
		c0-0.3-0.2-0.6-0.5-0.7c-0.4-0.2-1-0.2-2-0.3C146.4,55.4,145.3,55.4,144.5,55.3L144.5,55.3z"/>
	<path class="st11" d="M154.9,43.4v2.9h2.1V47h-2.1v5.8c0,0.6,0.1,1,0.2,1.2c0.2,0.2,0.4,0.3,0.7,0.3c0.2,0,0.4-0.1,0.6-0.2
		c0.2-0.1,0.3-0.3,0.5-0.6h0.4c-0.2,0.6-0.6,1.1-1,1.4c-0.4,0.3-0.8,0.5-1.3,0.5c-0.3,0-0.6-0.1-0.9-0.2c-0.3-0.2-0.5-0.4-0.6-0.7
		c-0.1-0.3-0.2-0.8-0.2-1.4v-6h-1.4v-0.3c0.4-0.1,0.7-0.4,1.1-0.7c0.4-0.3,0.7-0.7,1-1.2c0.1-0.2,0.3-0.7,0.6-1.4H154.9L154.9,43.4z
		"/>
	<path class="st11" d="M160.5,41.4v6.5c0.7-0.8,1.3-1.3,1.7-1.5c0.4-0.2,0.8-0.3,1.3-0.3c0.5,0,0.9,0.1,1.3,0.4s0.6,0.7,0.8,1.3
		c0.1,0.4,0.2,1.2,0.2,2.3v3.2c0,0.6,0,1,0.1,1.2c0.1,0.2,0.2,0.3,0.3,0.4c0.2,0.1,0.4,0.1,0.9,0.1v0.4h-4.4v-0.4h0.2
		c0.4,0,0.7-0.1,0.9-0.2s0.3-0.3,0.4-0.6c0-0.1,0-0.4,0-0.9v-3.2c0-1-0.1-1.6-0.2-1.9c-0.1-0.3-0.3-0.5-0.5-0.7
		c-0.2-0.2-0.5-0.2-0.8-0.2c-0.3,0-0.7,0.1-1,0.3c-0.3,0.2-0.7,0.5-1.2,1v4.7c0,0.6,0,1,0.1,1.1c0.1,0.2,0.2,0.3,0.4,0.4
		c0.2,0.1,0.5,0.1,1,0.1v0.4h-4.4v-0.4c0.4,0,0.7-0.1,0.9-0.2c0.1-0.1,0.2-0.2,0.3-0.4c0.1-0.2,0.1-0.6,0.1-1.1v-8.1
		c0-1,0-1.6-0.1-1.9c-0.1-0.2-0.1-0.4-0.2-0.5c-0.1-0.1-0.2-0.1-0.4-0.1c-0.1,0-0.4,0.1-0.7,0.1l-0.1-0.3l2.7-1.1H160.5L160.5,41.4z
		"/>
	<line class="st10" x1="174.2" y1="68.2" x2="170.7" y2="68.2"/>
	<path class="st11" d="M113.6,68.1h6.1v-3.8c0-0.7,0-1.1-0.1-1.3c-0.1-0.2-0.2-0.3-0.4-0.4c-0.3-0.2-0.6-0.2-0.9-0.2h-0.5V62h5.7
		v0.4H123c-0.3,0-0.6,0.1-0.9,0.2c-0.2,0.1-0.4,0.3-0.4,0.5c-0.1,0.2-0.1,0.7-0.1,1.3v8.5c0,0.7,0,1.1,0.1,1.3
		c0.1,0.2,0.2,0.3,0.4,0.4c0.3,0.2,0.6,0.2,0.9,0.2h0.5v0.4h-5.7v-0.4h0.5c0.5,0,0.9-0.2,1.2-0.5c0.2-0.2,0.2-0.7,0.2-1.5v-4h-6.1v4
		c0,0.7,0,1.1,0.1,1.3c0.1,0.2,0.2,0.3,0.4,0.4c0.3,0.2,0.6,0.2,0.9,0.2h0.5v0.4h-5.7v-0.4h0.5c0.5,0,0.9-0.2,1.2-0.5
		c0.2-0.2,0.2-0.7,0.2-1.5v-8.5c0-0.7-0.1-1.1-0.1-1.3c-0.1-0.2-0.2-0.3-0.4-0.4c-0.3-0.2-0.6-0.2-0.9-0.2h-0.5V62h5.7v0.4H115
		c-0.3,0-0.6,0.1-0.9,0.2c-0.2,0.1-0.3,0.3-0.4,0.5c-0.1,0.2-0.1,0.7-0.1,1.3V68.1L113.6,68.1z"/>
	<path class="st11" d="M126.9,67.8c0.9-1.2,1.8-1.8,2.8-1.8c0.9,0,1.7,0.4,2.4,1.2c0.7,0.8,1,1.8,1,3.2c0,1.6-0.5,2.9-1.6,3.8
		c-0.9,0.8-1.9,1.2-3,1.2c-0.5,0-1.1-0.1-1.6-0.3c-0.5-0.2-1.1-0.5-1.6-0.8v-9.3c0-1,0-1.6-0.1-1.9c0-0.2-0.1-0.4-0.2-0.5
		c-0.1-0.1-0.2-0.1-0.4-0.1c-0.2,0-0.4,0.1-0.7,0.1l-0.1-0.3l2.7-1.1h0.4V67.8 M126.9,68.4v5.4c0.3,0.3,0.7,0.6,1,0.7
		s0.7,0.2,1.1,0.2c0.6,0,1.1-0.3,1.6-1c0.5-0.6,0.8-1.6,0.8-2.8c0-1.1-0.3-2-0.8-2.6c-0.5-0.6-1.1-0.9-1.7-0.9c-0.4,0-0.7,0.1-1,0.3
		C127.6,67.8,127.3,68,126.9,68.4L126.9,68.4z"/>
	<path class="st11" d="M143.1,70.8h-5.1l-0.9,2.1c-0.2,0.5-0.3,0.9-0.3,1.1c0,0.2,0.1,0.4,0.3,0.6c0.2,0.2,0.6,0.2,1.2,0.3v0.4h-4.2
		v-0.4c0.5-0.1,0.9-0.2,1.1-0.4c0.3-0.3,0.7-0.9,1.1-1.9l4.7-10.9h0.3l4.6,11c0.4,0.9,0.7,1.5,1,1.7c0.3,0.3,0.7,0.4,1.3,0.4v0.4
		h-5.2v-0.4c0.5,0,0.9-0.1,1.1-0.3c0.2-0.1,0.3-0.3,0.3-0.6c0-0.3-0.1-0.7-0.4-1.3L143.1,70.8 M142.8,70l-2.2-5.3l-2.3,5.3H142.8
		L142.8,70z"/>
	<path class="st11" d="M150.7,63.3l3.2-1.6h0.3v11.2c0,0.8,0,1.2,0.1,1.4c0.1,0.2,0.2,0.3,0.4,0.4c0.2,0.1,0.6,0.2,1.2,0.2v0.4h-5
		v-0.4c0.6,0,1-0.1,1.2-0.2c0.2-0.1,0.3-0.2,0.4-0.4s0.1-0.6,0.1-1.4v-7.1c0-1,0-1.6-0.1-1.9c0-0.2-0.1-0.4-0.2-0.5
		c-0.1-0.1-0.3-0.1-0.4-0.1c-0.2,0-0.6,0.1-1,0.3L150.7,63.3L150.7,63.3z"/>
	<path class="st11" d="M166.6,71.8c-0.2,1.2-0.7,2.1-1.4,2.7c-0.7,0.6-1.5,0.9-2.3,0.9c-1,0-1.9-0.4-2.7-1.3c-0.8-0.8-1.1-2-1.1-3.5
		c0-1.4,0.4-2.5,1.3-3.4c0.8-0.9,1.8-1.3,3-1.3c0.9,0,1.6,0.2,2.1,0.7c0.6,0.5,0.9,0.9,0.9,1.4c0,0.3-0.1,0.5-0.2,0.6
		c-0.2,0.2-0.4,0.2-0.7,0.2c-0.4,0-0.7-0.1-0.9-0.4c-0.1-0.1-0.2-0.4-0.2-0.8c0-0.4-0.2-0.7-0.4-0.9c-0.2-0.2-0.6-0.3-1-0.3
		c-0.6,0-1.2,0.2-1.6,0.7c-0.5,0.6-0.8,1.5-0.8,2.5c0,1.1,0.3,2,0.8,2.8c0.5,0.8,1.2,1.2,2.1,1.2c0.6,0,1.2-0.2,1.7-0.6
		c0.4-0.3,0.7-0.8,1-1.6L166.6,71.8L166.6,71.8z"/>
	<line class="st10" x1="174.2" y1="88.1" x2="170.7" y2="88.1"/>
	<path class="st11" d="M137.6,88.4c0.9,0.2,1.6,0.5,2.1,0.9c0.6,0.6,0.9,1.3,0.9,2.2c0,0.7-0.2,1.3-0.6,1.9c-0.4,0.6-1,1-1.7,1.3
		c-0.7,0.3-1.8,0.4-3.3,0.4h-6.2v-0.4h0.5c0.5,0,0.9-0.2,1.2-0.5c0.1-0.2,0.2-0.7,0.2-1.5v-8.6c0-0.8-0.1-1.3-0.3-1.6
		c-0.3-0.3-0.6-0.4-1.1-0.4h-0.5v-0.4h5.7c1.1,0,1.9,0.1,2.6,0.2c1,0.2,1.7,0.6,2.2,1.2s0.8,1.3,0.8,2.1c0,0.7-0.2,1.3-0.6,1.8
		C139,87.7,138.4,88.1,137.6,88.4 M132.5,87.8c0.2,0,0.5,0.1,0.8,0.1c0.3,0,0.7,0,1,0c1,0,1.7-0.1,2.1-0.3c0.5-0.2,0.8-0.5,1.1-1
		c0.2-0.4,0.4-0.9,0.4-1.4c0-0.8-0.3-1.4-0.9-2c-0.6-0.5-1.6-0.8-2.8-0.8c-0.7,0-1.2,0.1-1.8,0.2V87.8 M132.5,94.2
		c0.8,0.2,1.5,0.3,2.2,0.3c1.2,0,2.1-0.3,2.7-0.8c0.6-0.5,0.9-1.2,0.9-2c0-0.5-0.1-1-0.4-1.5c-0.3-0.5-0.7-0.8-1.4-1.1
		c-0.6-0.3-1.4-0.4-2.3-0.4c-0.4,0-0.8,0-1,0c-0.3,0-0.5,0-0.7,0.1V94.2L132.5,94.2z"/>
	<path class="st11" d="M141.4,81.9h3.6l8.1,9.9v-7.6c0-0.8-0.1-1.3-0.3-1.5c-0.2-0.3-0.6-0.4-1.2-0.4h-0.4v-0.4h4.6v0.4h-0.5
		c-0.6,0-1,0.2-1.2,0.5c-0.2,0.2-0.2,0.7-0.2,1.4v11.1h-0.3l-8.7-10.6v8.1c0,0.8,0.1,1.3,0.3,1.5c0.2,0.3,0.6,0.4,1.1,0.4h0.5v0.4
		h-4.6v-0.4h0.5c0.6,0,1-0.2,1.2-0.5c0.1-0.2,0.2-0.7,0.2-1.4v-9.2c-0.4-0.4-0.7-0.7-0.9-0.9c-0.2-0.1-0.5-0.3-0.9-0.4
		c-0.2,0-0.5-0.1-0.8-0.1V81.9L141.4,81.9z"/>
	<path class="st11" d="M160.1,88.9v3.9c0,0.8,0.1,1.3,0.3,1.5c0.2,0.3,0.6,0.4,1.1,0.4h0.5v0.4h-5.7v-0.4h0.5c0.5,0,0.9-0.2,1.2-0.5
		c0.1-0.2,0.2-0.7,0.2-1.4v-8.6c0-0.8-0.1-1.3-0.3-1.6c-0.3-0.3-0.6-0.4-1.1-0.4h-0.5v-0.4h4.8c1.2,0,2.1,0.1,2.8,0.4
		s1.3,0.7,1.7,1.2c0.5,0.6,0.7,1.3,0.7,2.1c0,1.1-0.4,2-1.1,2.6c-0.7,0.7-1.7,1-3,1c-0.3,0-0.7,0-1-0.1S160.5,89,160.1,88.9
		 M160.1,88.4c0.3,0.1,0.6,0.1,0.9,0.2c0.3,0,0.5,0,0.7,0c0.7,0,1.3-0.3,1.8-0.8c0.5-0.5,0.7-1.2,0.7-2c0-0.6-0.1-1.1-0.4-1.6
		c-0.2-0.5-0.6-0.9-1-1.1c-0.4-0.2-0.9-0.4-1.5-0.4c-0.3,0-0.8,0.1-1.3,0.2V88.4L160.1,88.4z"/>
	<line class="st10" x1="174.2" y1="107.9" x2="170.7" y2="107.9"/>
	<path class="st11" d="M108.7,113.8c-0.4,0.5-0.9,0.8-1.3,1c-0.4,0.2-0.9,0.3-1.3,0.3c-1,0-1.8-0.4-2.6-1.2
		c-0.7-0.8-1.1-1.9-1.1-3.1s0.4-2.4,1.2-3.5c0.8-1.1,1.9-1.6,3.1-1.6c0.8,0,1.4,0.3,1.9,0.8v-1.7c0-1,0-1.6-0.1-1.9
		c0-0.2-0.1-0.4-0.2-0.5c-0.1-0.1-0.2-0.1-0.4-0.1c-0.2,0-0.4,0.1-0.7,0.1l-0.1-0.3l2.7-1.1h0.4v10.3c0,1,0,1.7,0.1,1.9
		c0,0.2,0.1,0.4,0.2,0.5c0.1,0.1,0.2,0.1,0.4,0.1c0.2,0,0.4-0.1,0.7-0.2l0.1,0.3l-2.6,1.1h-0.5V113.8 M108.7,113.1v-4.6
		c0-0.4-0.2-0.8-0.4-1.2c-0.2-0.4-0.4-0.6-0.8-0.8c-0.3-0.2-0.6-0.3-0.9-0.3c-0.6,0-1.1,0.3-1.5,0.8c-0.6,0.7-0.9,1.7-0.9,3
		c0,1.3,0.3,2.3,0.8,3c0.6,0.7,1.2,1,1.9,1C107.6,114,108.1,113.7,108.7,113.1L108.7,113.1z"/>
	<path class="st11" d="M114.5,100.9c0.3,0,0.5,0.1,0.7,0.3c0.2,0.2,0.3,0.4,0.3,0.7s-0.1,0.5-0.3,0.7c-0.2,0.2-0.4,0.3-0.7,0.3
		c-0.3,0-0.5-0.1-0.7-0.3c-0.2-0.2-0.3-0.4-0.3-0.7s0.1-0.5,0.3-0.7C114,101,114.2,100.9,114.5,100.9 M115.3,105.6v7.2
		c0,0.6,0,0.9,0.1,1.1c0.1,0.2,0.2,0.3,0.4,0.4c0.2,0.1,0.4,0.1,0.9,0.1v0.4h-4.3v-0.4c0.4,0,0.7,0,0.9-0.1c0.1-0.1,0.3-0.2,0.3-0.4
		c0.1-0.2,0.1-0.6,0.1-1.1v-3.4c0-1,0-1.6-0.1-1.9c0-0.2-0.1-0.3-0.2-0.4c-0.1-0.1-0.2-0.1-0.4-0.1c-0.2,0-0.4,0.1-0.7,0.2l-0.1-0.4
		l2.7-1.1H115.3L115.3,105.6z"/>
	<path class="st11" d="M123.1,113.5c-0.9,0.7-1.5,1.1-1.7,1.2c-0.4,0.1-0.7,0.2-1.1,0.2c-0.6,0-1.1-0.2-1.5-0.6
		c-0.4-0.4-0.6-1-0.6-1.7c0-0.4,0.1-0.8,0.3-1.1c0.3-0.4,0.7-0.8,1.4-1.2c0.7-0.4,1.8-0.9,3.3-1.4v-0.4c0-0.9-0.2-1.5-0.4-1.8
		c-0.3-0.3-0.7-0.5-1.2-0.5c-0.4,0-0.7,0.1-1,0.3c-0.3,0.2-0.4,0.5-0.4,0.8l0,0.6c0,0.3-0.1,0.5-0.2,0.7c-0.2,0.2-0.3,0.2-0.6,0.2
		c-0.2,0-0.4-0.1-0.6-0.2c-0.2-0.2-0.2-0.4-0.2-0.7c0-0.6,0.3-1.1,0.9-1.5c0.6-0.5,1.4-0.7,2.4-0.7c0.8,0,1.4,0.1,2,0.4
		c0.4,0.2,0.7,0.5,0.8,0.9c0.1,0.3,0.2,0.9,0.2,1.7v3c0,0.9,0,1.4,0,1.6c0,0.2,0.1,0.3,0.2,0.4c0.1,0.1,0.2,0.1,0.3,0.1
		c0.1,0,0.2,0,0.3-0.1c0.1-0.1,0.4-0.3,0.8-0.7v0.6c-0.7,1-1.4,1.4-2.1,1.4c-0.3,0-0.6-0.1-0.8-0.3
		C123.1,114.4,123.1,114.1,123.1,113.5 M123.1,112.9v-3.4c-1,0.4-1.6,0.7-1.9,0.8c-0.5,0.3-0.9,0.6-1.1,0.9c-0.2,0.3-0.3,0.7-0.3,1
		c0,0.5,0.1,0.9,0.4,1.2c0.3,0.3,0.6,0.5,1,0.5C121.6,113.9,122.2,113.5,123.1,112.9L123.1,112.9z"/>
	<path class="st11" d="M129.3,107.4c0.9-1.2,1.8-1.8,2.8-1.8c0.9,0,1.7,0.4,2.4,1.2c0.7,0.8,1,1.8,1,3.2c0,1.6-0.5,2.9-1.6,3.8
		c-0.9,0.8-1.9,1.2-3,1.2c-0.5,0-1.1-0.1-1.6-0.3c-0.5-0.2-1.1-0.5-1.6-0.8v-9.3c0-1,0-1.6-0.1-1.9c0-0.2-0.1-0.4-0.2-0.5
		c-0.1-0.1-0.2-0.1-0.4-0.1c-0.2,0-0.4,0.1-0.7,0.1l-0.1-0.3l2.7-1.1h0.4V107.4 M129.3,108v5.4c0.3,0.3,0.7,0.6,1,0.7
		s0.7,0.2,1.1,0.2c0.6,0,1.1-0.3,1.6-1c0.5-0.6,0.8-1.6,0.8-2.8c0-1.1-0.3-2-0.8-2.6c-0.5-0.6-1.1-0.9-1.7-0.9c-0.4,0-0.7,0.1-1,0.3
		C130,107.4,129.7,107.6,129.3,108L129.3,108z"/>
	<path class="st11" d="M138.2,109.2c0,1.3,0.3,2.4,1,3.1c0.6,0.8,1.4,1.1,2.3,1.1c0.6,0,1.1-0.2,1.5-0.5c0.4-0.3,0.8-0.9,1.1-1.7
		l0.3,0.2c-0.2,0.9-0.6,1.7-1.2,2.4c-0.7,0.7-1.5,1.1-2.5,1.1c-1.1,0-2-0.4-2.8-1.2c-0.8-0.8-1.1-2-1.1-3.4c0-1.5,0.4-2.7,1.2-3.6
		c0.8-0.8,1.8-1.3,3-1.3c1,0,1.8,0.3,2.5,1s1,1.5,1,2.6H138.2 M138.2,108.7h4.1c0-0.6-0.1-1-0.2-1.2c-0.2-0.4-0.4-0.6-0.7-0.8
		c-0.3-0.2-0.7-0.3-1-0.3c-0.5,0-1,0.2-1.4,0.6C138.5,107.3,138.3,107.9,138.2,108.7L138.2,108.7z"/>
	<path class="st11" d="M148.2,102.9v2.9h2.1v0.7h-2.1v5.8c0,0.6,0.1,1,0.2,1.2c0.2,0.2,0.4,0.3,0.7,0.3c0.2,0,0.4-0.1,0.6-0.2
		c0.2-0.1,0.3-0.3,0.5-0.6h0.4c-0.2,0.6-0.6,1.1-1,1.4c-0.4,0.3-0.8,0.5-1.3,0.5c-0.3,0-0.6-0.1-0.9-0.2c-0.3-0.2-0.5-0.4-0.6-0.7
		c-0.1-0.3-0.2-0.8-0.2-1.4v-6h-1.4v-0.3c0.4-0.1,0.7-0.4,1.1-0.7c0.4-0.3,0.7-0.7,1-1.2c0.1-0.2,0.3-0.7,0.6-1.4H148.2L148.2,102.9
		z"/>
	<path class="st11" d="M152.6,109.2c0,1.3,0.3,2.4,1,3.1c0.6,0.8,1.4,1.1,2.3,1.1c0.6,0,1.1-0.2,1.5-0.5c0.4-0.3,0.8-0.9,1.1-1.7
		l0.3,0.2c-0.2,0.9-0.6,1.7-1.2,2.4c-0.7,0.7-1.5,1.1-2.5,1.1c-1.1,0-2-0.4-2.8-1.2s-1.1-2-1.1-3.4c0-1.5,0.4-2.7,1.2-3.6
		c0.8-0.8,1.8-1.3,3-1.3c1,0,1.8,0.3,2.5,1c0.6,0.7,1,1.5,1,2.6H152.6 M152.6,108.7h4.1c0-0.6-0.1-1-0.2-1.2
		c-0.2-0.4-0.4-0.6-0.7-0.8c-0.3-0.2-0.7-0.3-1-0.3c-0.5,0-1,0.2-1.4,0.6C152.9,107.3,152.7,107.9,152.6,108.7L152.6,108.7z"/>
	<path class="st11" d="M165.8,105.6v3h-0.3c-0.2-1-0.6-1.6-0.9-2c-0.4-0.3-0.9-0.5-1.5-0.5c-0.5,0-0.8,0.1-1.1,0.4
		c-0.3,0.2-0.4,0.5-0.4,0.8c0,0.4,0.1,0.7,0.3,0.9c0.2,0.3,0.6,0.6,1.2,0.9l1.4,0.7c1.3,0.7,2,1.5,2,2.6c0,0.8-0.3,1.5-0.9,2
		c-0.6,0.5-1.3,0.7-2.1,0.7c-0.6,0-1.2-0.1-1.9-0.3c-0.2-0.1-0.4-0.1-0.5-0.1c-0.2,0-0.3,0.1-0.3,0.2h-0.3v-3.2h0.3
		c0.2,0.9,0.5,1.6,1,2.1c0.5,0.5,1.1,0.7,1.7,0.7c0.4,0,0.8-0.1,1.1-0.4c0.3-0.3,0.4-0.6,0.4-1c0-0.4-0.2-0.8-0.5-1.1
		c-0.3-0.3-1-0.7-1.9-1.2c-0.9-0.5-1.6-0.9-1.8-1.3c-0.3-0.4-0.4-0.8-0.4-1.4c0-0.7,0.2-1.3,0.8-1.8c0.5-0.5,1.2-0.7,2-0.7
		c0.3,0,0.8,0.1,1.3,0.2c0.3,0.1,0.5,0.1,0.7,0.1c0.1,0,0.2,0,0.2-0.1c0,0,0.1-0.1,0.2-0.3H165.8L165.8,105.6z"/>
	<line class="st10" x1="174.2" y1="127.7" x2="170.7" y2="127.7"/>
	<path class="st11" d="M106.4,125.8v5.4c0,1,0,1.7,0.1,1.9c0,0.2,0.1,0.4,0.2,0.5c0.1,0.1,0.2,0.1,0.4,0.1c0.2,0,0.4-0.1,0.7-0.2
		l0.1,0.3l-2.7,1.1h-0.4v-1.9c-0.8,0.8-1.4,1.4-1.8,1.6c-0.4,0.2-0.8,0.3-1.3,0.3c-0.5,0-1-0.1-1.3-0.4s-0.6-0.7-0.8-1.1
		c-0.1-0.4-0.2-1.1-0.2-1.9v-4c0-0.4-0.1-0.7-0.1-0.9c-0.1-0.2-0.2-0.3-0.4-0.4c-0.2-0.1-0.5-0.1-1-0.1v-0.4h3.1v6
		c0,0.8,0.1,1.4,0.4,1.7c0.3,0.3,0.6,0.4,1.1,0.4c0.3,0,0.6-0.1,0.9-0.3c0.4-0.2,0.8-0.5,1.3-1v-5.1c0-0.5-0.1-0.8-0.3-1
		c-0.2-0.2-0.6-0.3-1.2-0.3v-0.4H106.4L106.4,125.8z"/>
	<path class="st11" d="M111,125.5v2c0.7-1.3,1.5-2,2.3-2c0.4,0,0.6,0.1,0.9,0.3c0.2,0.2,0.4,0.5,0.4,0.8c0,0.3-0.1,0.5-0.3,0.6
		c-0.2,0.2-0.4,0.3-0.6,0.3s-0.5-0.1-0.8-0.3c-0.3-0.2-0.5-0.3-0.6-0.3s-0.3,0.1-0.4,0.2c-0.3,0.3-0.6,0.7-0.9,1.3v4.3
		c0,0.5,0.1,0.9,0.2,1.1c0.1,0.2,0.2,0.3,0.5,0.4c0.2,0.1,0.5,0.2,0.9,0.2v0.4H108v-0.4c0.4,0,0.8-0.1,1-0.2
		c0.2-0.1,0.3-0.3,0.3-0.5c0-0.1,0.1-0.4,0.1-1v-3.5c0-1,0-1.7-0.1-1.9c0-0.2-0.1-0.3-0.2-0.4c-0.1-0.1-0.3-0.1-0.4-0.1
		c-0.2,0-0.4,0.1-0.7,0.2l-0.1-0.4l2.7-1.1H111L111,125.5z"/>
	<path class="st11" d="M117.4,120.8c0.3,0,0.5,0.1,0.7,0.3c0.2,0.2,0.3,0.4,0.3,0.7s-0.1,0.5-0.3,0.7c-0.2,0.2-0.4,0.3-0.7,0.3
		c-0.3,0-0.5-0.1-0.7-0.3c-0.2-0.2-0.3-0.4-0.3-0.7s0.1-0.5,0.3-0.7C116.9,120.9,117.1,120.8,117.4,120.8 M118.2,125.5v7.2
		c0,0.6,0,0.9,0.1,1.1c0.1,0.2,0.2,0.3,0.4,0.4c0.2,0.1,0.4,0.1,0.9,0.1v0.4h-4.3v-0.4c0.4,0,0.7,0,0.9-0.1c0.1-0.1,0.3-0.2,0.3-0.4
		c0.1-0.2,0.1-0.6,0.1-1.1v-3.4c0-1,0-1.6-0.1-1.9c0-0.2-0.1-0.3-0.2-0.4c-0.1-0.1-0.2-0.1-0.4-0.1c-0.2,0-0.4,0.1-0.7,0.2l-0.1-0.4
		l2.7-1.1H118.2L118.2,125.5z"/>
	<path class="st11" d="M128.2,131.3c-0.2,1.2-0.7,2.1-1.4,2.7c-0.7,0.6-1.5,0.9-2.3,0.9c-1,0-1.9-0.4-2.7-1.3
		c-0.8-0.8-1.1-2-1.1-3.5c0-1.4,0.4-2.5,1.3-3.4c0.8-0.9,1.8-1.3,3-1.3c0.9,0,1.6,0.2,2.1,0.7c0.6,0.5,0.9,0.9,0.9,1.4
		c0,0.3-0.1,0.5-0.2,0.6c-0.2,0.2-0.4,0.2-0.7,0.2c-0.4,0-0.7-0.1-0.9-0.4c-0.1-0.1-0.2-0.4-0.2-0.8c0-0.4-0.2-0.7-0.4-0.9
		c-0.2-0.2-0.6-0.3-1-0.3c-0.6,0-1.2,0.2-1.6,0.7c-0.5,0.6-0.8,1.5-0.8,2.5c0,1.1,0.3,2,0.8,2.8c0.5,0.8,1.2,1.2,2.1,1.2
		c0.6,0,1.2-0.2,1.7-0.6c0.4-0.3,0.7-0.8,1-1.6L128.2,131.3L128.2,131.3z"/>
	<path class="st11" d="M139.6,133.4c-0.9,0.7-1.5,1.1-1.7,1.2c-0.4,0.1-0.7,0.2-1.1,0.2c-0.6,0-1.1-0.2-1.5-0.6
		c-0.4-0.4-0.6-1-0.6-1.7c0-0.4,0.1-0.8,0.3-1.1c0.3-0.4,0.7-0.8,1.4-1.2c0.7-0.4,1.8-0.9,3.3-1.4v-0.4c0-0.9-0.2-1.5-0.4-1.8
		c-0.3-0.3-0.7-0.5-1.2-0.5c-0.4,0-0.7,0.1-1,0.3c-0.3,0.2-0.4,0.5-0.4,0.8l0,0.6c0,0.3-0.1,0.5-0.2,0.7c-0.2,0.2-0.3,0.2-0.6,0.2
		c-0.2,0-0.4-0.1-0.6-0.2c-0.2-0.2-0.2-0.4-0.2-0.7c0-0.6,0.3-1.1,0.9-1.5c0.6-0.5,1.4-0.7,2.4-0.7c0.8,0,1.4,0.1,2,0.4
		c0.4,0.2,0.7,0.5,0.8,0.9c0.1,0.3,0.2,0.9,0.2,1.7v3c0,0.9,0,1.4,0,1.6c0,0.2,0.1,0.3,0.2,0.4c0.1,0.1,0.2,0.1,0.3,0.1
		c0.1,0,0.2,0,0.3-0.1c0.1-0.1,0.4-0.3,0.8-0.7v0.6c-0.7,1-1.4,1.4-2.1,1.4c-0.3,0-0.6-0.1-0.8-0.3
		C139.7,134.4,139.6,134,139.6,133.4 M139.6,132.8v-3.4c-1,0.4-1.6,0.7-1.9,0.8c-0.5,0.3-0.9,0.6-1.1,0.9c-0.2,0.3-0.3,0.7-0.3,1
		c0,0.5,0.1,0.9,0.4,1.2c0.3,0.3,0.6,0.5,1,0.5C138.1,133.8,138.8,133.5,139.6,132.8L139.6,132.8z"/>
	<path class="st11" d="M151,131.3c-0.2,1.2-0.7,2.1-1.4,2.7c-0.7,0.6-1.5,0.9-2.3,0.9c-1,0-1.9-0.4-2.7-1.3c-0.8-0.8-1.1-2-1.1-3.5
		c0-1.4,0.4-2.5,1.3-3.4c0.8-0.9,1.8-1.3,3-1.3c0.9,0,1.6,0.2,2.1,0.7c0.6,0.5,0.9,0.9,0.9,1.4c0,0.3-0.1,0.5-0.2,0.6
		c-0.2,0.2-0.4,0.2-0.7,0.2c-0.4,0-0.7-0.1-0.9-0.4c-0.1-0.1-0.2-0.4-0.2-0.8c0-0.4-0.2-0.7-0.4-0.9c-0.2-0.2-0.6-0.3-1-0.3
		c-0.6,0-1.2,0.2-1.6,0.7c-0.5,0.6-0.8,1.5-0.8,2.5c0,1.1,0.3,2,0.8,2.8c0.5,0.8,1.2,1.2,2.1,1.2c0.6,0,1.2-0.2,1.7-0.6
		c0.4-0.3,0.7-0.8,1-1.6L151,131.3L151,131.3z"/>
	<path class="st11" d="M154.6,120.8c0.3,0,0.5,0.1,0.7,0.3c0.2,0.2,0.3,0.4,0.3,0.7s-0.1,0.5-0.3,0.7c-0.2,0.2-0.4,0.3-0.7,0.3
		c-0.3,0-0.5-0.1-0.7-0.3c-0.2-0.2-0.3-0.4-0.3-0.7s0.1-0.5,0.3-0.7C154.1,120.9,154.3,120.8,154.6,120.8 M155.4,125.5v7.2
		c0,0.6,0,0.9,0.1,1.1c0.1,0.2,0.2,0.3,0.4,0.4c0.2,0.1,0.4,0.1,0.9,0.1v0.4h-4.3v-0.4c0.4,0,0.7,0,0.9-0.1c0.1-0.1,0.3-0.2,0.3-0.4
		c0.1-0.2,0.1-0.6,0.1-1.1v-3.4c0-1,0-1.6-0.1-1.9c0-0.2-0.1-0.3-0.2-0.4c-0.1-0.1-0.2-0.1-0.4-0.1c-0.2,0-0.4,0.1-0.7,0.2l-0.1-0.4
		l2.7-1.1H155.4L155.4,125.5z"/>
	<path class="st11" d="M164.1,133.7c-0.4,0.5-0.9,0.8-1.3,1c-0.4,0.2-0.9,0.3-1.3,0.3c-1,0-1.8-0.4-2.6-1.2
		c-0.7-0.8-1.1-1.9-1.1-3.1s0.4-2.4,1.2-3.5c0.8-1.1,1.9-1.6,3.1-1.6c0.8,0,1.4,0.3,1.9,0.8v-1.7c0-1,0-1.6-0.1-1.9
		c0-0.2-0.1-0.4-0.2-0.5c-0.1-0.1-0.2-0.1-0.4-0.1c-0.2,0-0.4,0.1-0.7,0.1l-0.1-0.3l2.7-1.1h0.4v10.3c0,1,0,1.7,0.1,1.9
		c0,0.2,0.1,0.4,0.2,0.5c0.1,0.1,0.2,0.1,0.4,0.1c0.2,0,0.4-0.1,0.7-0.2l0.1,0.3l-2.6,1.1h-0.5V133.7 M164.1,133v-4.6
		c0-0.4-0.2-0.8-0.4-1.2c-0.2-0.4-0.4-0.6-0.8-0.8c-0.3-0.2-0.6-0.3-0.9-0.3c-0.6,0-1.1,0.3-1.5,0.8c-0.6,0.7-0.9,1.7-0.9,3
		c0,1.3,0.3,2.3,0.8,3c0.6,0.7,1.2,1,1.9,1C163,133.9,163.6,133.6,164.1,133L164.1,133z"/>
	<line class="st10" x1="174.2" y1="147.6" x2="170.7" y2="147.6"/>
	<path class="st11" d="M75,140.5v6.5c0.7-0.8,1.3-1.3,1.7-1.5c0.4-0.2,0.8-0.3,1.3-0.3c0.5,0,0.9,0.1,1.3,0.4s0.6,0.7,0.8,1.3
		c0.1,0.4,0.2,1.2,0.2,2.3v3.2c0,0.6,0,1,0.1,1.2c0.1,0.2,0.2,0.3,0.3,0.4c0.2,0.1,0.4,0.1,0.9,0.1v0.4h-4.4V154h0.2
		c0.4,0,0.7-0.1,0.9-0.2s0.3-0.3,0.4-0.6c0-0.1,0-0.4,0-0.9v-3.2c0-1-0.1-1.6-0.2-1.9c-0.1-0.3-0.3-0.5-0.5-0.7
		c-0.2-0.2-0.5-0.2-0.8-0.2c-0.3,0-0.7,0.1-1,0.3c-0.3,0.2-0.7,0.5-1.2,1v4.7c0,0.6,0,1,0.1,1.1c0.1,0.2,0.2,0.3,0.4,0.4
		c0.2,0.1,0.5,0.1,1,0.1v0.4H72V154c0.4,0,0.7-0.1,0.9-0.2c0.1-0.1,0.2-0.2,0.3-0.4c0.1-0.2,0.1-0.6,0.1-1.1v-8.1c0-1,0-1.6-0.1-1.9
		c-0.1-0.2-0.1-0.4-0.2-0.5c-0.1-0.1-0.2-0.1-0.4-0.1c-0.1,0-0.4,0.1-0.7,0.1l-0.1-0.3l2.7-1.1H75L75,140.5z"/>
	<path class="st11" d="M83.7,148.8c0,1.3,0.3,2.4,1,3.1c0.6,0.8,1.4,1.1,2.3,1.1c0.6,0,1.1-0.2,1.5-0.5c0.4-0.3,0.8-0.9,1.1-1.7
		l0.3,0.2c-0.2,0.9-0.6,1.7-1.2,2.4c-0.7,0.7-1.5,1.1-2.5,1.1c-1.1,0-2-0.4-2.8-1.2c-0.8-0.8-1.1-2-1.1-3.4c0-1.5,0.4-2.7,1.2-3.6
		c0.8-0.8,1.8-1.3,3-1.3c1,0,1.8,0.3,2.5,1c0.6,0.7,1,1.5,1,2.6H83.7 M83.7,148.3h4.1c0-0.6-0.1-1-0.2-1.2c-0.2-0.4-0.4-0.6-0.7-0.8
		c-0.3-0.2-0.7-0.3-1-0.3c-0.5,0-1,0.2-1.4,0.6C84,146.9,83.8,147.5,83.7,148.3L83.7,148.3z"/>
	<path class="st11" d="M93.8,147.1c0.6-0.6,1-1,1.2-1.1c0.3-0.2,0.6-0.4,0.9-0.6c0.3-0.1,0.7-0.2,1-0.2c0.6,0,1,0.2,1.4,0.5
		c0.4,0.3,0.7,0.8,0.8,1.4c0.7-0.8,1.2-1.3,1.7-1.5c0.5-0.2,0.9-0.4,1.4-0.4c0.5,0,0.9,0.1,1.3,0.4c0.4,0.2,0.7,0.6,0.9,1.2
		c0.1,0.4,0.2,1,0.2,1.8v3.8c0,0.6,0,1,0.1,1.2c0.1,0.1,0.2,0.3,0.4,0.4s0.5,0.1,0.9,0.1v0.4h-4.4V154h0.2c0.4,0,0.7-0.1,0.9-0.2
		c0.1-0.1,0.2-0.3,0.3-0.5c0-0.1,0-0.4,0-0.9v-3.8c0-0.7-0.1-1.2-0.3-1.6c-0.3-0.4-0.7-0.6-1.2-0.6c-0.4,0-0.7,0.1-1,0.3
		c-0.4,0.2-0.8,0.5-1.3,1l0,0.1l0,0.4v4.3c0,0.6,0,1,0.1,1.1c0.1,0.2,0.2,0.3,0.4,0.4c0.2,0.1,0.5,0.1,1,0.1v0.4h-4.5V154
		c0.5,0,0.8,0,1-0.2c0.2-0.1,0.3-0.3,0.4-0.5c0-0.1,0-0.4,0-1v-3.8c0-0.7-0.1-1.3-0.3-1.6c-0.3-0.4-0.7-0.6-1.2-0.6
		c-0.4,0-0.7,0.1-1,0.3c-0.6,0.3-1,0.6-1.3,1v4.8c0,0.6,0,1,0.1,1.1c0.1,0.2,0.2,0.3,0.4,0.4c0.2,0.1,0.5,0.1,1,0.1v0.4h-4.4V154
		c0.4,0,0.7,0,0.8-0.1c0.2-0.1,0.3-0.2,0.4-0.4c0.1-0.2,0.1-0.6,0.1-1.1V149c0-1,0-1.6-0.1-1.9c0-0.2-0.1-0.4-0.2-0.4
		c-0.1-0.1-0.2-0.1-0.4-0.1c-0.2,0-0.4,0.1-0.6,0.2l-0.2-0.4l2.7-1.1h0.4V147.1L93.8,147.1z"/>
	<path class="st11" d="M111.1,145.2c1.4,0,2.4,0.5,3.3,1.5c0.7,0.9,1,1.9,1,3c0,0.8-0.2,1.6-0.6,2.4c-0.4,0.8-0.9,1.4-1.6,1.8
		c-0.7,0.4-1.4,0.6-2.2,0.6c-1.4,0-2.4-0.5-3.2-1.6c-0.7-0.9-1-1.9-1-3c0-0.8,0.2-1.6,0.6-2.4c0.4-0.8,0.9-1.4,1.6-1.8
		C109.6,145.4,110.3,145.2,111.1,145.2 M110.8,145.8c-0.4,0-0.7,0.1-1,0.3c-0.4,0.2-0.6,0.6-0.8,1.1c-0.2,0.5-0.3,1.2-0.3,2
		c0,1.3,0.2,2.4,0.8,3.4c0.5,1,1.2,1.4,2.1,1.4c0.6,0,1.1-0.3,1.6-0.8c0.4-0.5,0.6-1.4,0.6-2.7c0-1.6-0.4-2.8-1-3.8
		C112.1,146.1,111.5,145.8,110.8,145.8L110.8,145.8z"/>
	<path class="st11" d="M119.2,151.1c-0.6-0.3-1-0.6-1.3-1.1c-0.3-0.5-0.4-1-0.4-1.6c0-0.9,0.3-1.6,1-2.3c0.7-0.6,1.5-1,2.6-1
		c0.8,0,1.6,0.2,2.2,0.6h1.9c0.3,0,0.4,0,0.5,0c0,0,0.1,0,0.1,0.1c0,0.1,0.1,0.2,0.1,0.3c0,0.2,0,0.3-0.1,0.3c0,0-0.1,0.1-0.1,0.1
		c0,0-0.2,0-0.5,0H124c0.4,0.5,0.5,1.1,0.5,1.8c0,0.8-0.3,1.5-1,2.1c-0.6,0.6-1.5,0.9-2.6,0.9c-0.5,0-0.9-0.1-1.4-0.2
		c-0.3,0.3-0.5,0.5-0.6,0.7c-0.1,0.2-0.1,0.3-0.1,0.5c0,0.1,0,0.2,0.2,0.3c0.1,0.1,0.3,0.2,0.6,0.2c0.2,0,0.6,0.1,1.4,0.1
		c1.3,0,2.2,0.1,2.6,0.1c0.6,0.1,1.1,0.3,1.5,0.7c0.4,0.4,0.5,0.8,0.5,1.3c0,0.7-0.4,1.4-1,2.1c-1,0.9-2.3,1.4-4,1.4
		c-1.3,0-2.3-0.3-3.2-0.9c-0.5-0.3-0.7-0.7-0.7-1c0-0.2,0-0.3,0.1-0.5c0.1-0.2,0.3-0.6,0.7-1c0-0.1,0.4-0.4,1-1
		c-0.3-0.2-0.6-0.4-0.7-0.5c-0.1-0.2-0.2-0.3-0.2-0.5c0-0.2,0.1-0.5,0.3-0.8C118.1,152.1,118.5,151.7,119.2,151.1 M120.9,145.7
		c-0.5,0-0.9,0.2-1.2,0.6c-0.3,0.4-0.5,1-0.5,1.8c0,1,0.2,1.8,0.7,2.4c0.3,0.4,0.8,0.6,1.3,0.6c0.5,0,0.9-0.2,1.2-0.6
		c0.3-0.4,0.5-0.9,0.5-1.7c0-1-0.2-1.8-0.7-2.4C121.8,145.9,121.4,145.7,120.9,145.7 M119.1,154.4c-0.3,0.3-0.5,0.6-0.7,0.9
		c-0.2,0.3-0.2,0.6-0.2,0.8c0,0.3,0.2,0.6,0.6,0.8c0.6,0.4,1.6,0.6,2.8,0.6c1.2,0,2-0.2,2.6-0.6c0.6-0.4,0.8-0.9,0.8-1.3
		c0-0.3-0.2-0.6-0.5-0.7c-0.4-0.2-1-0.2-2-0.3C121,154.6,119.9,154.5,119.1,154.4L119.1,154.4z"/>
	<path class="st11" d="M129.7,140.5v11.9c0,0.6,0,0.9,0.1,1.1c0.1,0.2,0.2,0.3,0.4,0.4c0.2,0.1,0.5,0.1,0.9,0.1v0.4h-4.4V154
		c0.4,0,0.7,0,0.8-0.1c0.1-0.1,0.3-0.2,0.3-0.4c0.1-0.2,0.1-0.6,0.1-1.1v-8.1c0-1,0-1.6-0.1-1.9c0-0.2-0.1-0.4-0.2-0.5
		c-0.1-0.1-0.2-0.1-0.4-0.1c-0.2,0-0.4,0.1-0.6,0.1l-0.2-0.3l2.7-1.1H129.7L129.7,140.5z"/>
	<path class="st11" d="M136.8,145.2c1.4,0,2.4,0.5,3.3,1.5c0.7,0.9,1,1.9,1,3c0,0.8-0.2,1.6-0.6,2.4s-0.9,1.4-1.6,1.8
		c-0.7,0.4-1.4,0.6-2.2,0.6c-1.4,0-2.4-0.5-3.2-1.6c-0.7-0.9-1-1.9-1-3c0-0.8,0.2-1.6,0.6-2.4c0.4-0.8,0.9-1.4,1.6-1.8
		C135.3,145.4,136,145.2,136.8,145.2 M136.5,145.8c-0.4,0-0.7,0.1-1,0.3c-0.4,0.2-0.6,0.6-0.8,1.1c-0.2,0.5-0.3,1.2-0.3,2
		c0,1.3,0.2,2.4,0.8,3.4c0.5,1,1.2,1.4,2.1,1.4c0.6,0,1.1-0.3,1.6-0.8c0.4-0.5,0.6-1.4,0.6-2.7c0-1.6-0.4-2.8-1-3.8
		C137.8,146.1,137.2,145.8,136.5,145.8L136.5,145.8z"/>
	<path class="st11" d="M144.7,147c0.9-1.2,1.8-1.8,2.8-1.8c0.9,0,1.7,0.4,2.4,1.2c0.7,0.8,1,1.8,1,3.2c0,1.6-0.5,2.9-1.6,3.8
		c-0.9,0.8-1.9,1.2-3,1.2c-0.5,0-1.1-0.1-1.6-0.3c-0.5-0.2-1.1-0.5-1.6-0.8v-9.3c0-1,0-1.6-0.1-1.9c0-0.2-0.1-0.4-0.2-0.5
		c-0.1-0.1-0.2-0.1-0.4-0.1c-0.2,0-0.4,0.1-0.7,0.1l-0.1-0.3l2.7-1.1h0.4V147 M144.7,147.6v5.4c0.3,0.3,0.7,0.6,1,0.7
		s0.7,0.2,1.1,0.2c0.6,0,1.1-0.3,1.6-1c0.5-0.6,0.8-1.6,0.8-2.8c0-1.1-0.3-2-0.8-2.6c-0.5-0.6-1.1-0.9-1.7-0.9c-0.4,0-0.7,0.1-1,0.3
		C145.4,147,145.1,147.2,144.7,147.6L144.7,147.6z"/>
	<path class="st11" d="M154.6,140.5c0.3,0,0.5,0.1,0.7,0.3c0.2,0.2,0.3,0.4,0.3,0.7c0,0.3-0.1,0.5-0.3,0.7c-0.2,0.2-0.4,0.3-0.7,0.3
		c-0.3,0-0.5-0.1-0.7-0.3c-0.2-0.2-0.3-0.4-0.3-0.7c0-0.3,0.1-0.5,0.3-0.7C154.1,140.6,154.3,140.5,154.6,140.5 M155.4,145.2v7.2
		c0,0.6,0,0.9,0.1,1.1c0.1,0.2,0.2,0.3,0.4,0.4c0.2,0.1,0.4,0.1,0.9,0.1v0.4h-4.3V154c0.4,0,0.7,0,0.9-0.1c0.1-0.1,0.3-0.2,0.3-0.4
		c0.1-0.2,0.1-0.6,0.1-1.1v-3.4c0-1,0-1.6-0.1-1.9c0-0.2-0.1-0.3-0.2-0.4c-0.1-0.1-0.2-0.1-0.4-0.1c-0.2,0-0.4,0.1-0.7,0.2l-0.1-0.4
		l2.7-1.1H155.4L155.4,145.2z"/>
	<path class="st11" d="M160.4,147.1c1-1.2,2-1.9,3-1.9c0.5,0,0.9,0.1,1.2,0.4c0.4,0.2,0.6,0.6,0.9,1.2c0.1,0.4,0.2,1,0.2,1.8v3.8
		c0,0.6,0,1,0.1,1.2c0.1,0.2,0.2,0.3,0.3,0.4c0.2,0.1,0.5,0.1,0.9,0.1v0.4h-4.4V154h0.2c0.4,0,0.7-0.1,0.9-0.2s0.3-0.3,0.4-0.6
		c0-0.1,0-0.4,0-0.9v-3.7c0-0.8-0.1-1.4-0.3-1.8c-0.2-0.4-0.6-0.6-1.1-0.6c-0.8,0-1.5,0.4-2.3,1.3v4.7c0,0.6,0,1,0.1,1.1
		c0.1,0.2,0.2,0.3,0.4,0.4c0.2,0.1,0.5,0.1,1,0.1v0.4h-4.4V154h0.2c0.4,0,0.8-0.1,0.9-0.3c0.2-0.2,0.2-0.7,0.2-1.3v-3.3
		c0-1.1,0-1.7-0.1-2c0-0.2-0.1-0.4-0.2-0.5c-0.1-0.1-0.2-0.1-0.4-0.1c-0.2,0-0.4,0.1-0.7,0.2l-0.1-0.4l2.7-1.1h0.4V147.1
		L160.4,147.1z"/>
	<line class="st10" x1="174.2" y1="167.4" x2="170.7" y2="167.4"/>
	<path class="st11" d="M78.3,162.4v2.9h2.1v0.7h-2.1v5.8c0,0.6,0.1,1,0.2,1.2c0.2,0.2,0.4,0.3,0.7,0.3c0.2,0,0.4-0.1,0.6-0.2
		c0.2-0.1,0.3-0.3,0.5-0.6h0.4c-0.2,0.6-0.6,1.1-1,1.4c-0.4,0.3-0.8,0.5-1.3,0.5c-0.3,0-0.6-0.1-0.9-0.2c-0.3-0.2-0.5-0.4-0.6-0.7
		c-0.1-0.3-0.2-0.8-0.2-1.4v-6h-1.4v-0.3c0.4-0.1,0.7-0.4,1.1-0.7c0.4-0.3,0.7-0.7,1-1.2c0.1-0.2,0.3-0.7,0.6-1.4H78.3L78.3,162.4z"
		/>
	<path class="st11" d="M83.9,165.1v2c0.7-1.3,1.5-2,2.3-2c0.4,0,0.6,0.1,0.9,0.3c0.2,0.2,0.4,0.5,0.4,0.8c0,0.3-0.1,0.5-0.3,0.6
		c-0.2,0.2-0.4,0.3-0.6,0.3s-0.5-0.1-0.8-0.3c-0.3-0.2-0.5-0.3-0.6-0.3s-0.3,0.1-0.4,0.2c-0.3,0.3-0.6,0.7-0.9,1.3v4.3
		c0,0.5,0.1,0.9,0.2,1.1c0.1,0.2,0.2,0.3,0.5,0.4c0.2,0.1,0.5,0.2,0.9,0.2v0.4h-4.6V174c0.4,0,0.8-0.1,1-0.2
		c0.2-0.1,0.3-0.3,0.3-0.5c0-0.1,0.1-0.4,0.1-1v-3.5c0-1,0-1.7-0.1-1.9c0-0.2-0.1-0.3-0.2-0.4c-0.1-0.1-0.3-0.1-0.4-0.1
		c-0.2,0-0.4,0.1-0.7,0.2l-0.1-0.4l2.7-1.1H83.9L83.9,165.1z"/>
	<path class="st11" d="M90.3,160.4c0.3,0,0.5,0.1,0.7,0.3c0.2,0.2,0.3,0.4,0.3,0.7s-0.1,0.5-0.3,0.7c-0.2,0.2-0.4,0.3-0.7,0.3
		c-0.3,0-0.5-0.1-0.7-0.3c-0.2-0.2-0.3-0.4-0.3-0.7s0.1-0.5,0.3-0.7C89.7,160.5,90,160.4,90.3,160.4 M91.1,165.1v7.2
		c0,0.6,0,0.9,0.1,1.1c0.1,0.2,0.2,0.3,0.4,0.4c0.2,0.1,0.4,0.1,0.9,0.1v0.4h-4.3V174c0.4,0,0.7,0,0.9-0.1c0.1-0.1,0.3-0.2,0.3-0.4
		c0.1-0.2,0.1-0.6,0.1-1.1v-3.4c0-1,0-1.6-0.1-1.9c0-0.2-0.1-0.3-0.2-0.4c-0.1-0.1-0.2-0.1-0.4-0.1c-0.2,0-0.4,0.1-0.7,0.2l-0.1-0.4
		l2.7-1.1H91.1L91.1,165.1z"/>
	<path class="st11" d="M95.9,171.1c-0.6-0.3-1-0.6-1.3-1.1c-0.3-0.5-0.4-1-0.4-1.6c0-0.9,0.3-1.6,1-2.3c0.7-0.6,1.5-1,2.6-1
		c0.8,0,1.6,0.2,2.2,0.6h1.9c0.3,0,0.4,0,0.5,0c0,0,0.1,0,0.1,0.1c0,0.1,0.1,0.2,0.1,0.3c0,0.2,0,0.3-0.1,0.3c0,0-0.1,0.1-0.1,0.1
		c0,0-0.2,0-0.5,0h-1.2c0.4,0.5,0.5,1.1,0.5,1.8c0,0.8-0.3,1.5-1,2.1c-0.6,0.6-1.5,0.9-2.6,0.9c-0.5,0-0.9-0.1-1.4-0.2
		c-0.3,0.3-0.5,0.5-0.6,0.7c-0.1,0.2-0.1,0.3-0.1,0.5s0,0.2,0.2,0.3c0.1,0.1,0.3,0.2,0.6,0.2c0.2,0,0.6,0.1,1.4,0.1
		c1.3,0,2.2,0.1,2.6,0.1c0.6,0.1,1.1,0.3,1.5,0.7c0.4,0.4,0.5,0.8,0.5,1.3c0,0.7-0.4,1.4-1,2.1c-1,0.9-2.3,1.4-4,1.4
		c-1.3,0-2.3-0.3-3.2-0.9c-0.5-0.3-0.7-0.7-0.7-1c0-0.2,0-0.3,0.1-0.5c0.1-0.2,0.3-0.6,0.7-1c0-0.1,0.4-0.4,1-1
		c-0.3-0.2-0.6-0.4-0.7-0.5c-0.1-0.2-0.2-0.3-0.2-0.5c0-0.2,0.1-0.5,0.3-0.8C94.8,172.1,95.2,171.6,95.9,171.1 M97.6,165.6
		c-0.5,0-0.9,0.2-1.2,0.6c-0.3,0.4-0.5,1-0.5,1.8c0,1,0.2,1.8,0.7,2.4c0.3,0.4,0.8,0.6,1.3,0.6c0.5,0,0.9-0.2,1.2-0.6
		c0.3-0.4,0.5-0.9,0.5-1.7c0-1-0.2-1.8-0.7-2.4C98.5,165.8,98.1,165.6,97.6,165.6 M95.8,174.3c-0.3,0.3-0.5,0.6-0.7,0.9
		s-0.2,0.6-0.2,0.8c0,0.3,0.2,0.6,0.6,0.8c0.6,0.4,1.6,0.6,2.8,0.6c1.2,0,2-0.2,2.6-0.6c0.6-0.4,0.8-0.9,0.8-1.3
		c0-0.3-0.2-0.6-0.5-0.7c-0.4-0.2-1-0.2-2-0.3C97.7,174.5,96.6,174.4,95.8,174.3L95.8,174.3z"/>
	<path class="st11" d="M106.4,160.4v11.9c0,0.6,0,0.9,0.1,1.1c0.1,0.2,0.2,0.3,0.4,0.4c0.2,0.1,0.5,0.1,0.9,0.1v0.4h-4.4V174
		c0.4,0,0.7,0,0.8-0.1c0.1-0.1,0.3-0.2,0.3-0.4c0.1-0.2,0.1-0.6,0.1-1.1v-8.1c0-1,0-1.6-0.1-1.9c0-0.2-0.1-0.4-0.2-0.5
		c-0.1-0.1-0.2-0.1-0.4-0.1c-0.2,0-0.4,0.1-0.6,0.1l-0.2-0.3l2.7-1.1H106.4L106.4,160.4z"/>
	<path class="st11" d="M108.6,165.4h4.2v0.4h-0.2c-0.3,0-0.5,0.1-0.7,0.2c-0.2,0.1-0.2,0.3-0.2,0.5c0,0.3,0.1,0.6,0.3,1.1l2.2,4.5
		l2-4.9c0.1-0.3,0.2-0.5,0.2-0.8c0-0.1,0-0.2-0.1-0.3c-0.1-0.1-0.1-0.1-0.2-0.2c-0.1,0-0.3-0.1-0.6-0.1v-0.4h2.9v0.4
		c-0.2,0-0.4,0.1-0.6,0.2c-0.1,0.1-0.3,0.2-0.4,0.4c-0.1,0.1-0.2,0.3-0.3,0.7l-3.6,8.9c-0.4,0.9-0.8,1.5-1.4,2
		c-0.6,0.4-1.1,0.7-1.6,0.7c-0.4,0-0.7-0.1-1-0.3s-0.4-0.5-0.4-0.8s0.1-0.5,0.3-0.7c0.2-0.2,0.4-0.2,0.7-0.2c0.2,0,0.5,0.1,0.9,0.2
		c0.3,0.1,0.4,0.2,0.5,0.2c0.2,0,0.4-0.1,0.6-0.3s0.5-0.6,0.7-1.2l0.6-1.5l-3.2-6.7c-0.1-0.2-0.3-0.4-0.5-0.8
		c-0.2-0.2-0.3-0.4-0.4-0.5c-0.2-0.1-0.4-0.2-0.7-0.3V165.4L108.6,165.4z"/>
	<path class="st11" d="M126.5,170.9c-0.2,1.2-0.7,2.1-1.4,2.7c-0.7,0.6-1.5,0.9-2.3,0.9c-1,0-1.9-0.4-2.7-1.3
		c-0.8-0.8-1.1-2-1.1-3.5c0-1.4,0.4-2.5,1.3-3.4c0.8-0.9,1.8-1.3,3-1.3c0.9,0,1.6,0.2,2.1,0.7c0.6,0.5,0.9,0.9,0.9,1.4
		c0,0.3-0.1,0.5-0.2,0.6c-0.2,0.2-0.4,0.2-0.7,0.2c-0.4,0-0.7-0.1-0.9-0.4c-0.1-0.1-0.2-0.4-0.2-0.8c0-0.4-0.2-0.7-0.4-0.9
		c-0.2-0.2-0.6-0.3-1-0.3c-0.6,0-1.2,0.2-1.6,0.7c-0.5,0.6-0.8,1.5-0.8,2.5c0,1.1,0.3,2,0.8,2.8c0.5,0.8,1.2,1.2,2.1,1.2
		c0.6,0,1.2-0.2,1.7-0.6c0.4-0.3,0.7-0.8,1-1.6L126.5,170.9L126.5,170.9z"/>
	<path class="st11" d="M129.3,168.7c0,1.3,0.3,2.4,1,3.1c0.6,0.8,1.4,1.1,2.3,1.1c0.6,0,1.1-0.2,1.5-0.5s0.8-0.9,1.1-1.7l0.3,0.2
		c-0.2,0.9-0.6,1.7-1.2,2.4c-0.7,0.7-1.5,1.1-2.5,1.1c-1.1,0-2-0.4-2.8-1.2c-0.8-0.8-1.1-2-1.1-3.4c0-1.5,0.4-2.7,1.2-3.6
		c0.8-0.8,1.8-1.3,3-1.3c1,0,1.8,0.3,2.5,1c0.6,0.7,1,1.5,1,2.6H129.3 M129.3,168.2h4.1c0-0.6-0.1-1-0.2-1.2
		c-0.2-0.4-0.4-0.6-0.7-0.8c-0.3-0.2-0.7-0.3-1-0.3c-0.5,0-1,0.2-1.4,0.6C129.6,166.9,129.4,167.4,129.3,168.2L129.3,168.2z"/>
	<path class="st11" d="M139.3,165.1v2c0.7-1.3,1.5-2,2.3-2c0.4,0,0.6,0.1,0.9,0.3c0.2,0.2,0.4,0.5,0.4,0.8c0,0.3-0.1,0.5-0.3,0.6
		c-0.2,0.2-0.4,0.3-0.6,0.3s-0.5-0.1-0.8-0.3c-0.3-0.2-0.5-0.3-0.6-0.3s-0.3,0.1-0.4,0.2c-0.3,0.3-0.6,0.7-0.9,1.3v4.3
		c0,0.5,0.1,0.9,0.2,1.1c0.1,0.2,0.2,0.3,0.5,0.4c0.2,0.1,0.5,0.2,0.9,0.2v0.4h-4.6V174c0.4,0,0.8-0.1,1-0.2
		c0.2-0.1,0.3-0.3,0.3-0.5c0-0.1,0.1-0.4,0.1-1v-3.5c0-1,0-1.7-0.1-1.9c0-0.2-0.1-0.3-0.2-0.4c-0.1-0.1-0.3-0.1-0.4-0.1
		c-0.2,0-0.4,0.1-0.7,0.2l-0.1-0.4l2.7-1.1H139.3L139.3,165.1z"/>
	<path class="st11" d="M145.7,160.4c0.3,0,0.5,0.1,0.7,0.3c0.2,0.2,0.3,0.4,0.3,0.7s-0.1,0.5-0.3,0.7c-0.2,0.2-0.4,0.3-0.7,0.3
		c-0.3,0-0.5-0.1-0.7-0.3c-0.2-0.2-0.3-0.4-0.3-0.7s0.1-0.5,0.3-0.7C145.2,160.5,145.4,160.4,145.7,160.4 M146.5,165.1v7.2
		c0,0.6,0,0.9,0.1,1.1c0.1,0.2,0.2,0.3,0.4,0.4c0.2,0.1,0.4,0.1,0.9,0.1v0.4h-4.3V174c0.4,0,0.7,0,0.9-0.1c0.1-0.1,0.3-0.2,0.3-0.4
		c0.1-0.2,0.1-0.6,0.1-1.1v-3.4c0-1,0-1.6-0.1-1.9c0-0.2-0.1-0.3-0.2-0.4c-0.1-0.1-0.2-0.1-0.4-0.1c-0.2,0-0.4,0.1-0.7,0.2l-0.1-0.4
		l2.7-1.1H146.5L146.5,165.1z"/>
	<path class="st11" d="M155.3,173.3c-0.4,0.5-0.9,0.8-1.3,1c-0.4,0.2-0.9,0.3-1.3,0.3c-1,0-1.8-0.4-2.6-1.2
		c-0.7-0.8-1.1-1.9-1.1-3.1s0.4-2.4,1.2-3.5c0.8-1.1,1.9-1.6,3.1-1.6c0.8,0,1.4,0.3,1.9,0.8v-1.7c0-1,0-1.6-0.1-1.9
		c0-0.2-0.1-0.4-0.2-0.5c-0.1-0.1-0.2-0.1-0.4-0.1c-0.2,0-0.4,0.1-0.7,0.1l-0.1-0.3l2.7-1.1h0.4v10.3c0,1,0,1.7,0.1,1.9
		c0,0.2,0.1,0.4,0.2,0.5c0.1,0.1,0.2,0.1,0.4,0.1c0.2,0,0.4-0.1,0.7-0.2l0.1,0.3l-2.6,1.1h-0.5V173.3 M155.3,172.6V168
		c0-0.4-0.2-0.8-0.4-1.2c-0.2-0.4-0.4-0.6-0.8-0.8c-0.3-0.2-0.6-0.3-0.9-0.3c-0.6,0-1.1,0.3-1.5,0.8c-0.6,0.7-0.9,1.7-0.9,3
		c0,1.3,0.3,2.3,0.8,3c0.6,0.7,1.2,1,1.9,1C154.1,173.5,154.7,173.2,155.3,172.6L155.3,172.6z"/>
	<path class="st11" d="M160.5,168.7c0,1.3,0.3,2.4,1,3.1c0.6,0.8,1.4,1.1,2.3,1.1c0.6,0,1.1-0.2,1.5-0.5c0.4-0.3,0.8-0.9,1.1-1.7
		l0.3,0.2c-0.2,0.9-0.6,1.7-1.2,2.4c-0.7,0.7-1.5,1.1-2.5,1.1c-1.1,0-2-0.4-2.8-1.2c-0.8-0.8-1.1-2-1.1-3.4c0-1.5,0.4-2.7,1.2-3.6
		c0.8-0.8,1.8-1.3,3-1.3c1,0,1.8,0.3,2.5,1c0.6,0.7,1,1.5,1,2.6H160.5 M160.5,168.2h4.1c0-0.6-0.1-1-0.2-1.2
		c-0.2-0.4-0.4-0.6-0.7-0.8c-0.3-0.2-0.7-0.3-1-0.3c-0.5,0-1,0.2-1.4,0.6C160.8,166.9,160.6,167.4,160.5,168.2L160.5,168.2z"/>
	<line class="st10" x1="174.2" y1="187.2" x2="170.7" y2="187.2"/>
	<path class="st11" d="M137.9,181.4V181h4.7v0.4h-0.5c-0.5,0-0.9,0.2-1.2,0.7c-0.1,0.2-0.2,0.7-0.2,1.4v5.4c0,1.3-0.1,2.4-0.4,3.1
		c-0.3,0.7-0.8,1.4-1.5,1.9c-0.8,0.5-1.8,0.8-3.2,0.8c-1.4,0-2.5-0.3-3.3-0.7c-0.8-0.5-1.3-1.2-1.6-2c-0.2-0.6-0.3-1.7-0.3-3.3v-5.2
		c0-0.8-0.1-1.3-0.3-1.6c-0.2-0.2-0.6-0.4-1.1-0.4h-0.5V181h5.7v0.4h-0.5c-0.6,0-0.9,0.2-1.2,0.5c-0.2,0.2-0.3,0.7-0.3,1.5v5.8
		c0,0.5,0,1.1,0.1,1.8c0.1,0.7,0.3,1.2,0.5,1.6c0.2,0.4,0.6,0.7,1.1,0.9c0.5,0.2,1,0.4,1.7,0.4c0.9,0,1.6-0.2,2.3-0.6
		c0.7-0.4,1.2-0.9,1.4-1.5c0.2-0.6,0.4-1.6,0.4-3v-5.4c0-0.8-0.1-1.3-0.3-1.6c-0.3-0.3-0.6-0.4-1.1-0.4H137.9L137.9,181.4z"/>
	<path class="st11" d="M146,185v2c0.7-1.3,1.5-2,2.3-2c0.4,0,0.6,0.1,0.9,0.3c0.2,0.2,0.4,0.5,0.4,0.8c0,0.3-0.1,0.5-0.3,0.6
		c-0.2,0.2-0.4,0.3-0.6,0.3c-0.2,0-0.5-0.1-0.8-0.3c-0.3-0.2-0.5-0.3-0.6-0.3c-0.1,0-0.3,0.1-0.4,0.2c-0.3,0.3-0.6,0.7-0.9,1.3v4.3
		c0,0.5,0.1,0.9,0.2,1.1c0.1,0.2,0.2,0.3,0.5,0.4c0.2,0.1,0.5,0.2,0.9,0.2v0.4H143v-0.4c0.4,0,0.8-0.1,1-0.2
		c0.2-0.1,0.3-0.3,0.3-0.5c0-0.1,0.1-0.4,0.1-1v-3.5c0-1,0-1.7-0.1-1.9c0-0.2-0.1-0.3-0.2-0.4c-0.1-0.1-0.3-0.1-0.4-0.1
		c-0.2,0-0.4,0.1-0.7,0.2l-0.1-0.4l2.7-1.1H146L146,185z"/>
	<path class="st11" d="M151.6,188.7c0,1.3,0.3,2.4,1,3.1c0.6,0.8,1.4,1.1,2.3,1.1c0.6,0,1.1-0.2,1.5-0.5c0.4-0.3,0.8-0.9,1.1-1.7
		l0.3,0.2c-0.2,0.9-0.6,1.7-1.2,2.4c-0.7,0.7-1.5,1.1-2.5,1.1c-1.1,0-2-0.4-2.8-1.2c-0.8-0.8-1.1-2-1.1-3.4c0-1.5,0.4-2.7,1.2-3.6
		c0.8-0.8,1.8-1.3,3-1.3c1,0,1.8,0.3,2.5,1s1,1.5,1,2.6H151.6 M151.6,188.1h4.1c0-0.6-0.1-1-0.2-1.2c-0.2-0.4-0.4-0.6-0.7-0.8
		c-0.3-0.2-0.7-0.3-1-0.3c-0.5,0-1,0.2-1.4,0.6C152,186.8,151.7,187.4,151.6,188.1L151.6,188.1z"/>
	<path class="st11" d="M164.1,193c-0.9,0.7-1.5,1.1-1.7,1.2c-0.4,0.1-0.7,0.2-1.1,0.2c-0.6,0-1.1-0.2-1.5-0.6
		c-0.4-0.4-0.6-1-0.6-1.7c0-0.4,0.1-0.8,0.3-1.1c0.3-0.4,0.7-0.8,1.4-1.2c0.7-0.4,1.8-0.9,3.3-1.4V188c0-0.9-0.2-1.5-0.4-1.8
		c-0.3-0.3-0.7-0.5-1.2-0.5c-0.4,0-0.7,0.1-1,0.3c-0.3,0.2-0.4,0.5-0.4,0.8l0,0.6c0,0.3-0.1,0.5-0.2,0.7s-0.3,0.2-0.6,0.2
		s-0.4-0.1-0.6-0.2c-0.2-0.2-0.2-0.4-0.2-0.7c0-0.6,0.3-1.1,0.9-1.5c0.6-0.5,1.4-0.7,2.4-0.7c0.8,0,1.4,0.1,2,0.4
		c0.4,0.2,0.7,0.5,0.8,0.9c0.1,0.3,0.2,0.9,0.2,1.7v3c0,0.9,0,1.4,0,1.6c0,0.2,0.1,0.3,0.2,0.4c0.1,0.1,0.2,0.1,0.3,0.1
		c0.1,0,0.2,0,0.3-0.1c0.1-0.1,0.4-0.3,0.8-0.7v0.6c-0.7,1-1.4,1.4-2.1,1.4c-0.3,0-0.6-0.1-0.8-0.3
		C164.2,193.9,164.1,193.5,164.1,193 M164.1,192.3v-3.4c-1,0.4-1.6,0.7-1.9,0.8c-0.5,0.3-0.9,0.6-1.1,0.9c-0.2,0.3-0.3,0.7-0.3,1
		c0,0.5,0.1,0.9,0.4,1.2c0.3,0.3,0.6,0.5,1,0.5C162.6,193.3,163.3,193,164.1,192.3L164.1,192.3z"/>
	<path class="st11" d="M8.8,155h6.5v-3c0-0.7-0.2-1.2-0.4-1.5c-0.3-0.3-0.9-0.5-1.8-0.6v-0.5h5.6v0.5c-0.7,0-1.1,0.1-1.4,0.3
		s-0.5,0.4-0.7,0.6c-0.1,0.3-0.2,0.7-0.2,1.3v3h5.2c0.8,0,1.4,0,1.7-0.1c0.2-0.1,0.4-0.3,0.5-0.5c0.2-0.4,0.3-0.7,0.3-1.1v-0.6h0.4
		v7.1H24v-0.6c0-0.7-0.2-1.2-0.6-1.5c-0.2-0.2-0.9-0.3-1.9-0.3H10.9c-0.8,0-1.4,0.1-1.7,0.2c-0.2,0.1-0.4,0.3-0.5,0.5
		c-0.2,0.4-0.3,0.7-0.3,1.1v0.6H7.9v-12.3l3.6-0.2v0.4c-0.8,0.2-1.3,0.5-1.7,0.8c-0.3,0.3-0.6,0.6-0.8,1c-0.1,0.4-0.3,1-0.3,1.9V155
		L8.8,155z"/>
	<path class="st11" d="M17.5,143.6c1.7,0,3-0.4,3.9-1.2c0.9-0.8,1.4-1.8,1.4-2.9c0-0.7-0.2-1.3-0.6-1.9c-0.4-0.6-1.1-1-2.1-1.4
		l0.3-0.4c1.1,0.2,2.1,0.7,3,1.5c0.9,0.8,1.3,1.8,1.3,3.1c0,1.4-0.5,2.5-1.5,3.5c-1.1,1-2.5,1.4-4.2,1.4c-1.9,0-3.4-0.5-4.5-1.5
		c-1.1-1-1.6-2.2-1.6-3.7c0-1.3,0.4-2.3,1.3-3.1c0.8-0.8,1.9-1.2,3.3-1.2V143.6 M16.8,143.6v-5.2c-0.7,0.1-1.2,0.1-1.5,0.3
		c-0.4,0.2-0.8,0.5-1,0.9c-0.3,0.4-0.4,0.8-0.4,1.3c0,0.7,0.3,1.3,0.8,1.8C15.2,143.2,15.9,143.5,16.8,143.6L16.8,143.6z"/>
	<path class="st11" d="M22.9,128.1c0.9,1.1,1.4,1.9,1.5,2.2c0.2,0.4,0.3,0.9,0.3,1.4c0,0.8-0.3,1.4-0.8,1.9
		c-0.5,0.5-1.2,0.8-2.1,0.8c-0.6,0-1-0.1-1.4-0.4c-0.6-0.3-1.1-0.9-1.6-1.7c-0.5-0.8-1.1-2.2-1.8-4.1h-0.5c-1.1,0-1.9,0.2-2.3,0.6
		c-0.4,0.3-0.6,0.9-0.6,1.5c0,0.5,0.2,0.9,0.4,1.2c0.3,0.3,0.6,0.5,0.9,0.5l0.7,0c0.4,0,0.7,0.1,0.9,0.3c0.2,0.2,0.3,0.4,0.3,0.7
		c0,0.3-0.1,0.6-0.3,0.8c-0.2,0.2-0.5,0.3-0.9,0.3c-0.7,0-1.3-0.4-1.9-1.1c-0.6-0.7-0.9-1.7-0.9-3c0-1,0.2-1.8,0.5-2.5
		c0.3-0.5,0.7-0.8,1.2-1c0.3-0.1,1.1-0.2,2.2-0.2h3.8c1.1,0,1.7,0,1.9,0c0.3-0.1,0.4-0.1,0.5-0.2c0.1-0.1,0.1-0.2,0.1-0.4
		c0-0.1,0-0.2-0.1-0.3c-0.1-0.2-0.4-0.5-0.9-1h0.7c1.2,0.9,1.8,1.8,1.8,2.6c0,0.4-0.2,0.7-0.4,0.9C24,128,23.6,128.1,22.9,128.1
		 M22.1,128.1h-4.3c0.5,1.3,0.8,2.1,1.1,2.4c0.3,0.7,0.7,1.1,1.1,1.4c0.4,0.3,0.8,0.4,1.3,0.4c0.6,0,1.1-0.2,1.5-0.5
		c0.4-0.3,0.6-0.8,0.6-1.2C23.3,129.9,22.9,129.1,22.1,128.1L22.1,128.1z"/>
	<path class="st11" d="M9.6,120.1h3.7v-2.6h0.8v2.6h7.3c0.7,0,1.2-0.1,1.5-0.3c0.3-0.2,0.4-0.5,0.4-0.8c0-0.3-0.1-0.5-0.3-0.8
		c-0.1-0.3-0.4-0.4-0.8-0.6v-0.5c0.8,0.3,1.4,0.7,1.8,1.2c0.4,0.5,0.6,1.1,0.6,1.6c0,0.4-0.1,0.8-0.3,1.1s-0.5,0.6-0.9,0.8
		c-0.4,0.2-1,0.3-1.8,0.3h-7.5v1.8h-0.4c-0.2-0.4-0.5-0.9-0.9-1.4c-0.4-0.4-0.9-0.9-1.5-1.3c-0.3-0.2-0.9-0.4-1.7-0.8V120.1
		L9.6,120.1z"/>
	<path class="st11" d="M13.3,106.6h6.8c1.3,0,2.1,0,2.4-0.1c0.3-0.1,0.5-0.1,0.6-0.3c0.1-0.1,0.2-0.3,0.2-0.5c0-0.2-0.1-0.5-0.2-0.8
		l0.4-0.2l1.4,3.4v0.6h-2.3c1.1,1,1.7,1.7,2,2.2c0.2,0.5,0.4,1.1,0.4,1.6c0,0.6-0.2,1.2-0.5,1.6c-0.3,0.5-0.8,0.8-1.4,1
		c-0.6,0.2-1.4,0.3-2.4,0.3h-5c-0.5,0-0.9,0.1-1.1,0.2c-0.2,0.1-0.4,0.3-0.5,0.5c-0.1,0.2-0.2,0.6-0.2,1.2h-0.5v-3.9h7.5
		c1,0,1.8-0.2,2.1-0.5c0.3-0.3,0.5-0.8,0.5-1.3c0-0.4-0.1-0.7-0.3-1.2c-0.2-0.4-0.6-1-1.3-1.6h-6.3c-0.6,0-1.1,0.1-1.3,0.3
		c-0.2,0.3-0.4,0.7-0.4,1.5h-0.5V106.6L13.3,106.6z"/>
	<path class="st11" d="M13,100.7h2.5c-1.7-0.9-2.5-1.9-2.5-2.9c0-0.5,0.2-0.8,0.4-1.1c0.3-0.3,0.6-0.4,0.9-0.4
		c0.3,0,0.6,0.1,0.8,0.3c0.2,0.2,0.3,0.5,0.3,0.8c0,0.3-0.1,0.6-0.4,1c-0.3,0.4-0.4,0.6-0.4,0.8s0.1,0.3,0.3,0.5
		c0.3,0.4,0.9,0.8,1.7,1.1h5.4c0.6,0,1.1-0.1,1.4-0.2c0.2-0.1,0.4-0.3,0.5-0.6c0.2-0.3,0.2-0.7,0.2-1.2h0.4v5.7H24
		c0-0.5-0.1-1-0.3-1.3c-0.1-0.2-0.3-0.3-0.6-0.4c-0.2-0.1-0.5-0.1-1.2-0.1h-4.3c-1.3,0-2.1,0-2.3,0.1c-0.3,0-0.4,0.1-0.6,0.3
		c-0.1,0.1-0.2,0.3-0.2,0.5c0,0.3,0.1,0.6,0.2,0.9l-0.5,0.1l-1.3-3.4V100.7L13,100.7z"/>
	<path class="st11" d="M17.5,93.7c1.7,0,3-0.4,3.9-1.2c0.9-0.8,1.4-1.8,1.4-2.9c0-0.7-0.2-1.3-0.6-1.9c-0.4-0.5-1.1-1-2.1-1.4
		l0.3-0.4c1.1,0.2,2.1,0.7,3,1.5c0.9,0.8,1.3,1.9,1.3,3.1c0,1.4-0.5,2.5-1.5,3.4c-1.1,1-2.5,1.4-4.2,1.4c-1.9,0-3.4-0.5-4.5-1.5
		c-1.1-1-1.6-2.2-1.6-3.7c0-1.3,0.4-2.3,1.3-3.1c0.8-0.8,1.9-1.2,3.3-1.2V93.7 M16.8,93.7v-5.2c-0.7,0-1.2,0.1-1.5,0.3
		c-0.4,0.2-0.8,0.5-1,0.9s-0.4,0.8-0.4,1.3c0,0.7,0.3,1.3,0.8,1.8C15.2,93.3,15.9,93.6,16.8,93.7L16.8,93.7z"/>
	<path class="st11" d="M13,77.3h3.8v0.4c-1.2,0.3-2,0.7-2.4,1.2c-0.4,0.5-0.7,1.1-0.7,1.9c0,0.6,0.2,1,0.5,1.4
		c0.3,0.4,0.7,0.5,1,0.5c0.5,0,0.9-0.1,1.2-0.4c0.4-0.3,0.7-0.8,1.1-1.5l0.9-1.8c0.8-1.6,1.9-2.5,3.2-2.5c1,0,1.9,0.4,2.5,1.1
		c0.6,0.8,0.9,1.6,0.9,2.6c0,0.7-0.1,1.5-0.3,2.4c-0.1,0.3-0.1,0.5-0.1,0.7c0,0.2,0.1,0.3,0.3,0.4V84h-4v-0.4c1.1-0.2,2-0.6,2.6-1.3
		c0.6-0.7,0.8-1.4,0.8-2.2c0-0.5-0.2-1-0.5-1.4c-0.3-0.3-0.7-0.5-1.2-0.5c-0.5,0-1,0.2-1.4,0.6c-0.4,0.4-0.9,1.2-1.5,2.4
		c-0.6,1.2-1.1,1.9-1.6,2.3c-0.4,0.4-1,0.6-1.8,0.6c-0.9,0-1.7-0.3-2.3-1c-0.6-0.6-0.9-1.5-0.9-2.5c0-0.4,0.1-0.9,0.3-1.6
		c0.1-0.4,0.2-0.7,0.2-0.8c0-0.1,0-0.2-0.1-0.3c-0.1-0.1-0.2-0.2-0.4-0.3V77.3L13,77.3z"/>
	<path class="st12" d="M174.2,197.2V38.5 M1393.5,197.2V38.5 M174.2,197.2h1219.2 M174.2,38.5h1219.2"/>
	<path class="st11" d="M667.6,27.9L668,28l-1.4,4.5h-12.8V32h0.6c0.7,0,1.2-0.2,1.5-0.7c0.1-0.3,0.3-0.9,0.3-1.8V18.9
		c0-1-0.1-1.7-0.3-2c-0.3-0.3-0.8-0.5-1.4-0.5h-0.6v-0.4h7.5v0.4c-0.9,0-1.5,0.1-1.9,0.3c-0.4,0.2-0.6,0.4-0.7,0.6
		c-0.1,0.3-0.2,0.9-0.2,1.9v10.4c0,0.7,0,1.2,0.2,1.4c0.1,0.2,0.3,0.3,0.5,0.4c0.2,0.1,0.8,0.1,1.9,0.1h1.2c1.3,0,2.2-0.1,2.7-0.3
		c0.5-0.2,1-0.5,1.4-1C666.8,29.7,667.2,28.9,667.6,27.9L667.6,27.9z"/>
	<path class="st11" d="M672.3,15.1c0.3,0,0.6,0.1,0.9,0.4c0.2,0.3,0.3,0.5,0.3,0.9c0,0.4-0.1,0.6-0.3,0.9c-0.3,0.3-0.5,0.4-0.9,0.4
		s-0.6-0.1-0.9-0.4s-0.4-0.5-0.4-0.9c0-0.3,0.1-0.6,0.3-0.9C671.6,15.3,671.9,15.1,672.3,15.1 M673.3,21v9c0,0.7,0,1.2,0.1,1.4
		c0.1,0.3,0.3,0.4,0.5,0.5c0.2,0.1,0.5,0.1,1.1,0.1v0.5h-5.4V32c0.5,0,0.9,0,1.1-0.1c0.2-0.1,0.3-0.3,0.4-0.5s0.2-0.7,0.2-1.4v-4.3
		c0-1.2,0-2-0.1-2.4c-0.1-0.3-0.2-0.4-0.3-0.5s-0.3-0.2-0.5-0.2c-0.2,0-0.5,0.1-0.8,0.2l-0.2-0.4l3.4-1.4H673.3L673.3,21z"/>
	<path class="st11" d="M679.4,28.4c-0.7-0.3-1.2-0.8-1.6-1.4c-0.4-0.6-0.5-1.3-0.5-2c0-1.1,0.4-2,1.3-2.8c0.8-0.8,1.9-1.2,3.2-1.2
		c1.1,0,2,0.3,2.8,0.8h2.4c0.4,0,0.6,0,0.6,0c0,0,0.1,0.1,0.1,0.1c0,0.1,0.1,0.2,0.1,0.4c0,0.2,0,0.4-0.1,0.4c0,0-0.1,0.1-0.1,0.1
		s-0.3,0-0.6,0h-1.4c0.4,0.6,0.7,1.4,0.7,2.3c0,1-0.4,1.9-1.2,2.7s-1.9,1.1-3.2,1.1c-0.6,0-1.1-0.1-1.7-0.3
		c-0.4,0.3-0.6,0.6-0.8,0.8c-0.1,0.3-0.2,0.4-0.2,0.6c0,0.2,0,0.3,0.2,0.4c0.1,0.1,0.4,0.2,0.8,0.3c0.2,0,0.8,0.1,1.7,0.1
		c1.7,0,2.8,0.1,3.3,0.2c0.8,0.1,1.4,0.4,1.8,0.8c0.5,0.4,0.7,1,0.7,1.7c0,0.9-0.4,1.8-1.3,2.6c-1.3,1.2-2.9,1.8-4.9,1.8
		c-1.6,0-2.9-0.4-4-1.1c-0.6-0.4-0.9-0.8-0.9-1.3c0-0.2,0-0.4,0.1-0.6c0.1-0.3,0.4-0.7,0.9-1.3c0-0.1,0.5-0.5,1.3-1.3
		c-0.4-0.3-0.7-0.5-0.9-0.7c-0.2-0.2-0.3-0.4-0.3-0.7c0-0.3,0.1-0.6,0.4-1C678,29.7,678.5,29.1,679.4,28.4 M681.5,21.6
		c-0.6,0-1.1,0.3-1.5,0.7c-0.4,0.5-0.6,1.2-0.6,2.2c0,1.3,0.3,2.3,0.8,3c0.4,0.5,1,0.8,1.6,0.8c0.6,0,1.1-0.2,1.5-0.7
		c0.4-0.5,0.6-1.2,0.6-2.2c0-1.3-0.3-2.3-0.8-3C682.7,21.8,682.2,21.6,681.5,21.6 M679.3,32.5c-0.4,0.4-0.7,0.8-0.9,1.1
		s-0.3,0.7-0.3,1c0,0.4,0.2,0.7,0.7,1c0.8,0.5,2,0.8,3.5,0.8c1.5,0,2.5-0.3,3.2-0.8c0.7-0.5,1-1.1,1-1.6c0-0.4-0.2-0.7-0.6-0.9
		c-0.4-0.2-1.3-0.3-2.5-0.3C681.6,32.7,680.2,32.6,679.3,32.5L679.3,32.5z"/>
	<path class="st11" d="M692.2,15.1v8.2c0.9-1,1.6-1.6,2.1-1.9c0.5-0.3,1-0.4,1.6-0.4c0.6,0,1.2,0.2,1.6,0.5c0.5,0.4,0.8,0.9,1,1.6
		c0.1,0.6,0.2,1.5,0.2,2.9v4c0,0.7,0,1.2,0.2,1.4c0.1,0.2,0.2,0.4,0.4,0.5c0.2,0.1,0.6,0.1,1.1,0.1v0.5h-5.5V32h0.3
		c0.5,0,0.9-0.1,1.1-0.2c0.2-0.2,0.3-0.4,0.4-0.7c0-0.1,0-0.5,0-1.1v-4c0-1.2-0.1-2-0.2-2.4s-0.3-0.6-0.6-0.9
		c-0.3-0.2-0.6-0.3-1-0.3c-0.4,0-0.8,0.1-1.2,0.3c-0.4,0.2-0.9,0.6-1.5,1.3V30c0,0.8,0,1.3,0.1,1.4c0.1,0.2,0.2,0.4,0.5,0.5
		C693,32,693.4,32,694,32v0.5h-5.5V32c0.5,0,0.9-0.1,1.2-0.2c0.2-0.1,0.3-0.2,0.4-0.5c0.1-0.2,0.2-0.7,0.2-1.4V19.8
		c0-1.3,0-2.1-0.1-2.4c-0.1-0.3-0.2-0.5-0.3-0.6s-0.3-0.1-0.5-0.1c-0.2,0-0.4,0.1-0.8,0.2l-0.2-0.4l3.4-1.4H692.2L692.2,15.1z"/>
	<path class="st11" d="M704.6,17.6v3.7h2.6v0.8h-2.6v7.3c0,0.7,0.1,1.2,0.3,1.5c0.2,0.3,0.5,0.4,0.8,0.4c0.2,0,0.5-0.1,0.8-0.3
		c0.3-0.1,0.4-0.4,0.6-0.8h0.5c-0.3,0.8-0.7,1.4-1.2,1.8c-0.5,0.4-1,0.6-1.6,0.6c-0.4,0-0.8-0.1-1.1-0.3c-0.3-0.2-0.6-0.5-0.8-0.9
		c-0.2-0.4-0.3-1-0.3-1.8v-7.5h-1.8v-0.4c0.5-0.2,0.9-0.5,1.4-0.9c0.5-0.4,0.9-0.9,1.3-1.5c0.2-0.3,0.4-0.9,0.8-1.7H704.6
		L704.6,17.6z"/>
	<path class="st11" d="M722.9,15.6l0.4,5.2h-0.4c-0.4-1.3-1-2.3-1.7-2.9c-1-1-2.3-1.4-3.8-1.4c-2.1,0-3.7,0.9-4.8,2.5
		c-0.9,1.4-1.4,3.1-1.4,5c0,1.6,0.3,3,0.9,4.3c0.6,1.3,1.4,2.3,2.4,2.9c1,0.6,2,0.9,3,0.9c0.6,0,1.2-0.1,1.7-0.2
		c0.6-0.2,1.1-0.4,1.7-0.7v-4.8c0-0.8-0.1-1.4-0.2-1.6c-0.2-0.3-0.4-0.5-0.6-0.6c-0.3-0.1-0.7-0.2-1.4-0.2v-0.4h6.4v0.4h-0.3
		c-0.7,0-1.1,0.2-1.3,0.7c-0.2,0.3-0.3,0.9-0.3,1.8v5.1c-0.9,0.5-1.9,0.9-2.8,1.1c-0.9,0.2-1.9,0.4-3,0.4c-3.2,0-5.6-1-7.3-3.1
		c-1.3-1.5-1.9-3.3-1.9-5.3c0-1.5,0.3-2.8,1-4.2c0.8-1.6,2-2.8,3.4-3.7c1.2-0.7,2.7-1,4.3-1c0.6,0,1.1,0,1.6,0.1
		c0.5,0.1,1.2,0.3,2.1,0.6c0.4,0.2,0.8,0.3,0.9,0.3s0.3,0,0.4-0.2c0.1-0.1,0.2-0.4,0.2-0.8H722.9L722.9,15.6z"/>
	<path class="st11" d="M737.1,24c1.1,0.3,2,0.7,2.6,1.2c0.8,0.8,1.2,1.7,1.2,2.8c0,0.8-0.3,1.6-0.8,2.4c-0.5,0.8-1.3,1.3-2.2,1.6
		s-2.3,0.5-4.2,0.5H726V32h0.6c0.7,0,1.2-0.2,1.5-0.6c0.2-0.3,0.3-0.9,0.3-1.8V18.9c0-1-0.1-1.6-0.3-2c-0.3-0.3-0.8-0.5-1.4-0.5H726
		v-0.4h7.1c1.3,0,2.4,0.1,3.2,0.3c1.2,0.3,2.1,0.8,2.8,1.5s1,1.6,1,2.6c0,0.8-0.3,1.6-0.8,2.2C738.8,23.2,738.1,23.7,737.1,24
		 M730.7,23.4c0.3,0.1,0.6,0.1,1,0.1c0.4,0.1,0.8,0.1,1.3,0.1c1.2,0,2.1-0.1,2.7-0.4s1-0.7,1.4-1.2c0.3-0.5,0.5-1.1,0.5-1.7
		c0-0.9-0.4-1.8-1.2-2.5c-0.8-0.7-2-1-3.5-1c-0.8,0-1.6,0.1-2.2,0.3V23.4 M730.7,31.3c0.9,0.2,1.9,0.3,2.8,0.3c1.5,0,2.6-0.3,3.4-1
		c0.8-0.6,1.2-1.5,1.2-2.5c0-0.6-0.2-1.3-0.5-1.8c-0.3-0.6-0.9-1.1-1.7-1.4c-0.8-0.3-1.8-0.5-2.9-0.5c-0.5,0-0.9,0-1.3,0
		c-0.4,0-0.7,0.1-0.8,0.1V31.3L730.7,31.3z"/>
	<path class="st11" d="M752.3,32.5l-6.4-13.9v11c0,1,0.1,1.6,0.3,1.9c0.3,0.4,0.8,0.5,1.4,0.5h0.6v0.5h-5.8V32h0.6
		c0.7,0,1.2-0.2,1.5-0.6c0.2-0.3,0.3-0.8,0.3-1.8V18.8c0-0.7-0.1-1.3-0.2-1.6c-0.1-0.2-0.3-0.4-0.7-0.6c-0.3-0.1-0.8-0.3-1.4-0.3
		v-0.4h4.7l6,12.9l5.9-12.9h4.7v0.4h-0.6c-0.7,0-1.2,0.2-1.5,0.6c-0.2,0.3-0.3,0.9-0.3,1.8v10.8c0,1,0.1,1.6,0.4,1.9
		c0.3,0.4,0.8,0.5,1.4,0.5h0.6v0.5h-7V32h0.6c0.7,0,1.2-0.2,1.5-0.6c0.2-0.3,0.3-0.8,0.3-1.8v-11l-6.4,13.9H752.3L752.3,32.5z"/>
	<path class="st11" d="M775.8,16.8v6.5h3c0.7,0,1.2-0.1,1.5-0.5c0.3-0.3,0.5-0.9,0.6-1.8h0.5v5.6h-0.5c0-0.7-0.1-1.1-0.3-1.4
		c-0.2-0.3-0.4-0.5-0.7-0.7c-0.3-0.1-0.7-0.2-1.3-0.2h-3v5.2c0,0.8,0,1.4,0.1,1.6c0.1,0.2,0.3,0.4,0.5,0.5c0.3,0.2,0.7,0.3,1.1,0.3
		h0.6v0.5H771V32h0.6c0.7,0,1.2-0.2,1.5-0.6c0.2-0.3,0.3-0.9,0.3-1.9V18.9c0-0.8-0.1-1.4-0.2-1.6c-0.1-0.2-0.3-0.4-0.5-0.5
		c-0.3-0.2-0.7-0.3-1.1-0.3H771v-0.4h12.3l0.2,3.6h-0.4c-0.2-0.8-0.5-1.3-0.8-1.7c-0.3-0.4-0.6-0.6-1-0.8c-0.4-0.1-1-0.3-1.9-0.3
		H775.8L775.8,16.8z"/>
	<path class="st11" d="M787.2,25.5c0,1.7,0.4,3,1.2,3.9c0.8,1,1.8,1.4,2.9,1.4c0.7,0,1.3-0.2,1.9-0.6s1-1.1,1.4-2.1l0.4,0.3
		c-0.2,1.1-0.7,2.2-1.5,3.1c-0.8,0.9-1.9,1.4-3.1,1.4c-1.3,0-2.5-0.5-3.4-1.6c-1-1-1.4-2.4-1.4-4.2c0-1.9,0.5-3.4,1.5-4.5
		c1-1.1,2.2-1.6,3.7-1.6c1.3,0,2.3,0.4,3.1,1.3c0.8,0.8,1.2,1.9,1.2,3.3H787.2 M787.2,24.8h5.2c0-0.7-0.1-1.2-0.3-1.5
		c-0.2-0.4-0.5-0.8-0.9-1c-0.4-0.3-0.8-0.4-1.3-0.4c-0.7,0-1.3,0.3-1.8,0.8C787.6,23.2,787.3,23.9,787.2,24.8L787.2,24.8z"/>
	<path class="st11" d="M802.7,30.9c-1.1,0.9-1.9,1.4-2.2,1.5c-0.5,0.2-0.9,0.3-1.4,0.3c-0.8,0-1.4-0.3-1.9-0.8
		c-0.5-0.5-0.8-1.2-0.8-2.1c0-0.6,0.1-1,0.3-1.4c0.3-0.5,0.9-1,1.7-1.5c0.8-0.5,2.2-1.1,4.1-1.8v-0.5c0-1.1-0.2-1.9-0.5-2.3
		c-0.4-0.4-0.9-0.6-1.5-0.6c-0.5,0-0.9,0.1-1.2,0.4c-0.3,0.3-0.5,0.6-0.5,1l0,0.7c0,0.4-0.1,0.7-0.3,0.9c-0.2,0.2-0.4,0.3-0.7,0.3
		c-0.3,0-0.5-0.1-0.8-0.3c-0.2-0.2-0.3-0.5-0.3-0.9c0-0.7,0.3-1.3,1.1-1.9c0.7-0.6,1.7-0.9,3-0.9c1,0,1.8,0.2,2.5,0.5
		c0.5,0.3,0.8,0.6,1,1.2c0.2,0.4,0.2,1.1,0.2,2.2v3.8c0,1.1,0,1.7,0.1,2c0,0.3,0.1,0.4,0.2,0.5c0.1,0.1,0.2,0.1,0.4,0.1
		c0.1,0,0.2,0,0.3-0.1c0.2-0.1,0.5-0.4,1-0.9v0.7c-0.9,1.2-1.8,1.8-2.6,1.8c-0.4,0-0.7-0.2-1-0.4C802.8,32,802.7,31.6,802.7,30.9
		 M802.7,30.1v-4.3c-1.3,0.5-2,0.8-2.4,1c-0.7,0.4-1.1,0.7-1.4,1.1c-0.3,0.4-0.4,0.8-0.4,1.3c0,0.6,0.2,1.1,0.5,1.5
		c0.4,0.4,0.8,0.6,1.2,0.6C800.9,31.3,801.7,30.9,802.7,30.1L802.7,30.1z"/>
	<path class="st11" d="M810.7,17.6v3.7h2.6v0.8h-2.6v7.3c0,0.7,0.1,1.2,0.3,1.5s0.5,0.4,0.8,0.4c0.3,0,0.5-0.1,0.8-0.3
		c0.3-0.1,0.4-0.4,0.6-0.8h0.5c-0.3,0.8-0.7,1.4-1.2,1.8c-0.5,0.4-1.1,0.6-1.6,0.6c-0.4,0-0.8-0.1-1.1-0.3c-0.4-0.2-0.6-0.5-0.8-0.9
		c-0.2-0.4-0.3-1-0.3-1.8v-7.5h-1.8v-0.4c0.4-0.2,0.9-0.5,1.4-0.9c0.5-0.4,0.9-0.9,1.3-1.5c0.2-0.3,0.4-0.9,0.8-1.7H810.7
		L810.7,17.6z"/>
	<path class="st11" d="M824.2,21.3v6.8c0,1.3,0,2.1,0.1,2.4c0,0.3,0.1,0.5,0.3,0.6c0.1,0.1,0.3,0.2,0.5,0.2c0.3,0,0.5-0.1,0.8-0.2
		l0.2,0.4l-3.3,1.4h-0.5v-2.4c-1,1-1.7,1.7-2.2,1.9s-1,0.4-1.6,0.4c-0.7,0-1.2-0.2-1.7-0.5c-0.4-0.3-0.8-0.8-0.9-1.4
		c-0.2-0.5-0.3-1.4-0.3-2.4v-5c0-0.5-0.1-0.9-0.2-1.1c-0.1-0.2-0.3-0.4-0.5-0.5c-0.2-0.1-0.6-0.1-1.2-0.1v-0.4h3.9v7.5
		c0,1.1,0.2,1.8,0.5,2.1c0.3,0.3,0.8,0.5,1.3,0.5c0.3,0,0.7-0.1,1.2-0.3s1-0.6,1.6-1.3v-6.3c0-0.6-0.1-1-0.3-1.3
		c-0.3-0.2-0.7-0.4-1.5-0.4v-0.4H824.2L824.2,21.3z"/>
	<path class="st11" d="M830.4,21v2.5c0.9-1.6,1.9-2.5,2.9-2.5c0.5,0,0.8,0.1,1.1,0.4c0.3,0.3,0.5,0.6,0.5,1c0,0.3-0.1,0.6-0.3,0.8
		c-0.2,0.2-0.4,0.3-0.8,0.3c-0.3,0-0.6-0.1-0.9-0.4c-0.4-0.3-0.6-0.4-0.8-0.4s-0.3,0.1-0.5,0.3c-0.4,0.4-0.8,0.9-1.2,1.6v5.4
		c0,0.6,0.1,1.1,0.2,1.4c0.1,0.2,0.3,0.4,0.6,0.6c0.3,0.1,0.6,0.2,1.1,0.2v0.5h-5.7V32c0.6,0,1-0.1,1.3-0.3c0.2-0.1,0.3-0.3,0.4-0.6
		c0-0.1,0.1-0.5,0.1-1.2v-4.3c0-1.3,0-2.1-0.1-2.3c-0.1-0.3-0.2-0.4-0.3-0.6c-0.1-0.1-0.3-0.2-0.5-0.2c-0.3,0-0.5,0.1-0.9,0.2
		l-0.1-0.4l3.4-1.4H830.4L830.4,21z"/>
	<path class="st11" d="M837.1,25.5c0,1.7,0.4,3,1.2,3.9c0.8,1,1.8,1.4,2.9,1.4c0.7,0,1.3-0.2,1.9-0.6c0.6-0.4,1-1.1,1.4-2.1l0.4,0.3
		c-0.2,1.1-0.7,2.2-1.5,3.1c-0.8,0.9-1.8,1.4-3.1,1.4c-1.4,0-2.5-0.5-3.5-1.6c-0.9-1-1.4-2.4-1.4-4.2c0-1.9,0.5-3.4,1.5-4.5
		c1-1.1,2.2-1.6,3.7-1.6c1.3,0,2.3,0.4,3.1,1.3c0.8,0.8,1.2,1.9,1.2,3.3H837.1 M837.1,24.8h5.2c0-0.7-0.1-1.2-0.3-1.5
		c-0.2-0.4-0.5-0.8-0.9-1c-0.4-0.3-0.8-0.4-1.3-0.4c-0.7,0-1.3,0.3-1.8,0.8C837.5,23.2,837.2,23.9,837.1,24.8L837.1,24.8z"/>
	<path class="st11" d="M853.5,21v3.8h-0.4c-0.3-1.2-0.7-2-1.2-2.4c-0.5-0.4-1.1-0.6-1.9-0.6c-0.6,0-1,0.1-1.4,0.4
		c-0.3,0.3-0.5,0.6-0.5,1c0,0.5,0.1,0.9,0.4,1.2c0.3,0.3,0.8,0.7,1.5,1.1l1.8,0.9c1.6,0.8,2.5,1.9,2.5,3.2c0,1-0.4,1.8-1.2,2.4
		c-0.8,0.6-1.6,0.9-2.6,0.9c-0.7,0-1.5-0.1-2.4-0.4c-0.3-0.1-0.5-0.1-0.7-0.1c-0.2,0-0.3,0.1-0.4,0.3h-0.4v-4h0.4
		c0.2,1.2,0.6,2,1.3,2.6c0.7,0.6,1.4,0.9,2.2,0.9c0.5,0,1-0.1,1.4-0.5c0.3-0.3,0.5-0.7,0.5-1.2c0-0.5-0.2-1-0.6-1.4
		c-0.4-0.4-1.2-0.9-2.4-1.4c-1.2-0.6-2-1.1-2.3-1.6c-0.4-0.5-0.6-1.1-0.6-1.8c0-0.9,0.3-1.7,1-2.3c0.6-0.6,1.5-0.9,2.5-0.9
		c0.4,0,1,0.1,1.6,0.3c0.4,0.1,0.7,0.2,0.8,0.2c0.1,0,0.2,0,0.3-0.1c0,0,0.2-0.2,0.3-0.4H853.5L853.5,21z"/>
	<path class="st11" d="M878.5,32.5h-4.4l-5.6-7.8c-0.4,0-0.8,0-1,0c-0.1,0-0.2,0-0.4,0s-0.3,0-0.3,0v4.8c0,1,0.1,1.7,0.3,1.9
		c0.3,0.4,0.8,0.5,1.4,0.5h0.7v0.5H862V32h0.6c0.7,0,1.2-0.2,1.5-0.7c0.1-0.3,0.3-0.9,0.3-1.8V18.9c0-1-0.1-1.7-0.3-2
		c-0.3-0.3-0.8-0.5-1.4-0.5H862v-0.4h6c1.8,0,3,0.1,3.9,0.4c0.8,0.3,1.5,0.7,2.1,1.4c0.6,0.7,0.9,1.5,0.9,2.5c0,1-0.4,1.9-1,2.6
		c-0.7,0.8-1.7,1.3-3.1,1.6l3.4,4.8c0.8,1.1,1.4,1.8,2,2.2c0.5,0.4,1.3,0.6,2.2,0.7V32.5 M866.8,24c0.2,0,0.3,0,0.4,0
		c0.1,0,0.2,0,0.3,0c1.6,0,2.8-0.3,3.6-1c0.8-0.7,1.2-1.6,1.2-2.6c0-1-0.3-1.9-1-2.5c-0.6-0.6-1.5-1-2.6-1c-0.5,0-1.1,0.1-1.9,0.2
		V24L866.8,24z"/>
	<path class="st11" d="M885.3,30.9c-1.2,0.9-1.9,1.4-2.2,1.5c-0.4,0.2-0.9,0.3-1.4,0.3c-0.8,0-1.4-0.3-1.9-0.8
		c-0.5-0.5-0.8-1.2-0.8-2.1c0-0.6,0.1-1,0.4-1.4c0.3-0.5,0.9-1,1.7-1.5c0.8-0.5,2.2-1.1,4.2-1.8v-0.5c0-1.1-0.2-1.9-0.6-2.3
		c-0.3-0.4-0.9-0.6-1.5-0.6c-0.5,0-0.9,0.1-1.2,0.4c-0.3,0.3-0.5,0.6-0.5,1l0,0.7c0,0.4-0.1,0.7-0.3,0.9c-0.2,0.2-0.4,0.3-0.7,0.3
		s-0.5-0.1-0.8-0.3c-0.2-0.2-0.3-0.5-0.3-0.9c0-0.7,0.4-1.3,1.1-1.9c0.7-0.6,1.7-0.9,3-0.9c1,0,1.8,0.2,2.5,0.5
		c0.5,0.3,0.8,0.6,1,1.2c0.2,0.4,0.2,1.1,0.2,2.2v3.8c0,1.1,0,1.7,0,2c0,0.3,0.1,0.4,0.2,0.5c0.1,0.1,0.2,0.1,0.3,0.1
		c0.1,0,0.2,0,0.3-0.1c0.2-0.1,0.5-0.4,1-0.9v0.7c-0.9,1.2-1.8,1.8-2.6,1.8c-0.4,0-0.7-0.2-1-0.4C885.4,32,885.3,31.6,885.3,30.9
		 M885.3,30.1v-4.3c-1.3,0.5-2.1,0.8-2.4,1c-0.7,0.4-1.1,0.7-1.4,1.1s-0.4,0.8-0.4,1.3c0,0.6,0.2,1.1,0.5,1.5s0.8,0.6,1.2,0.6
		C883.4,31.3,884.3,30.9,885.3,30.1L885.3,30.1z"/>
	<path class="st11" d="M893.5,23.3c1.3-1.6,2.6-2.4,3.8-2.4c0.6,0,1.1,0.1,1.6,0.5c0.4,0.3,0.8,0.8,1.1,1.5c0.2,0.5,0.3,1.3,0.3,2.3
		V30c0,0.7,0.1,1.2,0.2,1.4c0.1,0.2,0.2,0.4,0.4,0.5s0.6,0.1,1.1,0.1v0.5h-5.5V32h0.3c0.5,0,0.9-0.1,1.1-0.2
		c0.2-0.2,0.3-0.4,0.5-0.7c0-0.1,0-0.5,0-1.1v-4.6c0-1-0.2-1.8-0.4-2.2c-0.3-0.5-0.7-0.7-1.4-0.7c-1,0-1.9,0.5-2.9,1.6V30
		c0,0.8,0,1.2,0.1,1.4c0.1,0.3,0.3,0.4,0.5,0.5s0.6,0.1,1.2,0.1v0.5h-5.5V32h0.3c0.5,0,1-0.1,1.2-0.4c0.2-0.3,0.3-0.8,0.3-1.6v-4.1
		c0-1.4,0-2.2-0.1-2.5c0-0.3-0.2-0.5-0.3-0.6c-0.1-0.1-0.3-0.2-0.5-0.2c-0.3,0-0.5,0.1-0.8,0.2l-0.2-0.4L893,21h0.5V23.3L893.5,23.3
		z"/>
	<path class="st11" d="M906,15.1v11.1l2.8-2.6c0.6-0.5,0.9-0.9,1-1c0-0.1,0.1-0.2,0.1-0.3c0-0.2-0.1-0.3-0.2-0.4
		c-0.1-0.1-0.3-0.2-0.6-0.2v-0.4h4.8v0.4c-0.7,0-1.2,0.1-1.7,0.3c-0.5,0.2-0.9,0.5-1.5,1l-2.9,2.6l2.9,3.6c0.8,1,1.3,1.7,1.6,1.9
		c0.4,0.4,0.7,0.6,1,0.8c0.2,0.1,0.6,0.1,1.1,0.1v0.5h-5.4V32c0.3,0,0.5,0,0.6-0.1c0.1-0.1,0.2-0.2,0.2-0.4c0-0.2-0.2-0.5-0.5-0.9
		l-3.4-4.4V30c0,0.8,0,1.2,0.1,1.4c0.1,0.2,0.2,0.4,0.4,0.5c0.2,0.1,0.6,0.1,1.2,0.1v0.5h-5.7V32c0.6,0,1,0,1.3-0.2
		c0.1-0.1,0.3-0.2,0.4-0.4c0.1-0.3,0.2-0.8,0.2-1.4V19.9c0-1.3,0-2.1-0.1-2.4c-0.1-0.3-0.2-0.5-0.3-0.6c-0.2-0.1-0.3-0.2-0.5-0.2
		c-0.2,0-0.4,0.1-0.8,0.2l-0.2-0.4l3.3-1.4H906L906,15.1z"/>
</g>
</svg>
