<?xml version="1.0" encoding="utf-8"?>
<!-- Generator: Adobe Illustrator 21.0.0, SVG Export Plug-In . SVG Version: 6.00 Build 0)  -->
<svg version="1.1" id="图层_1" xmlns="http://www.w3.org/2000/svg" xmlns:xlink="http://www.w3.org/1999/xlink" x="0px" y="0px"
	 viewBox="0 0 683.6 330.7" style="enable-background:new 0 0 683.6 330.7;" xml:space="preserve">
<style type="text/css">
	.st0{clip-path:url(#SVGID_2_);fill:#FFFFFF;}
	.st1{fill:#E5E5E5;}
	
		.st2{clip-path:url(#SVGID_4_);fill:none;stroke:#FFFFFF;stroke-width:0.8;stroke-linecap:square;stroke-linejoin:round;stroke-miterlimit:10;}
	.st3{fill:#555555;stroke:#555555;stroke-width:0.8;stroke-linejoin:round;stroke-miterlimit:10;}
	.st4{fill-rule:evenodd;clip-rule:evenodd;fill:#555555;}
	
		.st5{clip-path:url(#SVGID_6_);fill:none;stroke:#FFFFFF;stroke-width:0.8;stroke-linecap:square;stroke-linejoin:round;stroke-miterlimit:10;}
	
		.st6{clip-path:url(#SVGID_8_);fill:none;stroke:#FFFFFF;stroke-width:0.8;stroke-linecap:square;stroke-linejoin:round;stroke-miterlimit:10;}
	
		.st7{clip-path:url(#SVGID_10_);fill:none;stroke:#FFFFFF;stroke-width:0.8;stroke-linecap:square;stroke-linejoin:round;stroke-miterlimit:10;}
	
		.st8{clip-path:url(#SVGID_12_);fill:none;stroke:#FFFFFF;stroke-width:0.8;stroke-linecap:square;stroke-linejoin:round;stroke-miterlimit:10;}
	
		.st9{clip-path:url(#SVGID_14_);fill:none;stroke:#FFFFFF;stroke-width:0.8;stroke-linecap:square;stroke-linejoin:round;stroke-miterlimit:10;}
	
		.st10{clip-path:url(#SVGID_16_);fill:none;stroke:#FFFFFF;stroke-width:0.8;stroke-linecap:square;stroke-linejoin:round;stroke-miterlimit:10;}
	
		.st11{clip-path:url(#SVGID_18_);fill:none;stroke:#FFFFFF;stroke-width:0.8;stroke-linecap:square;stroke-linejoin:round;stroke-miterlimit:10;}
	
		.st12{clip-path:url(#SVGID_20_);fill:none;stroke:#FFFFFF;stroke-width:0.8;stroke-linecap:square;stroke-linejoin:round;stroke-miterlimit:10;}
	
		.st13{clip-path:url(#SVGID_22_);fill:none;stroke:#FFFFFF;stroke-width:0.8;stroke-linecap:square;stroke-linejoin:round;stroke-miterlimit:10;}
	
		.st14{clip-path:url(#SVGID_24_);fill:none;stroke:#FFFFFF;stroke-width:0.8;stroke-linecap:square;stroke-linejoin:round;stroke-miterlimit:10;}
	
		.st15{clip-path:url(#SVGID_26_);fill:none;stroke:#FFFFFF;stroke-width:0.8;stroke-linecap:square;stroke-linejoin:round;stroke-miterlimit:10;}
	
		.st16{clip-path:url(#SVGID_28_);fill:none;stroke:#FFFFFF;stroke-width:0.8;stroke-linecap:square;stroke-linejoin:round;stroke-miterlimit:10;}
	
		.st17{clip-path:url(#SVGID_30_);fill:none;stroke:#FFFFFF;stroke-width:0.8;stroke-linecap:square;stroke-linejoin:round;stroke-miterlimit:10;}
	
		.st18{clip-path:url(#SVGID_32_);fill:none;stroke:#FFFFFF;stroke-width:0.8;stroke-linecap:square;stroke-linejoin:round;stroke-miterlimit:10;}
	
		.st19{clip-path:url(#SVGID_34_);fill:none;stroke:#FFFFFF;stroke-width:0.8;stroke-linecap:square;stroke-linejoin:round;stroke-miterlimit:10;}
	
		.st20{clip-path:url(#SVGID_36_);fill:none;stroke:#FFFFFF;stroke-width:0.8;stroke-linecap:square;stroke-linejoin:round;stroke-miterlimit:10;}
	
		.st21{clip-path:url(#SVGID_38_);fill:none;stroke:#FFFFFF;stroke-width:0.8;stroke-linecap:square;stroke-linejoin:round;stroke-miterlimit:10;}
	
		.st22{clip-path:url(#SVGID_40_);fill:none;stroke:#FFFFFF;stroke-width:0.8;stroke-linecap:square;stroke-linejoin:round;stroke-miterlimit:10;}
	
		.st23{clip-path:url(#SVGID_42_);fill:none;stroke:#FFFFFF;stroke-width:0.8;stroke-linecap:square;stroke-linejoin:round;stroke-miterlimit:10;}
	
		.st24{clip-path:url(#SVGID_44_);fill:none;stroke:#FFFFFF;stroke-width:0.8;stroke-linecap:square;stroke-linejoin:round;stroke-miterlimit:10;}
	
		.st25{clip-path:url(#SVGID_46_);fill:none;stroke:#FFFFFF;stroke-width:0.8;stroke-linecap:square;stroke-linejoin:round;stroke-miterlimit:10;}
	
		.st26{clip-path:url(#SVGID_48_);fill:none;stroke:#FFFFFF;stroke-width:0.8;stroke-linecap:square;stroke-linejoin:round;stroke-miterlimit:10;}
	
		.st27{clip-path:url(#SVGID_50_);fill:none;stroke:#FFFFFF;stroke-width:0.8;stroke-linecap:square;stroke-linejoin:round;stroke-miterlimit:10;}
	
		.st28{clip-path:url(#SVGID_52_);fill:none;stroke:#FFFFFF;stroke-width:0.8;stroke-linecap:square;stroke-linejoin:round;stroke-miterlimit:10;}
	
		.st29{clip-path:url(#SVGID_54_);fill:none;stroke:#FFFFFF;stroke-width:0.8;stroke-linecap:square;stroke-linejoin:round;stroke-miterlimit:10;}
	
		.st30{clip-path:url(#SVGID_56_);fill:none;stroke:#FFFFFF;stroke-width:0.8;stroke-linecap:square;stroke-linejoin:round;stroke-miterlimit:10;}
	
		.st31{clip-path:url(#SVGID_58_);fill:none;stroke:#FFFFFF;stroke-width:0.8;stroke-linecap:square;stroke-linejoin:round;stroke-miterlimit:10;}
	
		.st32{clip-path:url(#SVGID_60_);fill:none;stroke:#FFFFFF;stroke-width:0.8;stroke-linecap:square;stroke-linejoin:round;stroke-miterlimit:10;}
	
		.st33{clip-path:url(#SVGID_62_);fill:none;stroke:#FFFFFF;stroke-width:0.8;stroke-linecap:square;stroke-linejoin:round;stroke-miterlimit:10;}
	
		.st34{clip-path:url(#SVGID_64_);fill:none;stroke:#FFFFFF;stroke-width:0.8;stroke-linecap:square;stroke-linejoin:round;stroke-miterlimit:10;}
	
		.st35{clip-path:url(#SVGID_66_);fill:none;stroke:#FFFFFF;stroke-width:0.8;stroke-linecap:square;stroke-linejoin:round;stroke-miterlimit:10;}
	
		.st36{clip-path:url(#SVGID_68_);fill:none;stroke:#FFFFFF;stroke-width:0.8;stroke-linecap:square;stroke-linejoin:round;stroke-miterlimit:10;}
	.st37{fill:none;stroke:#E24A33;stroke-width:1.5;stroke-linecap:square;stroke-linejoin:round;stroke-miterlimit:10;}
	.st38{fill:none;stroke:#FFFFFF;stroke-linecap:square;stroke-miterlimit:10;}
	.st39{fill-rule:evenodd;clip-rule:evenodd;}
</style>
<g>
	<g>
		<defs>
			<rect id="SVGID_1_" x="0.2" width="683.5" height="330.7"/>
		</defs>
		<clipPath id="SVGID_2_">
			<use xlink:href="#SVGID_1_"  style="overflow:visible;"/>
		</clipPath>
		<rect y="0" class="st0" width="683.6" height="330.8"/>
	</g>
	<rect x="66.3" y="30.5" class="st1" width="610.2" height="246.5"/>
	<g>
		<defs>
			<rect id="SVGID_3_" x="66.3" y="30.6" width="610.2" height="246.5"/>
		</defs>
		<clipPath id="SVGID_4_">
			<use xlink:href="#SVGID_3_"  style="overflow:visible;"/>
		</clipPath>
		<line class="st2" x1="73.5" y1="277.1" x2="73.5" y2="30.5"/>
	</g>
	<line class="st3" x1="73.5" y1="277.1" x2="73.5" y2="280.6"/>
	<path class="st4" d="M70.3,289.6c0-1.1,0.2-2.1,0.5-2.9c0.3-0.8,0.8-1.4,1.4-1.8c0.4-0.3,0.9-0.5,1.4-0.5c0.8,0,1.4,0.4,2.1,1.2
		c0.8,1,1.1,2.3,1.1,3.9c0,1.2-0.2,2.1-0.5,2.9c-0.3,0.8-0.8,1.4-1.3,1.7c-0.5,0.4-1,0.5-1.5,0.5c-1,0-1.7-0.6-2.4-1.7
		C70.6,292.1,70.3,290.9,70.3,289.6 M71.8,289.8c0,1.4,0.2,2.5,0.5,3.3c0.3,0.7,0.7,1.1,1.2,1.1c0.3,0,0.5-0.1,0.8-0.3
		c0.3-0.2,0.5-0.6,0.6-1.2c0.2-0.8,0.3-2,0.3-3.6c0-1.1-0.1-2.1-0.4-2.8c-0.2-0.6-0.4-0.9-0.7-1.2c-0.2-0.2-0.5-0.3-0.7-0.3
		c-0.3,0-0.6,0.2-0.9,0.5c-0.4,0.4-0.6,1-0.7,1.9C71.8,288.1,71.8,288.9,71.8,289.8L71.8,289.8z"/>
	<g>
		<defs>
			<rect id="SVGID_5_" x="66.3" y="30.6" width="610.2" height="246.5"/>
		</defs>
		<clipPath id="SVGID_6_">
			<use xlink:href="#SVGID_5_"  style="overflow:visible;"/>
		</clipPath>
		<line class="st5" x1="94" y1="277.1" x2="94" y2="30.5"/>
	</g>
	<line class="st3" x1="94" y1="277.1" x2="94" y2="280.6"/>
	<path class="st4" d="M91.9,285.5l2.4-1.2h0.2v8.4c0,0.6,0,0.9,0.1,1c0,0.1,0.1,0.2,0.3,0.3c0.1,0.1,0.4,0.1,0.9,0.1v0.3h-3.7v-0.3
		c0.5,0,0.8,0,0.9-0.1c0.1-0.1,0.2-0.2,0.3-0.3c0.1-0.1,0.1-0.5,0.1-1.1v-5.4c0-0.7,0-1.2-0.1-1.4c0-0.2-0.1-0.3-0.2-0.3
		c-0.1-0.1-0.2-0.1-0.3-0.1c-0.2,0-0.4,0.1-0.8,0.2L91.9,285.5L91.9,285.5z"/>
	<g>
		<defs>
			<rect id="SVGID_7_" x="66.3" y="30.6" width="610.2" height="246.5"/>
		</defs>
		<clipPath id="SVGID_8_">
			<use xlink:href="#SVGID_7_"  style="overflow:visible;"/>
		</clipPath>
		<line class="st6" x1="114.5" y1="277.1" x2="114.5" y2="30.5"/>
	</g>
	<line class="st3" x1="114.5" y1="277.1" x2="114.5" y2="280.6"/>
	<path class="st4" d="M117.7,292.6l-0.7,1.9h-5.9v-0.3c1.7-1.6,2.9-2.9,3.6-3.9c0.7-1,1-1.9,1-2.7c0-0.6-0.2-1.1-0.6-1.5
		c-0.4-0.4-0.8-0.6-1.4-0.6c-0.5,0-0.9,0.1-1.3,0.4c-0.4,0.3-0.7,0.7-0.9,1.2h-0.3c0.1-0.9,0.4-1.6,0.9-2.1c0.5-0.5,1.1-0.7,1.9-0.7
		c0.8,0,1.5,0.3,2,0.8c0.5,0.5,0.8,1.1,0.8,1.8c0,0.5-0.1,1-0.3,1.5c-0.4,0.8-1,1.6-1.8,2.5c-1.2,1.3-2,2.1-2.3,2.4h2.6
		c0.5,0,0.9,0,1.1-0.1c0.2,0,0.4-0.1,0.6-0.2c0.2-0.1,0.3-0.3,0.4-0.5H117.7L117.7,292.6z"/>
	<g>
		<defs>
			<rect id="SVGID_9_" x="66.3" y="30.6" width="610.2" height="246.5"/>
		</defs>
		<clipPath id="SVGID_10_">
			<use xlink:href="#SVGID_9_"  style="overflow:visible;"/>
		</clipPath>
		<line class="st7" x1="135.1" y1="277.1" x2="135.1" y2="30.5"/>
	</g>
	<line class="st3" x1="135.1" y1="277.1" x2="135.1" y2="280.6"/>
	<path class="st4" d="M132,286.4c0.3-0.7,0.6-1.2,1.1-1.5s1-0.6,1.6-0.6c0.8,0,1.4,0.3,1.8,0.8c0.3,0.4,0.5,0.8,0.5,1.2
		c0,0.7-0.5,1.5-1.4,2.3c0.6,0.2,1.1,0.6,1.4,1c0.3,0.5,0.5,1,0.5,1.6c0,0.9-0.3,1.6-0.8,2.2c-0.7,0.8-1.7,1.2-3.1,1.2
		c-0.7,0-1.1-0.1-1.4-0.2c-0.2-0.2-0.4-0.3-0.4-0.5c0-0.1,0-0.3,0.2-0.4c0.1-0.1,0.2-0.2,0.4-0.2c0.1,0,0.2,0,0.4,0.1
		c0.1,0,0.3,0.1,0.6,0.3c0.3,0.1,0.5,0.2,0.6,0.3c0.2,0.1,0.4,0.1,0.6,0.1c0.5,0,0.9-0.2,1.3-0.6c0.4-0.4,0.6-0.8,0.6-1.4
		c0-0.4-0.1-0.8-0.3-1.1c-0.1-0.3-0.3-0.5-0.4-0.6c-0.2-0.2-0.5-0.4-0.9-0.5c-0.4-0.2-0.7-0.2-1.1-0.2h-0.2v-0.2
		c0.4,0,0.8-0.2,1.2-0.4c0.4-0.2,0.7-0.5,0.8-0.8c0.2-0.3,0.3-0.7,0.3-1.1c0-0.5-0.2-0.9-0.5-1.2c-0.3-0.3-0.7-0.5-1.2-0.5
		c-0.8,0-1.4,0.4-1.9,1.2L132,286.4L132,286.4z"/>
	<g>
		<defs>
			<rect id="SVGID_11_" x="66.3" y="30.6" width="610.2" height="246.5"/>
		</defs>
		<clipPath id="SVGID_12_">
			<use xlink:href="#SVGID_11_"  style="overflow:visible;"/>
		</clipPath>
		<line class="st8" x1="155.6" y1="277.1" x2="155.6" y2="30.5"/>
	</g>
	<line class="st3" x1="155.6" y1="277.1" x2="155.6" y2="280.6"/>
	<path class="st4" d="M158.8,290.8v1h-1.3v2.6h-1.2v-2.6h-4.2v-0.9l4.6-6.6h0.8v6.5H158.8 M156.3,290.8v-4.9l-3.5,4.9H156.3
		L156.3,290.8z"/>
	<g>
		<defs>
			<rect id="SVGID_13_" x="66.3" y="30.6" width="610.2" height="246.5"/>
		</defs>
		<clipPath id="SVGID_14_">
			<use xlink:href="#SVGID_13_"  style="overflow:visible;"/>
		</clipPath>
		<line class="st9" x1="176.2" y1="277.1" x2="176.2" y2="30.5"/>
	</g>
	<line class="st3" x1="176.2" y1="277.1" x2="176.2" y2="280.6"/>
	<path class="st4" d="M179,284.6l-0.6,1.2h-3l-0.7,1.3c1.3,0.2,2.3,0.7,3.1,1.4c0.6,0.7,1,1.4,1,2.3c0,0.5-0.1,1-0.3,1.5
		c-0.2,0.4-0.5,0.8-0.8,1.1s-0.7,0.6-1.1,0.8c-0.6,0.3-1.1,0.4-1.7,0.4c-0.6,0-1-0.1-1.3-0.3c-0.3-0.2-0.4-0.4-0.4-0.7
		c0-0.1,0-0.3,0.2-0.4c0.1-0.1,0.2-0.2,0.4-0.2c0.1,0,0.2,0,0.3,0.1c0.1,0,0.3,0.1,0.5,0.3c0.4,0.3,0.7,0.4,1.1,0.4
		c0.6,0,1.1-0.2,1.5-0.6c0.4-0.4,0.7-0.9,0.7-1.6c0-0.6-0.2-1.2-0.6-1.7c-0.4-0.5-0.9-0.9-1.6-1.2c-0.5-0.2-1.3-0.3-2.2-0.4l1.9-3.9
		H179L179,284.6z"/>
	<g>
		<defs>
			<rect id="SVGID_15_" x="66.3" y="30.6" width="610.2" height="246.5"/>
		</defs>
		<clipPath id="SVGID_16_">
			<use xlink:href="#SVGID_15_"  style="overflow:visible;"/>
		</clipPath>
		<line class="st10" x1="196.7" y1="277.1" x2="196.7" y2="30.5"/>
	</g>
	<line class="st3" x1="196.7" y1="277.1" x2="196.7" y2="280.6"/>
	<path class="st4" d="M199.6,284.3v0.3c-0.6,0.1-1.2,0.2-1.6,0.4c-0.4,0.2-0.8,0.5-1.2,0.9c-0.4,0.4-0.7,0.8-1,1.3
		c-0.3,0.5-0.5,1.1-0.6,1.7c0.7-0.5,1.4-0.7,2.1-0.7c0.7,0,1.3,0.3,1.8,0.8c0.5,0.5,0.8,1.2,0.8,2.1c0,0.8-0.3,1.6-0.8,2.3
		c-0.6,0.8-1.4,1.2-2.4,1.2c-0.7,0-1.3-0.2-1.7-0.7c-0.9-0.9-1.4-2-1.4-3.4c0-0.9,0.2-1.7,0.5-2.5c0.4-0.8,0.9-1.5,1.5-2.1
		c0.7-0.6,1.3-1,1.9-1.2s1.2-0.3,1.7-0.3H199.6 M195.1,289.5c-0.1,0.7-0.1,1.2-0.1,1.6c0,0.5,0.1,1,0.3,1.5c0.2,0.6,0.4,1,0.8,1.3
		c0.2,0.2,0.5,0.3,0.9,0.3c0.4,0,0.8-0.2,1.1-0.6c0.3-0.4,0.5-1,0.5-1.7c0-0.8-0.2-1.5-0.5-2.2c-0.3-0.6-0.8-0.9-1.4-0.9
		c-0.2,0-0.4,0-0.6,0.1C195.8,289.1,195.5,289.2,195.1,289.5L195.1,289.5z"/>
	<g>
		<defs>
			<rect id="SVGID_17_" x="66.3" y="30.6" width="610.2" height="246.5"/>
		</defs>
		<clipPath id="SVGID_18_">
			<use xlink:href="#SVGID_17_"  style="overflow:visible;"/>
		</clipPath>
		<line class="st11" x1="217.3" y1="277.1" x2="217.3" y2="30.5"/>
	</g>
	<line class="st3" x1="217.3" y1="277.1" x2="217.3" y2="280.6"/>
	<path class="st4" d="M215.1,284.6h5.3v0.3l-3.3,9.9h-0.8l3-8.9h-2.7c-0.6,0-0.9,0.1-1.2,0.2c-0.4,0.2-0.8,0.6-1,1l-0.2-0.1
		L215.1,284.6L215.1,284.6z"/>
	<g>
		<defs>
			<rect id="SVGID_19_" x="66.3" y="30.6" width="610.2" height="246.5"/>
		</defs>
		<clipPath id="SVGID_20_">
			<use xlink:href="#SVGID_19_"  style="overflow:visible;"/>
		</clipPath>
		<line class="st12" x1="237.8" y1="277.1" x2="237.8" y2="30.5"/>
	</g>
	<line class="st3" x1="237.8" y1="277.1" x2="237.8" y2="280.6"/>
	<path class="st4" d="M237.1,289.5c-0.8-0.6-1.3-1.2-1.5-1.6c-0.2-0.4-0.3-0.8-0.3-1.2c0-0.6,0.2-1.2,0.7-1.7c0.5-0.5,1.2-0.7,2-0.7
		c0.8,0,1.4,0.2,1.9,0.7c0.5,0.4,0.7,0.9,0.7,1.5c0,0.4-0.1,0.8-0.4,1.1c-0.3,0.4-0.8,0.8-1.6,1.4c0.8,0.7,1.4,1.2,1.7,1.6
		c0.4,0.5,0.6,1,0.6,1.6c0,0.7-0.3,1.3-0.8,1.8c-0.5,0.5-1.2,0.7-2.1,0.7c-1,0-1.7-0.3-2.2-0.9c-0.4-0.5-0.6-1-0.6-1.6
		c0-0.4,0.1-0.9,0.4-1.3C235.8,290.5,236.3,290,237.1,289.5 M238.2,288.7c0.6-0.5,0.9-0.9,1.1-1.2c0.1-0.3,0.2-0.6,0.2-1
		c0-0.5-0.1-0.9-0.4-1.2c-0.3-0.3-0.7-0.4-1.2-0.4c-0.5,0-0.9,0.1-1.2,0.4c-0.3,0.3-0.5,0.6-0.5,1c0,0.3,0.1,0.5,0.2,0.8
		c0.1,0.3,0.3,0.5,0.5,0.7L238.2,288.7 M237.4,289.8c-0.4,0.3-0.7,0.7-0.9,1.1c-0.2,0.4-0.3,0.8-0.3,1.3c0,0.6,0.2,1.1,0.5,1.5
		s0.8,0.6,1.3,0.6c0.5,0,0.9-0.1,1.3-0.4c0.3-0.3,0.5-0.7,0.5-1.1c0-0.3-0.1-0.7-0.3-0.9C239.1,291.3,238.5,290.6,237.4,289.8
		L237.4,289.8z"/>
	<g>
		<defs>
			<rect id="SVGID_21_" x="66.3" y="30.6" width="610.2" height="246.5"/>
		</defs>
		<clipPath id="SVGID_22_">
			<use xlink:href="#SVGID_21_"  style="overflow:visible;"/>
		</clipPath>
		<line class="st13" x1="258.4" y1="277.1" x2="258.4" y2="30.5"/>
	</g>
	<line class="st3" x1="258.4" y1="277.1" x2="258.4" y2="280.6"/>
	<path class="st4" d="M255.4,294.7v-0.3c0.6,0,1.2-0.1,1.8-0.4c0.5-0.3,1.1-0.8,1.6-1.5c0.5-0.7,0.9-1.5,1.1-2.4
		c-0.8,0.5-1.5,0.8-2.1,0.8c-0.7,0-1.3-0.3-1.8-0.8s-0.7-1.2-0.7-2.1c0-0.9,0.2-1.6,0.7-2.3c0.6-0.8,1.4-1.2,2.4-1.2
		c0.8,0,1.5,0.3,2.1,1c0.7,0.8,1.1,1.9,1.1,3.1c0,1.1-0.3,2.1-0.8,3.1c-0.5,1-1.3,1.7-2.3,2.4c-0.8,0.5-1.7,0.8-2.6,0.8H255.4
		 M259.9,289.6c0.1-0.6,0.1-1.1,0.1-1.5c0-0.5-0.1-1-0.2-1.5c-0.2-0.5-0.4-1-0.7-1.3c-0.3-0.3-0.6-0.5-1-0.5c-0.4,0-0.8,0.2-1.1,0.6
		c-0.3,0.4-0.5,1-0.5,1.7c0,1,0.2,1.8,0.7,2.4c0.3,0.4,0.7,0.6,1.2,0.6c0.2,0,0.5,0,0.8-0.1C259.4,289.9,259.7,289.8,259.9,289.6
		L259.9,289.6z"/>
	<g>
		<defs>
			<rect id="SVGID_23_" x="66.3" y="30.6" width="610.2" height="246.5"/>
		</defs>
		<clipPath id="SVGID_24_">
			<use xlink:href="#SVGID_23_"  style="overflow:visible;"/>
		</clipPath>
		<line class="st14" x1="278.9" y1="277.1" x2="278.9" y2="30.5"/>
	</g>
	<line class="st3" x1="278.9" y1="277.1" x2="278.9" y2="280.6"/>
	<path class="st4" d="M273.1,285.5l2.4-1.2h0.2v8.4c0,0.6,0,0.9,0.1,1c0,0.1,0.1,0.2,0.3,0.3c0.2,0.1,0.5,0.1,0.9,0.1v0.3h-3.7v-0.3
		c0.5,0,0.8,0,0.9-0.1c0.1-0.1,0.2-0.2,0.3-0.3s0.1-0.5,0.1-1.1v-5.4c0-0.7,0-1.2-0.1-1.4c0-0.2-0.1-0.3-0.2-0.3
		c-0.1-0.1-0.2-0.1-0.3-0.1c-0.2,0-0.4,0.1-0.8,0.2L273.1,285.5L273.1,285.5z"/>
	<path class="st4" d="M279.4,289.6c0-1.1,0.2-2.1,0.5-2.9c0.3-0.8,0.8-1.4,1.4-1.8c0.4-0.3,0.9-0.5,1.4-0.5c0.8,0,1.4,0.4,2.1,1.2
		c0.8,1,1.1,2.3,1.1,3.9c0,1.2-0.2,2.1-0.5,2.9c-0.3,0.8-0.8,1.4-1.3,1.7c-0.5,0.4-1,0.5-1.5,0.5c-1,0-1.7-0.6-2.4-1.7
		C279.6,292.1,279.4,290.9,279.4,289.6 M280.8,289.8c0,1.4,0.2,2.5,0.5,3.3c0.3,0.7,0.7,1.1,1.2,1.1c0.3,0,0.5-0.1,0.8-0.3
		c0.3-0.2,0.5-0.6,0.6-1.2c0.2-0.8,0.3-2,0.3-3.6c0-1.1-0.1-2.1-0.4-2.8c-0.2-0.6-0.4-0.9-0.7-1.2c-0.2-0.2-0.4-0.3-0.7-0.3
		c-0.3,0-0.6,0.2-0.9,0.5c-0.4,0.4-0.6,1-0.7,1.9C280.9,288.1,280.8,288.9,280.8,289.8L280.8,289.8z"/>
	<g>
		<defs>
			<rect id="SVGID_25_" x="66.3" y="30.6" width="610.2" height="246.5"/>
		</defs>
		<clipPath id="SVGID_26_">
			<use xlink:href="#SVGID_25_"  style="overflow:visible;"/>
		</clipPath>
		<line class="st15" x1="299.4" y1="277.1" x2="299.4" y2="30.5"/>
	</g>
	<line class="st3" x1="299.4" y1="277.1" x2="299.4" y2="280.6"/>
	<path class="st4" d="M294,285.5l2.4-1.2h0.2v8.4c0,0.6,0,0.9,0.1,1c0,0.1,0.1,0.2,0.3,0.3s0.5,0.1,0.9,0.1v0.3h-3.7v-0.3
		c0.5,0,0.8,0,0.9-0.1c0.1-0.1,0.2-0.2,0.3-0.3s0.1-0.5,0.1-1.1v-5.4c0-0.7,0-1.2-0.1-1.4c0-0.2-0.1-0.3-0.2-0.3
		c-0.1-0.1-0.2-0.1-0.3-0.1c-0.2,0-0.4,0.1-0.8,0.2L294,285.5L294,285.5z"/>
	<path class="st4" d="M301,285.5l2.4-1.2h0.2v8.4c0,0.6,0,0.9,0.1,1c0,0.1,0.1,0.2,0.3,0.3c0.2,0.1,0.5,0.1,0.9,0.1v0.3h-3.7v-0.3
		c0.5,0,0.8,0,0.9-0.1c0.1-0.1,0.2-0.2,0.3-0.3c0.1-0.1,0.1-0.5,0.1-1.1v-5.4c0-0.7,0-1.2-0.1-1.4c0-0.2-0.1-0.3-0.2-0.3
		c-0.1-0.1-0.2-0.1-0.3-0.1c-0.2,0-0.4,0.1-0.8,0.2L301,285.5L301,285.5z"/>
	<g>
		<defs>
			<rect id="SVGID_27_" x="66.3" y="30.6" width="610.2" height="246.5"/>
		</defs>
		<clipPath id="SVGID_28_">
			<use xlink:href="#SVGID_27_"  style="overflow:visible;"/>
		</clipPath>
		<line class="st16" x1="320" y1="277.1" x2="320" y2="30.5"/>
	</g>
	<line class="st3" x1="320" y1="277.1" x2="320" y2="280.6"/>
	<path class="st4" d="M314.2,285.5l2.4-1.2h0.2v8.4c0,0.6,0,0.9,0.1,1c0,0.1,0.1,0.2,0.3,0.3c0.2,0.1,0.5,0.1,0.9,0.1v0.3h-3.7v-0.3
		c0.5,0,0.8,0,0.9-0.1c0.1-0.1,0.2-0.2,0.3-0.3s0.1-0.5,0.1-1.1v-5.4c0-0.7,0-1.2-0.1-1.4c0-0.2-0.1-0.3-0.2-0.3
		c-0.1-0.1-0.2-0.1-0.3-0.1c-0.2,0-0.4,0.1-0.8,0.2L314.2,285.5L314.2,285.5z"/>
	<path class="st4" d="M327,292.6l-0.7,1.9h-5.9v-0.3c1.7-1.6,2.9-2.9,3.6-3.9c0.7-1,1.1-1.9,1.1-2.7c0-0.6-0.2-1.1-0.6-1.5
		c-0.4-0.4-0.8-0.6-1.4-0.6c-0.5,0-0.9,0.1-1.3,0.4c-0.4,0.3-0.7,0.7-0.9,1.2h-0.3c0.1-0.9,0.4-1.6,0.9-2.1c0.5-0.5,1.1-0.7,1.9-0.7
		c0.8,0,1.5,0.3,2,0.8c0.5,0.5,0.8,1.1,0.8,1.8c0,0.5-0.1,1-0.3,1.5c-0.4,0.8-1,1.6-1.8,2.5c-1.2,1.3-2,2.1-2.3,2.4h2.6
		c0.5,0,0.9,0,1.1-0.1c0.2,0,0.4-0.1,0.6-0.2c0.2-0.1,0.3-0.3,0.4-0.5H327L327,292.6z"/>
	<g>
		<defs>
			<rect id="SVGID_29_" x="66.3" y="30.6" width="610.2" height="246.5"/>
		</defs>
		<clipPath id="SVGID_30_">
			<use xlink:href="#SVGID_29_"  style="overflow:visible;"/>
		</clipPath>
		<line class="st17" x1="340.5" y1="277.1" x2="340.5" y2="30.5"/>
	</g>
	<line class="st3" x1="340.5" y1="277.1" x2="340.5" y2="280.6"/>
	<path class="st4" d="M334.8,285.5l2.4-1.2h0.2v8.4c0,0.6,0,0.9,0.1,1c0,0.1,0.1,0.2,0.3,0.3s0.4,0.1,0.9,0.1v0.3H335v-0.3
		c0.5,0,0.8,0,0.9-0.1c0.1-0.1,0.2-0.2,0.3-0.3c0.1-0.1,0.1-0.5,0.1-1.1v-5.4c0-0.7,0-1.2-0.1-1.4c0-0.2-0.1-0.3-0.2-0.3
		c-0.1-0.1-0.2-0.1-0.3-0.1c-0.2,0-0.4,0.1-0.8,0.2L334.8,285.5L334.8,285.5z"/>
	<path class="st4" d="M341.3,286.4c0.3-0.7,0.6-1.2,1.1-1.5s1-0.6,1.6-0.6c0.8,0,1.4,0.3,1.8,0.8c0.3,0.4,0.5,0.8,0.5,1.2
		c0,0.7-0.5,1.5-1.4,2.3c0.6,0.2,1.1,0.6,1.4,1c0.3,0.5,0.5,1,0.5,1.6c0,0.9-0.3,1.6-0.8,2.2c-0.7,0.8-1.7,1.2-3.1,1.2
		c-0.7,0-1.1-0.1-1.4-0.2c-0.2-0.2-0.4-0.3-0.4-0.5c0-0.1,0-0.3,0.2-0.4c0.1-0.1,0.2-0.2,0.4-0.2c0.1,0,0.2,0,0.4,0.1
		c0.1,0,0.3,0.1,0.6,0.3c0.3,0.1,0.5,0.2,0.6,0.3c0.2,0.1,0.4,0.1,0.6,0.1c0.5,0,0.9-0.2,1.3-0.6c0.4-0.4,0.6-0.8,0.6-1.4
		c0-0.4-0.1-0.8-0.3-1.1c-0.1-0.3-0.3-0.5-0.4-0.6c-0.2-0.2-0.5-0.4-0.9-0.5c-0.4-0.2-0.7-0.2-1.1-0.2h-0.2v-0.2
		c0.4,0,0.8-0.2,1.2-0.4c0.4-0.2,0.7-0.5,0.8-0.8c0.2-0.3,0.3-0.7,0.3-1.1c0-0.5-0.2-0.9-0.5-1.2c-0.3-0.3-0.7-0.5-1.2-0.5
		c-0.8,0-1.4,0.4-1.9,1.2L341.3,286.4L341.3,286.4z"/>
	<g>
		<defs>
			<rect id="SVGID_31_" x="66.3" y="30.6" width="610.2" height="246.5"/>
		</defs>
		<clipPath id="SVGID_32_">
			<use xlink:href="#SVGID_31_"  style="overflow:visible;"/>
		</clipPath>
		<line class="st18" x1="361.1" y1="277.1" x2="361.1" y2="30.5"/>
	</g>
	<line class="st3" x1="361.1" y1="277.1" x2="361.1" y2="280.6"/>
	<path class="st4" d="M355.2,285.5l2.4-1.2h0.2v8.4c0,0.6,0,0.9,0.1,1c0,0.1,0.1,0.2,0.3,0.3s0.5,0.1,0.9,0.1v0.3h-3.7v-0.3
		c0.5,0,0.8,0,0.9-0.1c0.1-0.1,0.2-0.2,0.3-0.3s0.1-0.5,0.1-1.1v-5.4c0-0.7,0-1.2-0.1-1.4c0-0.2-0.1-0.3-0.2-0.3
		c-0.1-0.1-0.2-0.1-0.3-0.1c-0.2,0-0.4,0.1-0.8,0.2L355.2,285.5L355.2,285.5z"/>
	<path class="st4" d="M368.1,290.8v1h-1.3v2.6h-1.2v-2.6h-4.2v-0.9l4.6-6.6h0.8v6.5H368.1 M365.6,290.8v-4.9l-3.5,4.9H365.6
		L365.6,290.8z"/>
	<g>
		<defs>
			<rect id="SVGID_33_" x="66.3" y="30.6" width="610.2" height="246.5"/>
		</defs>
		<clipPath id="SVGID_34_">
			<use xlink:href="#SVGID_33_"  style="overflow:visible;"/>
		</clipPath>
		<line class="st19" x1="381.6" y1="277.1" x2="381.6" y2="30.5"/>
	</g>
	<line class="st3" x1="381.6" y1="277.1" x2="381.6" y2="280.6"/>
	<path class="st4" d="M375.9,285.5l2.4-1.2h0.2v8.4c0,0.6,0,0.9,0.1,1c0,0.1,0.1,0.2,0.3,0.3c0.1,0.1,0.4,0.1,0.9,0.1v0.3H376v-0.3
		c0.5,0,0.8,0,0.9-0.1c0.1-0.1,0.2-0.2,0.3-0.3s0.1-0.5,0.1-1.1v-5.4c0-0.7,0-1.2-0.1-1.4c0-0.2-0.1-0.3-0.2-0.3
		c-0.1-0.1-0.2-0.1-0.3-0.1c-0.2,0-0.4,0.1-0.8,0.2L375.9,285.5L375.9,285.5z"/>
	<path class="st4" d="M388.1,284.6l-0.6,1.2h-3l-0.7,1.3c1.3,0.2,2.3,0.7,3.1,1.4c0.6,0.7,1,1.4,1,2.3c0,0.5-0.1,1-0.3,1.5
		s-0.5,0.8-0.8,1.1c-0.3,0.3-0.7,0.6-1.1,0.8c-0.6,0.3-1.1,0.4-1.7,0.4c-0.6,0-1-0.1-1.3-0.3s-0.4-0.4-0.4-0.7c0-0.1,0-0.3,0.2-0.4
		c0.1-0.1,0.2-0.2,0.4-0.2c0.1,0,0.2,0,0.3,0.1c0.1,0,0.3,0.1,0.5,0.3c0.4,0.3,0.7,0.4,1.1,0.4c0.6,0,1.1-0.2,1.5-0.6
		c0.4-0.4,0.7-0.9,0.7-1.6c0-0.6-0.2-1.2-0.6-1.7c-0.4-0.5-0.9-0.9-1.6-1.2c-0.5-0.2-1.3-0.3-2.2-0.4l1.9-3.9H388.1L388.1,284.6z"/>
	<g>
		<defs>
			<rect id="SVGID_35_" x="66.3" y="30.6" width="610.2" height="246.5"/>
		</defs>
		<clipPath id="SVGID_36_">
			<use xlink:href="#SVGID_35_"  style="overflow:visible;"/>
		</clipPath>
		<line class="st20" x1="402.2" y1="277.1" x2="402.2" y2="30.5"/>
	</g>
	<line class="st3" x1="402.2" y1="277.1" x2="402.2" y2="280.6"/>
	<path class="st4" d="M396.5,285.5l2.4-1.2h0.2v8.4c0,0.6,0,0.9,0.1,1c0,0.1,0.1,0.2,0.3,0.3s0.5,0.1,0.9,0.1v0.3h-3.7v-0.3
		c0.5,0,0.8,0,0.9-0.1c0.1-0.1,0.2-0.2,0.3-0.3s0.1-0.5,0.1-1.1v-5.4c0-0.7,0-1.2-0.1-1.4c0-0.2-0.1-0.3-0.2-0.3
		c-0.1-0.1-0.2-0.1-0.3-0.1c-0.2,0-0.4,0.1-0.8,0.2L396.5,285.5L396.5,285.5z"/>
	<path class="st4" d="M408.9,284.3v0.3c-0.6,0.1-1.2,0.2-1.6,0.4c-0.4,0.2-0.8,0.5-1.2,0.9c-0.4,0.4-0.7,0.8-1,1.3
		c-0.3,0.5-0.5,1.1-0.6,1.7c0.7-0.5,1.4-0.7,2.1-0.7c0.7,0,1.3,0.3,1.8,0.8c0.5,0.5,0.8,1.2,0.8,2.1c0,0.8-0.3,1.6-0.8,2.3
		c-0.6,0.8-1.4,1.2-2.4,1.2c-0.7,0-1.3-0.2-1.7-0.7c-0.9-0.9-1.4-2-1.4-3.4c0-0.9,0.2-1.7,0.5-2.5c0.4-0.8,0.9-1.5,1.5-2.1
		c0.7-0.6,1.3-1,1.9-1.2s1.2-0.3,1.7-0.3H408.9 M404.4,289.5c-0.1,0.7-0.1,1.2-0.1,1.6c0,0.5,0.1,1,0.3,1.5c0.2,0.6,0.4,1,0.8,1.3
		c0.2,0.2,0.5,0.3,0.9,0.3c0.4,0,0.8-0.2,1.1-0.6c0.3-0.4,0.5-1,0.5-1.7c0-0.8-0.2-1.5-0.5-2.2c-0.3-0.6-0.8-0.9-1.4-0.9
		c-0.2,0-0.4,0-0.6,0.1C405.1,289.1,404.8,289.2,404.4,289.5L404.4,289.5z"/>
	<g>
		<defs>
			<rect id="SVGID_37_" x="66.3" y="30.6" width="610.2" height="246.5"/>
		</defs>
		<clipPath id="SVGID_38_">
			<use xlink:href="#SVGID_37_"  style="overflow:visible;"/>
		</clipPath>
		<line class="st21" x1="422.7" y1="277.1" x2="422.7" y2="30.5"/>
	</g>
	<line class="st3" x1="422.7" y1="277.1" x2="422.7" y2="280.6"/>
	<path class="st4" d="M416.9,285.5l2.4-1.2h0.2v8.4c0,0.6,0,0.9,0.1,1c0,0.1,0.1,0.2,0.3,0.3s0.5,0.1,0.9,0.1v0.3h-3.7v-0.3
		c0.5,0,0.8,0,0.9-0.1c0.1-0.1,0.2-0.2,0.3-0.3s0.1-0.5,0.1-1.1v-5.4c0-0.7,0-1.2-0.1-1.4c0-0.2-0.1-0.3-0.2-0.3
		c-0.1-0.1-0.2-0.1-0.3-0.1c-0.2,0-0.4,0.1-0.8,0.2L416.9,285.5L416.9,285.5z"/>
	<path class="st4" d="M424.3,284.6h5.3v0.3l-3.3,9.9h-0.8l3-8.9h-2.7c-0.6,0-0.9,0.1-1.2,0.2c-0.4,0.2-0.8,0.6-1,1l-0.2-0.1
		L424.3,284.6L424.3,284.6z"/>
	<g>
		<defs>
			<rect id="SVGID_39_" x="66.3" y="30.6" width="610.2" height="246.5"/>
		</defs>
		<clipPath id="SVGID_40_">
			<use xlink:href="#SVGID_39_"  style="overflow:visible;"/>
		</clipPath>
		<line class="st22" x1="443.3" y1="277.1" x2="443.3" y2="30.5"/>
	</g>
	<line class="st3" x1="443.3" y1="277.1" x2="443.3" y2="280.6"/>
	<path class="st4" d="M437.5,285.5l2.4-1.2h0.2v8.4c0,0.6,0,0.9,0.1,1c0,0.1,0.1,0.2,0.3,0.3s0.4,0.1,0.9,0.1v0.3h-3.7v-0.3
		c0.5,0,0.8,0,0.9-0.1c0.1-0.1,0.2-0.2,0.3-0.3s0.1-0.5,0.1-1.1v-5.4c0-0.7,0-1.2-0.1-1.4c0-0.2-0.1-0.3-0.2-0.3
		c-0.1-0.1-0.2-0.1-0.3-0.1c-0.2,0-0.4,0.1-0.8,0.2L437.5,285.5L437.5,285.5z"/>
	<path class="st4" d="M446.1,289.5c-0.8-0.6-1.3-1.2-1.5-1.6c-0.2-0.4-0.3-0.8-0.3-1.2c0-0.6,0.2-1.2,0.7-1.7c0.5-0.5,1.2-0.7,2-0.7
		c0.8,0,1.4,0.2,1.9,0.7c0.5,0.4,0.7,0.9,0.7,1.5c0,0.4-0.1,0.8-0.4,1.1c-0.3,0.4-0.8,0.8-1.6,1.4c0.8,0.7,1.4,1.2,1.7,1.6
		c0.4,0.5,0.6,1,0.6,1.6c0,0.7-0.3,1.3-0.8,1.8c-0.5,0.5-1.2,0.7-2.1,0.7c-1,0-1.7-0.3-2.2-0.9c-0.4-0.5-0.6-1-0.6-1.6
		c0-0.4,0.1-0.9,0.4-1.3C444.9,290.5,445.4,290,446.1,289.5 M447.3,288.7c0.6-0.5,0.9-0.9,1.1-1.2c0.1-0.3,0.2-0.6,0.2-1
		c0-0.5-0.2-0.9-0.4-1.2c-0.3-0.3-0.7-0.4-1.2-0.4c-0.5,0-0.9,0.1-1.2,0.4c-0.3,0.3-0.5,0.6-0.5,1c0,0.3,0.1,0.5,0.2,0.8
		c0.1,0.3,0.3,0.5,0.5,0.7L447.3,288.7 M446.4,289.8c-0.4,0.3-0.7,0.7-0.9,1.1c-0.2,0.4-0.3,0.8-0.3,1.3c0,0.6,0.2,1.1,0.5,1.5
		s0.8,0.6,1.3,0.6c0.5,0,0.9-0.1,1.3-0.4c0.3-0.3,0.5-0.7,0.5-1.1c0-0.3-0.1-0.7-0.3-0.9C448.2,291.3,447.5,290.6,446.4,289.8
		L446.4,289.8z"/>
	<g>
		<defs>
			<rect id="SVGID_41_" x="66.3" y="30.6" width="610.2" height="246.5"/>
		</defs>
		<clipPath id="SVGID_42_">
			<use xlink:href="#SVGID_41_"  style="overflow:visible;"/>
		</clipPath>
		<line class="st23" x1="463.8" y1="277.1" x2="463.8" y2="30.5"/>
	</g>
	<line class="st3" x1="463.8" y1="277.1" x2="463.8" y2="280.6"/>
	<path class="st4" d="M458.2,285.5l2.4-1.2h0.2v8.4c0,0.6,0,0.9,0.1,1c0,0.1,0.1,0.2,0.3,0.3c0.2,0.1,0.5,0.1,0.9,0.1v0.3h-3.7v-0.3
		c0.5,0,0.8,0,0.9-0.1c0.1-0.1,0.2-0.2,0.3-0.3s0.1-0.5,0.1-1.1v-5.4c0-0.7,0-1.2-0.1-1.4c0-0.2-0.1-0.3-0.2-0.3
		c-0.1-0.1-0.2-0.1-0.3-0.1c-0.2,0-0.4,0.1-0.8,0.2L458.2,285.5L458.2,285.5z"/>
	<path class="st4" d="M464.7,294.7v-0.3c0.6,0,1.2-0.1,1.8-0.4c0.5-0.3,1.1-0.8,1.6-1.5c0.5-0.7,0.9-1.5,1.1-2.4
		c-0.8,0.5-1.5,0.8-2.1,0.8c-0.7,0-1.3-0.3-1.8-0.8s-0.7-1.2-0.7-2.1c0-0.9,0.2-1.6,0.7-2.3c0.6-0.8,1.4-1.2,2.4-1.2
		c0.8,0,1.5,0.3,2.1,1c0.7,0.8,1.1,1.9,1.1,3.1c0,1.1-0.3,2.1-0.8,3.1c-0.5,1-1.3,1.7-2.3,2.4c-0.8,0.5-1.6,0.8-2.6,0.8H464.7
		 M469.2,289.6c0.1-0.6,0.1-1.1,0.1-1.5c0-0.5-0.1-1-0.2-1.5c-0.2-0.5-0.4-1-0.7-1.3s-0.6-0.5-1-0.5c-0.4,0-0.8,0.2-1.1,0.6
		c-0.3,0.4-0.5,1-0.5,1.7c0,1,0.2,1.8,0.7,2.4c0.3,0.4,0.7,0.6,1.2,0.6c0.2,0,0.5,0,0.8-0.1C468.7,289.9,468.9,289.8,469.2,289.6
		L469.2,289.6z"/>
	<g>
		<defs>
			<rect id="SVGID_43_" x="66.3" y="30.6" width="610.2" height="246.5"/>
		</defs>
		<clipPath id="SVGID_44_">
			<use xlink:href="#SVGID_43_"  style="overflow:visible;"/>
		</clipPath>
		<line class="st24" x1="484.3" y1="277.1" x2="484.3" y2="30.5"/>
	</g>
	<line class="st3" x1="484.3" y1="277.1" x2="484.3" y2="280.6"/>
	<path class="st4" d="M483.7,292.6l-0.7,1.9h-5.9v-0.3c1.7-1.6,2.9-2.9,3.6-3.9c0.7-1,1-1.9,1-2.7c0-0.6-0.2-1.1-0.6-1.5
		c-0.4-0.4-0.8-0.6-1.4-0.6c-0.5,0-0.9,0.1-1.3,0.4c-0.4,0.3-0.7,0.7-0.9,1.2h-0.3c0.1-0.9,0.4-1.6,0.9-2.1c0.5-0.5,1.1-0.7,1.9-0.7
		c0.8,0,1.5,0.3,2,0.8c0.5,0.5,0.8,1.1,0.8,1.8c0,0.5-0.1,1-0.3,1.5c-0.4,0.8-1,1.6-1.8,2.5c-1.2,1.3-2,2.1-2.3,2.4h2.6
		c0.5,0,0.9,0,1.1-0.1c0.2,0,0.4-0.1,0.6-0.2c0.2-0.1,0.3-0.3,0.4-0.5H483.7L483.7,292.6z"/>
	<path class="st4" d="M484.8,289.6c0-1.1,0.2-2.1,0.5-2.9c0.3-0.8,0.8-1.4,1.4-1.8c0.4-0.3,0.9-0.5,1.4-0.5c0.8,0,1.4,0.4,2.1,1.2
		c0.8,1,1.1,2.3,1.1,3.9c0,1.2-0.2,2.1-0.5,2.9c-0.3,0.8-0.8,1.4-1.3,1.7c-0.5,0.4-1,0.5-1.5,0.5c-1,0-1.7-0.6-2.4-1.7
		C485.1,292.1,484.8,290.9,484.8,289.6 M486.2,289.8c0,1.4,0.2,2.5,0.5,3.3c0.3,0.7,0.7,1.1,1.2,1.1c0.3,0,0.5-0.1,0.8-0.3
		c0.3-0.2,0.5-0.6,0.6-1.2c0.2-0.8,0.3-2,0.3-3.6c0-1.1-0.1-2.1-0.4-2.8c-0.2-0.6-0.4-0.9-0.7-1.2c-0.2-0.2-0.5-0.3-0.7-0.3
		c-0.3,0-0.6,0.2-0.9,0.5c-0.4,0.4-0.6,1-0.7,1.9C486.3,288.1,486.2,288.9,486.2,289.8L486.2,289.8z"/>
	<g>
		<defs>
			<rect id="SVGID_45_" x="66.3" y="30.6" width="610.2" height="246.5"/>
		</defs>
		<clipPath id="SVGID_46_">
			<use xlink:href="#SVGID_45_"  style="overflow:visible;"/>
		</clipPath>
		<line class="st25" x1="504.9" y1="277.1" x2="504.9" y2="30.5"/>
	</g>
	<line class="st3" x1="504.9" y1="277.1" x2="504.9" y2="280.6"/>
	<path class="st4" d="M504.3,292.6l-0.7,1.9h-5.9v-0.3c1.7-1.6,2.9-2.9,3.6-3.9c0.7-1,1.1-1.9,1.1-2.7c0-0.6-0.2-1.1-0.6-1.5
		c-0.4-0.4-0.8-0.6-1.4-0.6c-0.5,0-0.9,0.1-1.3,0.4c-0.4,0.3-0.7,0.7-0.9,1.2h-0.3c0.1-0.9,0.4-1.6,0.9-2.1c0.5-0.5,1.1-0.7,1.9-0.7
		c0.8,0,1.5,0.3,2,0.8c0.5,0.5,0.8,1.1,0.8,1.8c0,0.5-0.1,1-0.3,1.5c-0.4,0.8-1,1.6-1.8,2.5c-1.2,1.3-2,2.1-2.3,2.4h2.6
		c0.5,0,0.9,0,1.1-0.1c0.2,0,0.4-0.1,0.6-0.2c0.2-0.1,0.3-0.3,0.4-0.5H504.3L504.3,292.6z"/>
	<path class="st4" d="M506.7,285.5l2.4-1.2h0.2v8.4c0,0.6,0,0.9,0.1,1c0,0.1,0.1,0.2,0.3,0.3s0.4,0.1,0.9,0.1v0.3h-3.7v-0.3
		c0.5,0,0.8,0,0.9-0.1c0.1-0.1,0.2-0.2,0.3-0.3s0.1-0.5,0.1-1.1v-5.4c0-0.7,0-1.2-0.1-1.4c0-0.2-0.1-0.3-0.2-0.3
		c-0.1-0.1-0.2-0.1-0.3-0.1c-0.2,0-0.4,0.1-0.8,0.2L506.7,285.5L506.7,285.5z"/>
	<g>
		<defs>
			<rect id="SVGID_47_" x="66.3" y="30.6" width="610.2" height="246.5"/>
		</defs>
		<clipPath id="SVGID_48_">
			<use xlink:href="#SVGID_47_"  style="overflow:visible;"/>
		</clipPath>
		<line class="st26" x1="525.4" y1="277.1" x2="525.4" y2="30.5"/>
	</g>
	<line class="st3" x1="525.4" y1="277.1" x2="525.4" y2="280.6"/>
	<path class="st4" d="M524.7,292.6l-0.7,1.9h-5.9v-0.3c1.7-1.6,2.9-2.9,3.6-3.9c0.7-1,1-1.9,1-2.7c0-0.6-0.2-1.1-0.6-1.5
		s-0.8-0.6-1.4-0.6c-0.5,0-0.9,0.1-1.3,0.4c-0.4,0.3-0.7,0.7-0.9,1.2h-0.3c0.1-0.9,0.4-1.6,0.9-2.1c0.5-0.5,1.1-0.7,1.9-0.7
		c0.8,0,1.5,0.3,2,0.8c0.5,0.5,0.8,1.1,0.8,1.8c0,0.5-0.1,1-0.3,1.5c-0.4,0.8-1,1.6-1.8,2.5c-1.2,1.3-2,2.1-2.3,2.4h2.6
		c0.5,0,0.9,0,1.1-0.1c0.2,0,0.4-0.1,0.6-0.2c0.2-0.1,0.3-0.3,0.4-0.5H524.7L524.7,292.6z"/>
	<path class="st4" d="M532.4,292.6l-0.7,1.9h-5.9v-0.3c1.7-1.6,2.9-2.9,3.6-3.9c0.7-1,1.1-1.9,1.1-2.7c0-0.6-0.2-1.1-0.6-1.5
		c-0.4-0.4-0.8-0.6-1.4-0.6c-0.5,0-0.9,0.1-1.3,0.4s-0.7,0.7-0.9,1.2h-0.3c0.1-0.9,0.4-1.6,0.9-2.1c0.5-0.5,1.1-0.7,1.9-0.7
		c0.8,0,1.5,0.3,2,0.8c0.5,0.5,0.8,1.1,0.8,1.8c0,0.5-0.1,1-0.3,1.5c-0.4,0.8-1,1.6-1.8,2.5c-1.2,1.3-2,2.1-2.3,2.4h2.6
		c0.5,0,0.9,0,1.1-0.1c0.2,0,0.4-0.1,0.6-0.2c0.2-0.1,0.3-0.3,0.4-0.5H532.4L532.4,292.6z"/>
	<g>
		<defs>
			<rect id="SVGID_49_" x="66.3" y="30.6" width="610.2" height="246.5"/>
		</defs>
		<clipPath id="SVGID_50_">
			<use xlink:href="#SVGID_49_"  style="overflow:visible;"/>
		</clipPath>
		<line class="st27" x1="546" y1="277.1" x2="546" y2="30.5"/>
	</g>
	<line class="st3" x1="546" y1="277.1" x2="546" y2="280.6"/>
	<path class="st4" d="M545.4,292.6l-0.7,1.9h-5.9v-0.3c1.7-1.6,2.9-2.9,3.6-3.9c0.7-1,1-1.9,1-2.7c0-0.6-0.2-1.1-0.6-1.5
		s-0.8-0.6-1.4-0.6c-0.5,0-0.9,0.1-1.3,0.4s-0.7,0.7-0.9,1.2h-0.3c0.1-0.9,0.4-1.6,0.9-2.1c0.5-0.5,1.1-0.7,1.9-0.7
		c0.8,0,1.5,0.3,2,0.8c0.5,0.5,0.8,1.1,0.8,1.8c0,0.5-0.1,1-0.3,1.5c-0.4,0.8-1,1.6-1.8,2.5c-1.2,1.3-2,2.1-2.3,2.4h2.6
		c0.5,0,0.9,0,1.1-0.1c0.2,0,0.4-0.1,0.6-0.2c0.2-0.1,0.3-0.3,0.4-0.5H545.4L545.4,292.6z"/>
	<path class="st4" d="M546.7,286.4c0.3-0.7,0.6-1.2,1.1-1.5c0.4-0.4,1-0.6,1.6-0.6c0.8,0,1.4,0.3,1.8,0.8c0.3,0.4,0.5,0.8,0.5,1.2
		c0,0.7-0.5,1.5-1.4,2.3c0.6,0.2,1.1,0.6,1.4,1c0.3,0.5,0.5,1,0.5,1.6c0,0.9-0.3,1.6-0.8,2.2c-0.7,0.8-1.7,1.2-3.1,1.2
		c-0.7,0-1.1-0.1-1.4-0.2c-0.2-0.2-0.4-0.3-0.4-0.5c0-0.1,0-0.3,0.2-0.4c0.1-0.1,0.2-0.2,0.4-0.2c0.1,0,0.2,0,0.4,0.1
		c0.1,0,0.3,0.1,0.6,0.3c0.3,0.1,0.5,0.2,0.6,0.3c0.2,0.1,0.4,0.1,0.6,0.1c0.5,0,0.9-0.2,1.3-0.6c0.4-0.4,0.6-0.8,0.6-1.4
		c0-0.4-0.1-0.8-0.3-1.1c-0.1-0.3-0.3-0.5-0.4-0.6c-0.2-0.2-0.5-0.4-0.9-0.5c-0.4-0.2-0.7-0.2-1.1-0.2h-0.2v-0.2
		c0.4,0,0.8-0.2,1.2-0.4c0.4-0.2,0.7-0.5,0.8-0.8c0.2-0.3,0.3-0.7,0.3-1.1c0-0.5-0.2-0.9-0.5-1.2c-0.3-0.3-0.7-0.5-1.2-0.5
		c-0.8,0-1.4,0.4-1.9,1.2L546.7,286.4L546.7,286.4z"/>
	<g>
		<defs>
			<rect id="SVGID_51_" x="66.3" y="30.6" width="610.2" height="246.5"/>
		</defs>
		<clipPath id="SVGID_52_">
			<use xlink:href="#SVGID_51_"  style="overflow:visible;"/>
		</clipPath>
		<line class="st28" x1="566.5" y1="277.1" x2="566.5" y2="30.5"/>
	</g>
	<line class="st3" x1="566.5" y1="277.1" x2="566.5" y2="280.6"/>
	<path class="st4" d="M566,292.6l-0.7,1.9h-5.9v-0.3c1.7-1.6,2.9-2.9,3.6-3.9c0.7-1,1-1.9,1-2.7c0-0.6-0.2-1.1-0.6-1.5
		s-0.8-0.6-1.4-0.6c-0.5,0-0.9,0.1-1.3,0.4c-0.4,0.3-0.7,0.7-0.9,1.2h-0.3c0.1-0.9,0.4-1.6,0.9-2.1c0.5-0.5,1.1-0.7,1.9-0.7
		c0.8,0,1.5,0.3,2,0.8c0.5,0.5,0.8,1.1,0.8,1.8c0,0.5-0.1,1-0.3,1.5c-0.4,0.8-1,1.6-1.8,2.5c-1.2,1.3-2,2.1-2.3,2.4h2.6
		c0.5,0,0.9,0,1.1-0.1c0.2,0,0.4-0.1,0.6-0.2c0.2-0.1,0.3-0.3,0.4-0.5H566L566,292.6z"/>
	<path class="st4" d="M573.6,290.8v1h-1.3v2.6H571v-2.6h-4.2v-0.9l4.6-6.6h0.8v6.5H573.6 M571,290.8v-4.9l-3.5,4.9H571L571,290.8z"
		/>
	<g>
		<defs>
			<rect id="SVGID_53_" x="66.3" y="30.6" width="610.2" height="246.5"/>
		</defs>
		<clipPath id="SVGID_54_">
			<use xlink:href="#SVGID_53_"  style="overflow:visible;"/>
		</clipPath>
		<line class="st29" x1="587.1" y1="277.1" x2="587.1" y2="30.5"/>
	</g>
	<line class="st3" x1="587.1" y1="277.1" x2="587.1" y2="280.6"/>
	<path class="st4" d="M586.4,292.6l-0.7,1.9h-5.9v-0.3c1.7-1.6,2.9-2.9,3.6-3.9c0.7-1,1.1-1.9,1.1-2.7c0-0.6-0.2-1.1-0.6-1.5
		s-0.8-0.6-1.4-0.6c-0.5,0-0.9,0.1-1.3,0.4s-0.7,0.7-0.9,1.2h-0.3c0.1-0.9,0.4-1.6,0.9-2.1c0.5-0.5,1.1-0.7,1.9-0.7
		c0.8,0,1.5,0.3,2,0.8c0.5,0.5,0.8,1.1,0.8,1.8c0,0.5-0.1,1-0.3,1.5c-0.4,0.8-1,1.6-1.8,2.5c-1.2,1.3-2,2.1-2.3,2.4h2.6
		c0.5,0,0.9,0,1.1-0.1c0.2,0,0.4-0.1,0.6-0.2c0.2-0.1,0.3-0.3,0.4-0.5H586.4L586.4,292.6z"/>
	<path class="st4" d="M593.5,284.6l-0.6,1.2h-3l-0.7,1.3c1.3,0.2,2.3,0.7,3.1,1.4c0.6,0.7,1,1.4,1,2.3c0,0.5-0.1,1-0.3,1.5
		c-0.2,0.4-0.5,0.8-0.8,1.1s-0.7,0.6-1.1,0.8c-0.6,0.3-1.1,0.4-1.7,0.4c-0.6,0-1-0.1-1.3-0.3c-0.3-0.2-0.4-0.4-0.4-0.7
		c0-0.1,0-0.3,0.2-0.4c0.1-0.1,0.2-0.2,0.4-0.2c0.1,0,0.2,0,0.3,0.1c0.1,0,0.3,0.1,0.5,0.3c0.4,0.3,0.7,0.4,1.1,0.4
		c0.6,0,1.1-0.2,1.5-0.6c0.4-0.4,0.7-0.9,0.7-1.6c0-0.6-0.2-1.2-0.6-1.7c-0.4-0.5-0.9-0.9-1.6-1.2c-0.5-0.2-1.3-0.3-2.2-0.4l1.9-3.9
		H593.5L593.5,284.6z"/>
	<g>
		<defs>
			<rect id="SVGID_55_" x="66.3" y="30.6" width="610.2" height="246.5"/>
		</defs>
		<clipPath id="SVGID_56_">
			<use xlink:href="#SVGID_55_"  style="overflow:visible;"/>
		</clipPath>
		<line class="st30" x1="607.6" y1="277.1" x2="607.6" y2="30.5"/>
	</g>
	<line class="st3" x1="607.6" y1="277.1" x2="607.6" y2="280.6"/>
	<path class="st4" d="M607.1,292.6l-0.7,1.9h-5.9v-0.3c1.7-1.6,2.9-2.9,3.6-3.9c0.7-1,1.1-1.9,1.1-2.7c0-0.6-0.2-1.1-0.6-1.5
		s-0.8-0.6-1.4-0.6c-0.5,0-0.9,0.1-1.3,0.4s-0.7,0.7-0.9,1.2h-0.3c0.1-0.9,0.4-1.6,0.9-2.1c0.5-0.5,1.1-0.7,1.9-0.7
		c0.8,0,1.5,0.3,2,0.8c0.5,0.5,0.8,1.1,0.8,1.8c0,0.5-0.1,1-0.3,1.5c-0.4,0.8-1,1.6-1.8,2.5c-1.2,1.3-2,2.1-2.3,2.4h2.6
		c0.5,0,0.9,0,1.1-0.1c0.2,0,0.4-0.1,0.6-0.2c0.2-0.1,0.3-0.3,0.4-0.5H607.1L607.1,292.6z"/>
	<path class="st4" d="M614.3,284.3v0.3c-0.6,0.1-1.2,0.2-1.6,0.4c-0.4,0.2-0.8,0.5-1.2,0.9c-0.4,0.4-0.7,0.8-1,1.3
		c-0.3,0.5-0.5,1.1-0.6,1.7c0.7-0.5,1.4-0.7,2.1-0.7c0.7,0,1.3,0.3,1.8,0.8c0.5,0.5,0.8,1.2,0.8,2.1c0,0.8-0.3,1.6-0.8,2.3
		c-0.6,0.8-1.4,1.2-2.4,1.2c-0.7,0-1.3-0.2-1.7-0.7c-0.9-0.9-1.4-2-1.4-3.4c0-0.9,0.2-1.7,0.5-2.5c0.4-0.8,0.9-1.5,1.5-2.1
		c0.7-0.6,1.3-1,1.9-1.2c0.6-0.2,1.2-0.3,1.7-0.3H614.3 M609.8,289.5c-0.1,0.7-0.1,1.2-0.1,1.6c0,0.5,0.1,1,0.3,1.5
		c0.2,0.6,0.4,1,0.8,1.3c0.2,0.2,0.5,0.3,0.9,0.3c0.4,0,0.8-0.2,1.1-0.6c0.3-0.4,0.5-1,0.5-1.7c0-0.8-0.2-1.5-0.5-2.2
		c-0.3-0.6-0.8-0.9-1.4-0.9c-0.2,0-0.4,0-0.6,0.1C610.5,289.1,610.2,289.2,609.8,289.5L609.8,289.5z"/>
	<g>
		<defs>
			<rect id="SVGID_57_" x="66.3" y="30.6" width="610.2" height="246.5"/>
		</defs>
		<clipPath id="SVGID_58_">
			<use xlink:href="#SVGID_57_"  style="overflow:visible;"/>
		</clipPath>
		<line class="st31" x1="628.2" y1="277.1" x2="628.2" y2="30.5"/>
	</g>
	<line class="st3" x1="628.2" y1="277.1" x2="628.2" y2="280.6"/>
	<path class="st4" d="M627.5,292.6l-0.7,1.9h-5.9v-0.3c1.7-1.6,2.9-2.9,3.6-3.9c0.7-1,1.1-1.9,1.1-2.7c0-0.6-0.2-1.1-0.6-1.5
		c-0.4-0.4-0.8-0.6-1.4-0.6c-0.5,0-0.9,0.1-1.3,0.4s-0.7,0.7-0.9,1.2h-0.3c0.1-0.9,0.4-1.6,0.9-2.1c0.5-0.5,1.1-0.7,1.9-0.7
		c0.8,0,1.5,0.3,2,0.8c0.5,0.5,0.8,1.1,0.8,1.8c0,0.5-0.1,1-0.3,1.5c-0.4,0.8-1,1.6-1.8,2.5c-1.2,1.3-2,2.1-2.3,2.4h2.6
		c0.5,0,0.9,0,1.1-0.1c0.2,0,0.4-0.1,0.6-0.2c0.2-0.1,0.3-0.3,0.4-0.5H627.5L627.5,292.6z"/>
	<path class="st4" d="M629.8,284.6h5.3v0.3l-3.3,9.9H631l3-8.9h-2.7c-0.6,0-0.9,0.1-1.2,0.2c-0.4,0.2-0.8,0.6-1,1l-0.2-0.1
		L629.8,284.6L629.8,284.6z"/>
	<g>
		<defs>
			<rect id="SVGID_59_" x="66.3" y="30.6" width="610.2" height="246.5"/>
		</defs>
		<clipPath id="SVGID_60_">
			<use xlink:href="#SVGID_59_"  style="overflow:visible;"/>
		</clipPath>
		<line class="st32" x1="648.7" y1="277.1" x2="648.7" y2="30.5"/>
	</g>
	<line class="st3" x1="648.7" y1="277.1" x2="648.7" y2="280.6"/>
	<path class="st4" d="M648.1,292.6l-0.7,1.9h-5.9v-0.3c1.7-1.6,2.9-2.9,3.6-3.9c0.7-1,1.1-1.9,1.1-2.7c0-0.6-0.2-1.1-0.6-1.5
		c-0.4-0.4-0.8-0.6-1.4-0.6c-0.5,0-0.9,0.1-1.3,0.4s-0.7,0.7-0.9,1.2h-0.3c0.1-0.9,0.4-1.6,0.9-2.1c0.5-0.5,1.1-0.7,1.9-0.7
		c0.8,0,1.5,0.3,2,0.8c0.5,0.5,0.8,1.1,0.8,1.8c0,0.5-0.1,1-0.3,1.5c-0.4,0.8-1,1.6-1.8,2.5c-1.2,1.3-2,2.1-2.3,2.4h2.6
		c0.5,0,0.9,0,1.1-0.1c0.2,0,0.4-0.1,0.6-0.2c0.2-0.1,0.3-0.3,0.4-0.5H648.1L648.1,292.6z"/>
	<path class="st4" d="M651.5,289.5c-0.8-0.6-1.3-1.2-1.5-1.6c-0.2-0.4-0.3-0.8-0.3-1.2c0-0.6,0.2-1.2,0.7-1.7s1.2-0.7,2-0.7
		c0.8,0,1.4,0.2,1.9,0.7c0.5,0.4,0.7,0.9,0.7,1.5c0,0.4-0.1,0.8-0.4,1.1c-0.3,0.4-0.8,0.8-1.6,1.4c0.8,0.7,1.4,1.2,1.7,1.6
		c0.4,0.5,0.6,1,0.6,1.6c0,0.7-0.3,1.3-0.8,1.8c-0.5,0.5-1.2,0.7-2.1,0.7c-1,0-1.7-0.3-2.2-0.9c-0.4-0.5-0.6-1-0.6-1.6
		c0-0.4,0.1-0.9,0.4-1.3C650.3,290.5,650.8,290,651.5,289.5 M652.7,288.7c0.6-0.5,0.9-0.9,1.1-1.2c0.2-0.3,0.2-0.6,0.2-1
		c0-0.5-0.1-0.9-0.4-1.2c-0.3-0.3-0.7-0.4-1.2-0.4c-0.5,0-0.9,0.1-1.2,0.4c-0.3,0.3-0.5,0.6-0.5,1c0,0.3,0.1,0.5,0.2,0.8
		c0.1,0.3,0.3,0.5,0.5,0.7L652.7,288.7 M651.9,289.8c-0.4,0.3-0.7,0.7-0.9,1.1c-0.2,0.4-0.3,0.8-0.3,1.3c0,0.6,0.2,1.1,0.5,1.5
		s0.8,0.6,1.3,0.6c0.5,0,0.9-0.1,1.3-0.4c0.3-0.3,0.5-0.7,0.5-1.1c0-0.3-0.1-0.7-0.3-0.9C653.6,291.3,652.9,290.6,651.9,289.8
		L651.9,289.8z"/>
	<path class="st4" d="M202.9,303.2v6.2h2.9c0.7,0,1.2-0.1,1.5-0.4c0.3-0.3,0.5-0.9,0.6-1.8h0.4v5.4h-0.4c0-0.6-0.1-1.1-0.3-1.4
		c-0.1-0.3-0.4-0.5-0.6-0.6c-0.3-0.1-0.7-0.2-1.2-0.2h-2.9v5c0,0.8,0,1.3,0.1,1.6c0.1,0.2,0.2,0.4,0.5,0.5c0.3,0.2,0.7,0.3,1.1,0.3
		h0.6v0.4h-6.8v-0.4h0.6c0.6,0,1.1-0.2,1.4-0.6c0.2-0.2,0.3-0.8,0.3-1.8v-10.3c0-0.8-0.1-1.3-0.2-1.6c-0.1-0.2-0.2-0.4-0.5-0.5
		c-0.3-0.2-0.7-0.3-1.1-0.3h-0.6v-0.4h11.8l0.1,3.5h-0.4c-0.2-0.7-0.5-1.3-0.7-1.6c-0.3-0.3-0.6-0.6-1-0.8c-0.4-0.1-1-0.2-1.8-0.2
		H202.9L202.9,303.2z"/>
	<path class="st4" d="M213.9,311.5c0,1.6,0.4,2.9,1.2,3.7c0.8,0.9,1.7,1.4,2.8,1.4c0.7,0,1.3-0.2,1.8-0.6c0.5-0.4,1-1,1.3-2l0.4,0.2
		c-0.2,1.1-0.7,2.1-1.4,2.9c-0.8,0.9-1.8,1.3-3,1.3c-1.3,0-2.4-0.5-3.3-1.5c-0.9-1-1.4-2.4-1.4-4.1c0-1.8,0.5-3.3,1.4-4.3
		c0.9-1,2.1-1.5,3.6-1.5c1.2,0,2.2,0.4,3,1.2c0.8,0.8,1.2,1.8,1.2,3.2H213.9 M213.9,310.9h5c0-0.7-0.1-1.2-0.2-1.5
		c-0.2-0.4-0.5-0.8-0.9-1c-0.4-0.2-0.8-0.4-1.2-0.4c-0.6,0-1.2,0.3-1.7,0.8C214.3,309.3,214,310,213.9,310.9L213.9,310.9z"/>
	<path class="st4" d="M228.8,316.7c-1.1,0.9-1.8,1.3-2.1,1.5c-0.4,0.2-0.9,0.3-1.3,0.3c-0.7,0-1.3-0.2-1.8-0.7
		c-0.5-0.5-0.7-1.2-0.7-2c0-0.5,0.1-1,0.3-1.4c0.3-0.5,0.9-1,1.7-1.5c0.8-0.5,2.1-1,4-1.7v-0.4c0-1.1-0.2-1.8-0.5-2.2
		c-0.3-0.4-0.8-0.6-1.5-0.6c-0.5,0-0.9,0.1-1.2,0.4c-0.3,0.3-0.5,0.6-0.5,0.9l0,0.7c0,0.4-0.1,0.6-0.3,0.8c-0.2,0.2-0.4,0.3-0.7,0.3
		c-0.3,0-0.5-0.1-0.7-0.3c-0.2-0.2-0.3-0.5-0.3-0.8c0-0.7,0.3-1.3,1-1.8c0.7-0.6,1.6-0.8,2.9-0.8c1,0,1.7,0.2,2.4,0.5
		c0.5,0.2,0.8,0.6,1,1.1c0.1,0.3,0.2,1,0.2,2.1v3.6c0,1,0,1.7,0,1.9c0,0.2,0.1,0.4,0.2,0.5c0.1,0.1,0.2,0.1,0.3,0.1
		c0.1,0,0.2,0,0.3-0.1c0.2-0.1,0.5-0.4,1-0.9v0.7c-0.9,1.2-1.7,1.7-2.5,1.7c-0.4,0-0.7-0.1-0.9-0.4
		C228.9,317.8,228.8,317.4,228.8,316.7 M228.8,315.9v-4.1c-1.2,0.5-2,0.8-2.3,1c-0.6,0.3-1.1,0.7-1.3,1.1c-0.3,0.4-0.4,0.8-0.4,1.2
		c0,0.6,0.2,1,0.5,1.4c0.3,0.4,0.7,0.6,1.2,0.6C227,317.1,227.8,316.7,228.8,315.9L228.8,315.9z"/>
	<path class="st4" d="M236.6,304v3.5h2.5v0.8h-2.5v7c0,0.7,0.1,1.2,0.3,1.4c0.2,0.2,0.5,0.4,0.8,0.4c0.2,0,0.5-0.1,0.7-0.2
		c0.2-0.1,0.4-0.4,0.6-0.7h0.5c-0.3,0.8-0.7,1.3-1.2,1.7c-0.5,0.4-1,0.6-1.5,0.6c-0.4,0-0.7-0.1-1.1-0.3c-0.3-0.2-0.6-0.5-0.7-0.8
		c-0.2-0.4-0.2-0.9-0.2-1.7v-7.2H233v-0.4c0.4-0.2,0.9-0.5,1.3-0.9c0.4-0.4,0.8-0.9,1.2-1.5c0.2-0.3,0.4-0.8,0.7-1.6H236.6
		L236.6,304z"/>
	<path class="st4" d="M249.4,307.5v6.5c0,1.2,0,2,0.1,2.3c0,0.3,0.1,0.5,0.3,0.6c0.1,0.1,0.3,0.2,0.5,0.2c0.2,0,0.5-0.1,0.8-0.2
		l0.2,0.4l-3.2,1.3h-0.5v-2.3c-0.9,1-1.6,1.6-2.1,1.9c-0.5,0.2-1,0.4-1.5,0.4c-0.6,0-1.2-0.2-1.6-0.5c-0.4-0.3-0.7-0.8-0.9-1.3
		c-0.2-0.5-0.2-1.3-0.2-2.3v-4.8c0-0.5-0.1-0.9-0.2-1.1c-0.1-0.2-0.3-0.4-0.5-0.5c-0.2-0.1-0.6-0.1-1.2-0.1v-0.4h3.8v7.2
		c0,1,0.2,1.7,0.5,2s0.8,0.5,1.3,0.5c0.3,0,0.7-0.1,1.1-0.3c0.4-0.2,0.9-0.6,1.5-1.2v-6.1c0-0.6-0.1-1-0.3-1.2
		c-0.2-0.2-0.7-0.3-1.4-0.4v-0.4H249.4L249.4,307.5z"/>
	<path class="st4" d="M255.1,307.2v2.4c0.9-1.6,1.8-2.4,2.8-2.4c0.4,0,0.8,0.1,1.1,0.4c0.3,0.3,0.4,0.6,0.4,0.9
		c0,0.3-0.1,0.6-0.3,0.8c-0.2,0.2-0.4,0.3-0.7,0.3s-0.6-0.1-0.9-0.4c-0.3-0.3-0.6-0.4-0.7-0.4c-0.1,0-0.3,0.1-0.5,0.2
		c-0.4,0.3-0.7,0.9-1.1,1.6v5.2c0,0.6,0.1,1.1,0.2,1.3c0.1,0.2,0.3,0.4,0.6,0.5c0.2,0.1,0.6,0.2,1.1,0.2v0.4h-5.5v-0.4
		c0.5,0,0.9-0.1,1.2-0.2c0.2-0.1,0.3-0.3,0.4-0.6c0-0.1,0.1-0.5,0.1-1.2v-4.2c0-1.2,0-2-0.1-2.2s-0.1-0.4-0.3-0.5
		c-0.1-0.1-0.3-0.2-0.5-0.2c-0.2,0-0.5,0.1-0.8,0.2l-0.1-0.4l3.3-1.3H255.1L255.1,307.2z"/>
	<path class="st4" d="M261.9,311.5c0,1.6,0.4,2.9,1.2,3.7c0.8,0.9,1.7,1.4,2.8,1.4c0.7,0,1.3-0.2,1.8-0.6c0.5-0.4,1-1,1.3-2l0.4,0.2
		c-0.2,1.1-0.7,2.1-1.4,2.9c-0.8,0.9-1.8,1.3-3,1.3c-1.3,0-2.4-0.5-3.3-1.5c-0.9-1-1.4-2.4-1.4-4.1c0-1.8,0.5-3.3,1.4-4.3
		c0.9-1,2.1-1.5,3.6-1.5c1.2,0,2.2,0.4,3,1.2c0.8,0.8,1.2,1.8,1.2,3.2H261.9 M261.9,310.9h5c0-0.7-0.1-1.2-0.2-1.5
		c-0.2-0.4-0.5-0.8-0.9-1c-0.4-0.2-0.8-0.4-1.2-0.4c-0.6,0-1.2,0.3-1.7,0.8C262.3,309.3,262,310,261.9,310.9L261.9,310.9z"/>
	<path class="st4" d="M275.7,302.4h4.3l9.7,11.9v-9.1c0-1-0.1-1.6-0.3-1.8c-0.3-0.3-0.8-0.5-1.4-0.5h-0.5v-0.4h5.5v0.4h-0.6
		c-0.7,0-1.2,0.2-1.4,0.6c-0.2,0.3-0.3,0.8-0.3,1.7v13.4h-0.4l-10.5-12.8v9.8c0,1,0.1,1.6,0.3,1.8c0.3,0.3,0.7,0.5,1.4,0.5h0.6v0.4
		h-5.5v-0.4h0.6c0.7,0,1.2-0.2,1.4-0.6c0.2-0.2,0.3-0.8,0.3-1.7v-11c-0.5-0.5-0.8-0.9-1.1-1.1c-0.2-0.2-0.6-0.3-1-0.5
		c-0.2,0-0.6-0.1-1-0.1V302.4L275.7,302.4z"/>
	<path class="st4" d="M303.4,307.5v6.5c0,1.2,0,2,0.1,2.3c0,0.3,0.1,0.5,0.3,0.6c0.1,0.1,0.3,0.2,0.5,0.2c0.2,0,0.5-0.1,0.8-0.2
		l0.2,0.4l-3.2,1.3h-0.5v-2.3c-0.9,1-1.6,1.6-2.1,1.9c-0.5,0.2-1,0.4-1.5,0.4c-0.6,0-1.2-0.2-1.6-0.5c-0.4-0.3-0.7-0.8-0.9-1.3
		c-0.2-0.5-0.2-1.3-0.2-2.3v-4.8c0-0.5-0.1-0.9-0.2-1.1c-0.1-0.2-0.3-0.4-0.5-0.5s-0.6-0.1-1.2-0.1v-0.4h3.8v7.2c0,1,0.2,1.7,0.5,2
		s0.8,0.5,1.3,0.5c0.3,0,0.7-0.1,1.1-0.3s0.9-0.6,1.5-1.2v-6.1c0-0.6-0.1-1-0.3-1.2c-0.2-0.2-0.7-0.3-1.4-0.4v-0.4H303.4
		L303.4,307.5z"/>
	<path class="st4" d="M309.2,309.5c0.8-0.8,1.2-1.2,1.4-1.3c0.3-0.3,0.7-0.5,1.1-0.7c0.4-0.1,0.8-0.2,1.2-0.2c0.7,0,1.2,0.2,1.7,0.6
		c0.5,0.4,0.8,1,1,1.7c0.8-0.9,1.5-1.6,2-1.8c0.6-0.3,1.1-0.4,1.7-0.4c0.6,0,1.1,0.1,1.5,0.4c0.4,0.3,0.8,0.8,1.1,1.4
		c0.2,0.5,0.3,1.2,0.3,2.1v4.6c0,0.7,0,1.2,0.1,1.4c0.1,0.2,0.2,0.3,0.4,0.4c0.2,0.1,0.6,0.2,1,0.2v0.4h-5.3v-0.4h0.2
		c0.5,0,0.8-0.1,1.1-0.3c0.2-0.1,0.3-0.3,0.4-0.6c0-0.1,0-0.5,0-1.1v-4.6c0-0.9-0.1-1.5-0.3-1.9c-0.3-0.5-0.8-0.7-1.5-0.7
		c-0.4,0-0.8,0.1-1.2,0.3c-0.4,0.2-0.9,0.6-1.5,1.2l0,0.1l0,0.5v5.1c0,0.7,0,1.2,0.1,1.4c0.1,0.2,0.2,0.3,0.5,0.5
		c0.2,0.1,0.6,0.2,1.2,0.2v0.4H312v-0.4c0.6,0,1,0,1.2-0.2c0.2-0.1,0.4-0.4,0.5-0.6c0-0.1,0-0.5,0-1.2v-4.6c0-0.9-0.1-1.5-0.4-1.9
		c-0.4-0.5-0.8-0.7-1.4-0.7c-0.4,0-0.9,0.1-1.2,0.3c-0.7,0.3-1.2,0.7-1.5,1.2v5.8c0,0.7,0,1.2,0.1,1.4c0.1,0.2,0.2,0.4,0.4,0.5
		c0.2,0.1,0.6,0.1,1.2,0.1v0.4h-5.3v-0.4c0.5,0,0.8,0,1-0.1c0.2-0.1,0.4-0.3,0.5-0.5c0.1-0.2,0.1-0.7,0.1-1.3v-4.1
		c0-1.2,0-1.9-0.1-2.3c0-0.2-0.1-0.4-0.3-0.5c-0.1-0.1-0.3-0.2-0.5-0.2c-0.2,0-0.5,0.1-0.8,0.2l-0.2-0.4l3.2-1.3h0.5V309.5
		L309.2,309.5z"/>
	<path class="st4" d="M327.6,309.4c1-1.4,2.2-2.2,3.4-2.2c1.1,0,2.1,0.5,2.9,1.4c0.8,0.9,1.2,2.2,1.2,3.8c0,1.9-0.6,3.5-1.9,4.6
		c-1.1,1-2.3,1.5-3.6,1.5c-0.6,0-1.3-0.1-1.9-0.3c-0.6-0.2-1.3-0.6-2-1v-11.1c0-1.2,0-2-0.1-2.3c0-0.3-0.1-0.5-0.3-0.6
		c-0.1-0.1-0.3-0.1-0.5-0.1c-0.2,0-0.5,0.1-0.8,0.2l-0.1-0.4l3.2-1.3h0.5V309.4 M327.6,310.1v6.4c0.4,0.4,0.8,0.7,1.2,0.9
		c0.4,0.2,0.9,0.3,1.3,0.3c0.7,0,1.3-0.4,2-1.2c0.6-0.8,0.9-1.9,0.9-3.4c0-1.4-0.3-2.4-0.9-3.2c-0.6-0.7-1.3-1.1-2.1-1.1
		c-0.4,0-0.8,0.1-1.2,0.3C328.5,309.3,328.1,309.6,327.6,310.1L327.6,310.1z"/>
	<path class="st4" d="M338.5,311.5c0,1.6,0.4,2.9,1.2,3.7c0.8,0.9,1.7,1.4,2.8,1.4c0.7,0,1.3-0.2,1.8-0.6c0.5-0.4,1-1,1.3-2l0.4,0.2
		c-0.2,1.1-0.7,2.1-1.4,2.9c-0.8,0.9-1.8,1.3-3,1.3c-1.3,0-2.4-0.5-3.3-1.5c-0.9-1-1.4-2.4-1.4-4.1c0-1.8,0.5-3.3,1.4-4.3
		c0.9-1,2.1-1.5,3.6-1.5c1.2,0,2.2,0.4,3,1.2c0.8,0.8,1.2,1.8,1.2,3.2H338.5 M338.5,310.9h5c0-0.7-0.1-1.2-0.2-1.5
		c-0.2-0.4-0.5-0.8-0.9-1c-0.4-0.2-0.8-0.4-1.2-0.4c-0.6,0-1.2,0.3-1.7,0.8C338.9,309.3,338.6,310,338.5,310.9L338.5,310.9z"/>
	<path class="st4" d="M350.4,307.2v2.4c0.9-1.6,1.8-2.4,2.8-2.4c0.4,0,0.8,0.1,1.1,0.4c0.3,0.3,0.4,0.6,0.4,0.9
		c0,0.3-0.1,0.6-0.3,0.8c-0.2,0.2-0.4,0.3-0.7,0.3s-0.6-0.1-0.9-0.4c-0.3-0.3-0.6-0.4-0.7-0.4c-0.1,0-0.3,0.1-0.5,0.2
		c-0.4,0.3-0.7,0.9-1.1,1.6v5.2c0,0.6,0.1,1.1,0.2,1.3c0.1,0.2,0.3,0.4,0.6,0.5c0.2,0.1,0.6,0.2,1.1,0.2v0.4h-5.5v-0.4
		c0.5,0,0.9-0.1,1.2-0.2c0.2-0.1,0.3-0.3,0.4-0.6c0-0.1,0.1-0.5,0.1-1.2v-4.2c0-1.2,0-2-0.1-2.2s-0.1-0.4-0.3-0.5
		c-0.1-0.1-0.3-0.2-0.5-0.2c-0.2,0-0.5,0.1-0.8,0.2l-0.1-0.4l3.3-1.3H350.4L350.4,307.2z"/>
	<path class="st4" d="M365.6,308.4v7.1c0,1,0.1,1.6,0.3,1.9c0.3,0.3,0.7,0.5,1.2,0.5h1v0.4h-6.4v-0.4h0.5c0.3,0,0.6-0.1,0.8-0.2
		c0.2-0.1,0.4-0.4,0.5-0.6c0.1-0.3,0.1-0.8,0.1-1.6v-7.1h-2.1v-0.8h2.1v-0.7c0-1.1,0.2-1.9,0.5-2.7c0.3-0.7,0.9-1.3,1.6-1.8
		s1.5-0.7,2.4-0.7c0.8,0,1.6,0.3,2.3,0.8c0.5,0.4,0.7,0.7,0.7,1.2c0,0.2-0.1,0.5-0.3,0.7c-0.2,0.2-0.4,0.3-0.6,0.3
		c-0.2,0-0.4,0-0.6-0.2c-0.2-0.1-0.4-0.4-0.7-0.8s-0.6-0.7-0.8-0.9c-0.2-0.1-0.5-0.2-0.8-0.2c-0.4,0-0.7,0.1-0.9,0.3
		c-0.2,0.2-0.4,0.5-0.5,0.9c-0.1,0.4-0.2,1.4-0.2,3.1v0.8h2.8v0.8H365.6L365.6,308.4z"/>
	<path class="st4" d="M374.6,307.2c1.6,0,2.9,0.6,3.9,1.8c0.8,1.1,1.2,2.3,1.2,3.6c0,1-0.2,1.9-0.7,2.9c-0.5,1-1.1,1.7-1.9,2.2
		c-0.8,0.5-1.7,0.7-2.7,0.7c-1.6,0-2.9-0.6-3.9-1.9c-0.8-1.1-1.2-2.3-1.2-3.6c0-1,0.2-2,0.7-2.9c0.5-1,1.1-1.7,1.9-2.2
		C372.8,307.4,373.7,307.2,374.6,307.2 M374.2,307.9c-0.4,0-0.8,0.1-1.2,0.4c-0.4,0.2-0.8,0.7-1,1.3c-0.3,0.6-0.4,1.4-0.4,2.4
		c0,1.6,0.3,2.9,0.9,4c0.6,1.2,1.4,1.7,2.5,1.7c0.7,0,1.4-0.3,1.9-0.9c0.5-0.6,0.7-1.7,0.7-3.2c0-1.9-0.4-3.4-1.2-4.5
		C375.8,308.3,375.1,307.9,374.2,307.9L374.2,307.9z"/>
	<path class="st4" d="M384.5,307.2v2.4c0.9-1.6,1.8-2.4,2.8-2.4c0.4,0,0.8,0.1,1.1,0.4c0.3,0.3,0.4,0.6,0.4,0.9
		c0,0.3-0.1,0.6-0.3,0.8c-0.2,0.2-0.4,0.3-0.7,0.3s-0.6-0.1-0.9-0.4c-0.3-0.3-0.6-0.4-0.7-0.4s-0.3,0.1-0.5,0.2
		c-0.4,0.3-0.7,0.9-1.1,1.6v5.2c0,0.6,0.1,1.1,0.2,1.3c0.1,0.2,0.3,0.4,0.6,0.5c0.2,0.1,0.6,0.2,1.1,0.2v0.4h-5.5v-0.4
		c0.5,0,0.9-0.1,1.2-0.2c0.2-0.1,0.3-0.3,0.4-0.6c0-0.1,0.1-0.5,0.1-1.2v-4.2c0-1.2,0-2-0.1-2.2c0-0.2-0.1-0.4-0.3-0.5
		c-0.1-0.1-0.3-0.2-0.5-0.2c-0.2,0-0.5,0.1-0.8,0.2l-0.1-0.4l3.3-1.3H384.5L384.5,307.2z"/>
	<path class="st4" d="M408.2,302.4l0.2,3.7h-0.5c-0.1-0.6-0.2-1.1-0.3-1.4c-0.2-0.5-0.6-0.8-1-1c-0.4-0.2-0.9-0.3-1.6-0.3h-2.2v12.1
		c0,1,0.1,1.6,0.3,1.8c0.3,0.3,0.7,0.5,1.4,0.5h0.6v0.4h-6.7v-0.4h0.6c0.7,0,1.2-0.2,1.4-0.6c0.1-0.2,0.2-0.8,0.2-1.7v-12.1h-1.9
		c-0.8,0-1.3,0.1-1.6,0.2c-0.4,0.2-0.8,0.5-1.1,0.9c-0.3,0.4-0.5,1-0.5,1.7H395l0.2-3.7H408.2L408.2,302.4z"/>
	<path class="st4" d="M411.8,307.2v2.4c0.9-1.6,1.8-2.4,2.8-2.4c0.4,0,0.8,0.1,1.1,0.4c0.3,0.3,0.4,0.6,0.4,0.9
		c0,0.3-0.1,0.6-0.3,0.8c-0.2,0.2-0.4,0.3-0.7,0.3c-0.3,0-0.6-0.1-0.9-0.4c-0.3-0.3-0.6-0.4-0.7-0.4c-0.1,0-0.3,0.1-0.5,0.2
		c-0.4,0.3-0.7,0.9-1.1,1.6v5.2c0,0.6,0.1,1.1,0.2,1.3c0.1,0.2,0.3,0.4,0.6,0.5c0.2,0.1,0.6,0.2,1.1,0.2v0.4h-5.5v-0.4
		c0.5,0,0.9-0.1,1.2-0.2c0.2-0.1,0.3-0.3,0.4-0.6c0-0.1,0.1-0.5,0.1-1.2v-4.2c0-1.2,0-2-0.1-2.2s-0.1-0.4-0.3-0.5
		c-0.1-0.1-0.3-0.2-0.5-0.2c-0.2,0-0.5,0.1-0.8,0.2l-0.1-0.4l3.3-1.3H411.8L411.8,307.2z"/>
	<path class="st4" d="M422.9,316.7c-1.1,0.9-1.8,1.3-2.1,1.5c-0.4,0.2-0.9,0.3-1.3,0.3c-0.7,0-1.3-0.2-1.8-0.7
		c-0.5-0.5-0.7-1.2-0.7-2c0-0.5,0.1-1,0.3-1.4c0.3-0.5,0.9-1,1.7-1.5c0.8-0.5,2.1-1,4-1.7v-0.4c0-1.1-0.2-1.8-0.5-2.2
		c-0.3-0.4-0.8-0.6-1.5-0.6c-0.5,0-0.9,0.1-1.2,0.4c-0.3,0.3-0.5,0.6-0.5,0.9l0,0.7c0,0.4-0.1,0.6-0.3,0.8c-0.2,0.2-0.4,0.3-0.7,0.3
		s-0.5-0.1-0.7-0.3s-0.3-0.5-0.3-0.8c0-0.7,0.3-1.3,1-1.8c0.7-0.6,1.6-0.8,2.9-0.8c1,0,1.7,0.2,2.4,0.5c0.5,0.2,0.8,0.6,1,1.1
		c0.1,0.3,0.2,1,0.2,2.1v3.6c0,1,0,1.7,0,1.9c0,0.2,0.1,0.4,0.2,0.5c0.1,0.1,0.2,0.1,0.3,0.1c0.1,0,0.2,0,0.3-0.1
		c0.2-0.1,0.5-0.4,1-0.9v0.7c-0.9,1.2-1.7,1.7-2.5,1.7c-0.4,0-0.7-0.1-0.9-0.4C423,317.8,422.9,317.4,422.9,316.7 M422.9,315.9v-4.1
		c-1.2,0.5-2,0.8-2.3,1c-0.6,0.3-1.1,0.7-1.3,1.1c-0.3,0.4-0.4,0.8-0.4,1.2c0,0.6,0.2,1,0.5,1.4c0.3,0.4,0.7,0.6,1.2,0.6
		C421.2,317.1,422,316.7,422.9,315.9L422.9,315.9z"/>
	<path class="st4" d="M430.1,301.6c0.3,0,0.6,0.1,0.8,0.3c0.2,0.2,0.3,0.5,0.3,0.8s-0.1,0.6-0.3,0.8c-0.2,0.2-0.5,0.4-0.8,0.4
		s-0.6-0.1-0.8-0.4c-0.2-0.2-0.4-0.5-0.4-0.8s0.1-0.6,0.3-0.8C429.5,301.7,429.8,301.6,430.1,301.6 M431.1,307.2v8.6
		c0,0.7,0,1.1,0.1,1.3c0.1,0.2,0.2,0.4,0.4,0.5c0.2,0.1,0.5,0.1,1,0.1v0.4h-5.2v-0.4c0.5,0,0.9,0,1.1-0.1c0.2-0.1,0.3-0.3,0.4-0.5
		c0.1-0.2,0.2-0.7,0.2-1.3v-4.1c0-1.2,0-1.9-0.1-2.3c0-0.2-0.1-0.4-0.3-0.5s-0.3-0.2-0.5-0.2c-0.2,0-0.5,0.1-0.8,0.2l-0.2-0.4
		l3.2-1.3H431.1L431.1,307.2z"/>
	<path class="st4" d="M437.3,309.5c1.2-1.5,2.4-2.3,3.6-2.3c0.6,0,1.1,0.1,1.5,0.4s0.8,0.8,1,1.4c0.1,0.5,0.2,1.2,0.2,2.2v4.6
		c0,0.7,0,1.2,0.2,1.4c0.1,0.2,0.2,0.4,0.4,0.5c0.2,0.1,0.6,0.1,1.1,0.1v0.4H440v-0.4h0.2c0.5,0,0.8-0.1,1-0.2
		c0.2-0.1,0.3-0.4,0.4-0.7c0-0.1,0-0.5,0-1.1v-4.4c0-1-0.1-1.7-0.4-2.1c-0.3-0.4-0.7-0.7-1.3-0.7c-0.9,0-1.8,0.5-2.8,1.5v5.7
		c0,0.7,0,1.2,0.1,1.3c0.1,0.2,0.3,0.4,0.5,0.5c0.2,0.1,0.6,0.1,1.2,0.1v0.4h-5.3v-0.4h0.2c0.5,0,0.9-0.1,1.1-0.4
		c0.2-0.3,0.3-0.8,0.3-1.6v-4c0-1.3,0-2.1-0.1-2.4c0-0.3-0.1-0.5-0.3-0.6s-0.3-0.2-0.5-0.2c-0.2,0-0.5,0.1-0.8,0.2l-0.2-0.4l3.2-1.3
		h0.5V309.5L437.3,309.5z"/>
	<path class="st4" d="M448.9,301.6c0.3,0,0.6,0.1,0.8,0.3c0.2,0.2,0.3,0.5,0.3,0.8s-0.1,0.6-0.3,0.8c-0.2,0.2-0.5,0.4-0.8,0.4
		s-0.6-0.1-0.8-0.4c-0.2-0.2-0.4-0.5-0.4-0.8s0.1-0.6,0.3-0.8C448.2,301.7,448.5,301.6,448.9,301.6 M449.8,307.2v8.6
		c0,0.7,0,1.1,0.1,1.3c0.1,0.2,0.2,0.4,0.4,0.5c0.2,0.1,0.5,0.1,1,0.1v0.4h-5.2v-0.4c0.5,0,0.9,0,1.1-0.1c0.2-0.1,0.3-0.3,0.4-0.5
		s0.2-0.7,0.2-1.3v-4.1c0-1.2,0-1.9-0.1-2.3c0-0.2-0.1-0.4-0.3-0.5c-0.1-0.1-0.3-0.2-0.5-0.2c-0.2,0-0.5,0.1-0.8,0.2l-0.2-0.4
		l3.2-1.3H449.8L449.8,307.2z"/>
	<path class="st4" d="M455.7,309.5c1.2-1.5,2.4-2.3,3.6-2.3c0.6,0,1.1,0.1,1.5,0.4c0.4,0.3,0.8,0.8,1,1.4c0.1,0.5,0.2,1.2,0.2,2.2
		v4.6c0,0.7,0,1.2,0.2,1.4c0.1,0.2,0.2,0.4,0.4,0.5c0.2,0.1,0.6,0.1,1.1,0.1v0.4h-5.3v-0.4h0.2c0.5,0,0.8-0.1,1-0.2
		c0.2-0.1,0.3-0.4,0.4-0.7c0-0.1,0-0.5,0-1.1v-4.4c0-1-0.1-1.7-0.4-2.1c-0.3-0.4-0.7-0.7-1.3-0.7c-0.9,0-1.8,0.5-2.8,1.5v5.7
		c0,0.7,0,1.2,0.1,1.3c0.1,0.2,0.3,0.4,0.5,0.5c0.2,0.1,0.6,0.1,1.2,0.1v0.4h-5.3v-0.4h0.2c0.5,0,0.9-0.1,1.1-0.4
		c0.2-0.3,0.3-0.8,0.3-1.6v-4c0-1.3,0-2.1-0.1-2.4c0-0.3-0.1-0.5-0.3-0.6s-0.3-0.2-0.5-0.2c-0.2,0-0.5,0.1-0.8,0.2l-0.2-0.4l3.2-1.3
		h0.5V309.5L455.7,309.5z"/>
	<path class="st4" d="M467.5,314.3c-0.7-0.3-1.2-0.8-1.5-1.3c-0.4-0.6-0.5-1.2-0.5-1.9c0-1.1,0.4-2,1.2-2.7c0.8-0.8,1.8-1.2,3.1-1.2
		c1,0,1.9,0.3,2.7,0.7h2.3c0.3,0,0.5,0,0.6,0c0,0,0.1,0,0.1,0.1c0,0.1,0.1,0.2,0.1,0.4c0,0.2,0,0.3-0.1,0.4c0,0-0.1,0.1-0.1,0.1
		s-0.2,0-0.6,0h-1.4c0.4,0.6,0.6,1.3,0.6,2.2c0,1-0.4,1.8-1.2,2.6c-0.8,0.7-1.8,1.1-3.1,1.1c-0.6,0-1.1-0.1-1.6-0.2
		c-0.4,0.3-0.6,0.6-0.7,0.8c-0.1,0.2-0.2,0.4-0.2,0.6c0,0.1,0,0.3,0.2,0.4c0.1,0.1,0.4,0.2,0.8,0.3c0.2,0,0.7,0.1,1.6,0.1
		c1.6,0,2.6,0.1,3.1,0.2c0.7,0.1,1.3,0.4,1.8,0.8c0.4,0.4,0.6,1,0.6,1.6c0,0.9-0.4,1.7-1.2,2.5c-1.2,1.1-2.8,1.7-4.8,1.7
		c-1.5,0-2.8-0.4-3.8-1c-0.6-0.4-0.9-0.8-0.9-1.2c0-0.2,0-0.4,0.1-0.6c0.1-0.3,0.4-0.7,0.8-1.2c0-0.1,0.5-0.5,1.2-1.2
		c-0.4-0.2-0.7-0.5-0.9-0.6c-0.2-0.2-0.2-0.4-0.2-0.6c0-0.3,0.1-0.6,0.3-1C466.2,315.5,466.7,315,467.5,314.3 M469.5,307.8
		c-0.6,0-1.1,0.2-1.5,0.7c-0.4,0.5-0.6,1.2-0.6,2.1c0,1.2,0.3,2.2,0.8,2.9c0.4,0.5,0.9,0.8,1.6,0.8c0.6,0,1.1-0.2,1.4-0.7
		c0.4-0.4,0.6-1.1,0.6-2.1c0-1.2-0.3-2.2-0.8-2.9C470.7,308,470.1,307.8,469.5,307.8 M467.4,318.2c-0.4,0.4-0.6,0.7-0.8,1.1
		s-0.3,0.7-0.3,1c0,0.4,0.2,0.7,0.7,1c0.8,0.5,1.9,0.7,3.4,0.7c1.4,0,2.4-0.3,3.1-0.7c0.7-0.5,1-1,1-1.6c0-0.4-0.2-0.7-0.6-0.9
		c-0.4-0.2-1.2-0.3-2.4-0.3C469.6,318.4,468.3,318.3,467.4,318.2L467.4,318.2z"/>
	<path class="st4" d="M491.7,318.2l-6.1-13.4v10.6c0,1,0.1,1.6,0.3,1.8c0.3,0.3,0.7,0.5,1.4,0.5h0.6v0.4h-5.5v-0.4h0.6
		c0.7,0,1.2-0.2,1.4-0.6c0.1-0.2,0.2-0.8,0.2-1.7v-10.4c0-0.7-0.1-1.2-0.2-1.5c-0.1-0.2-0.3-0.4-0.6-0.6c-0.3-0.1-0.8-0.2-1.4-0.2
		v-0.4h4.5l5.8,12.4l5.7-12.4h4.5v0.4h-0.6c-0.7,0-1.2,0.2-1.4,0.6c-0.2,0.3-0.3,0.8-0.3,1.7v10.4c0,1,0.1,1.6,0.3,1.8
		c0.3,0.3,0.7,0.5,1.4,0.5h0.6v0.4h-6.7v-0.4h0.6c0.7,0,1.2-0.2,1.4-0.6c0.2-0.2,0.3-0.8,0.3-1.7v-10.6l-6.1,13.4H491.7L491.7,318.2
		z"/>
	<path class="st4" d="M509.2,307.2c1.6,0,2.9,0.6,3.9,1.8c0.8,1.1,1.2,2.3,1.2,3.6c0,1-0.2,1.9-0.7,2.9c-0.5,1-1.1,1.7-1.9,2.2
		c-0.8,0.5-1.7,0.7-2.7,0.7c-1.6,0-2.9-0.6-3.9-1.9c-0.8-1.1-1.2-2.3-1.2-3.6c0-1,0.2-2,0.7-2.9c0.5-1,1.1-1.7,1.9-2.2
		C507.5,307.4,508.3,307.2,509.2,307.2 M508.9,307.9c-0.4,0-0.8,0.1-1.2,0.4c-0.4,0.2-0.8,0.7-1,1.3c-0.3,0.6-0.4,1.4-0.4,2.4
		c0,1.6,0.3,2.9,0.9,4c0.6,1.2,1.4,1.7,2.5,1.7c0.7,0,1.4-0.3,1.9-0.9c0.5-0.6,0.7-1.7,0.7-3.2c0-1.9-0.4-3.4-1.2-4.5
		C510.4,308.3,509.7,307.9,508.9,307.9L508.9,307.9z"/>
	<path class="st4" d="M523.5,317c-0.5,0.6-1.1,0.9-1.5,1.2c-0.5,0.2-1,0.3-1.6,0.3c-1.2,0-2.2-0.5-3.1-1.5c-0.9-1-1.3-2.2-1.3-3.8
		s0.5-2.9,1.4-4.2c1-1.3,2.2-1.9,3.8-1.9c0.9,0,1.7,0.3,2.3,0.9v-2c0-1.2,0-2-0.1-2.3c0-0.3-0.1-0.5-0.3-0.6
		c-0.1-0.1-0.3-0.1-0.5-0.1c-0.2,0-0.5,0.1-0.8,0.2l-0.2-0.4l3.2-1.3h0.5V314c0,1.2,0,2,0.1,2.3c0,0.3,0.1,0.5,0.3,0.6
		c0.1,0.1,0.3,0.2,0.5,0.2s0.5-0.1,0.8-0.2l0.1,0.4l-3.2,1.3h-0.6V317 M523.5,316.2v-5.5c0-0.5-0.2-1-0.4-1.4s-0.5-0.8-0.9-1
		c-0.4-0.2-0.8-0.3-1.1-0.3c-0.7,0-1.3,0.3-1.8,0.9c-0.7,0.8-1.1,2-1.1,3.6c0,1.6,0.3,2.8,1,3.6s1.4,1.2,2.3,1.2
		C522.2,317.3,522.9,316.9,523.5,316.2L523.5,316.2z"/>
	<path class="st4" d="M529.8,311.5c0,1.6,0.4,2.9,1.2,3.7c0.8,0.9,1.7,1.4,2.8,1.4c0.7,0,1.3-0.2,1.8-0.6c0.5-0.4,1-1,1.3-2l0.4,0.2
		c-0.2,1.1-0.7,2.1-1.4,2.9c-0.8,0.9-1.8,1.3-3,1.3c-1.3,0-2.4-0.5-3.3-1.5s-1.4-2.4-1.4-4.1c0-1.8,0.5-3.3,1.4-4.3
		c0.9-1,2.1-1.5,3.6-1.5c1.2,0,2.2,0.4,3,1.2c0.8,0.8,1.2,1.8,1.2,3.2H529.8 M529.8,310.9h5c0-0.7-0.1-1.2-0.2-1.5
		c-0.2-0.4-0.5-0.8-0.9-1s-0.8-0.4-1.2-0.4c-0.6,0-1.2,0.3-1.7,0.8C530.1,309.3,529.9,310,529.8,310.9L529.8,310.9z"/>
	<path class="st4" d="M542.5,301.6v14.2c0,0.7,0,1.1,0.1,1.3c0.1,0.2,0.2,0.4,0.5,0.5c0.2,0.1,0.6,0.2,1.1,0.2v0.4h-5.3v-0.4
		c0.5,0,0.8,0,1-0.1c0.2-0.1,0.3-0.3,0.4-0.5c0.1-0.2,0.2-0.7,0.2-1.3v-9.7c0-1.2,0-1.9-0.1-2.2c0-0.3-0.1-0.5-0.3-0.6
		c-0.1-0.1-0.3-0.1-0.5-0.1s-0.5,0.1-0.8,0.2l-0.2-0.4l3.2-1.3H542.5L542.5,301.6z"/>
	<g>
		<defs>
			<rect id="SVGID_61_" x="66.3" y="30.6" width="610.2" height="246.5"/>
		</defs>
		<clipPath id="SVGID_62_">
			<use xlink:href="#SVGID_61_"  style="overflow:visible;"/>
		</clipPath>
		<line class="st33" x1="66.3" y1="234.2" x2="676.4" y2="234.2"/>
	</g>
	<line class="st3" x1="66.3" y1="234.2" x2="62.8" y2="234.2"/>
	<path class="st4" d="M33.6,234.6c0-1.1,0.2-2.1,0.5-2.9c0.3-0.8,0.8-1.4,1.4-1.8c0.4-0.3,0.9-0.5,1.4-0.5c0.8,0,1.4,0.4,2.1,1.2
		c0.8,1,1.1,2.3,1.1,3.9c0,1.2-0.2,2.1-0.5,2.9c-0.3,0.8-0.8,1.4-1.3,1.7s-1,0.5-1.5,0.5c-1,0-1.7-0.6-2.4-1.7
		C33.9,237.1,33.6,236,33.6,234.6 M35,234.8c0,1.4,0.2,2.5,0.5,3.3c0.3,0.7,0.7,1.1,1.2,1.1c0.3,0,0.5-0.1,0.8-0.3
		c0.3-0.2,0.5-0.6,0.6-1.2c0.2-0.8,0.3-2,0.3-3.6c0-1.1-0.1-2.1-0.4-2.8c-0.2-0.6-0.4-0.9-0.7-1.2c-0.2-0.2-0.5-0.3-0.7-0.3
		c-0.3,0-0.6,0.1-0.9,0.5c-0.4,0.4-0.6,1-0.7,1.9C35.1,233.1,35,234,35,234.8L35,234.8z"/>
	<path class="st4" d="M42.4,238.1c0.2,0,0.4,0.1,0.6,0.2c0.1,0.2,0.2,0.4,0.2,0.6c0,0.2-0.1,0.4-0.2,0.6c-0.2,0.1-0.4,0.2-0.6,0.2
		c-0.2,0-0.4-0.1-0.6-0.2c-0.2-0.1-0.2-0.3-0.2-0.6c0-0.2,0.1-0.4,0.2-0.6C42,238.2,42.2,238.1,42.4,238.1L42.4,238.1z"/>
	<path class="st4" d="M51.1,229.4v0.3c-0.6,0.1-1.2,0.2-1.6,0.4c-0.4,0.2-0.8,0.5-1.2,0.9c-0.4,0.4-0.7,0.8-1,1.3s-0.5,1.1-0.6,1.7
		c0.7-0.5,1.4-0.7,2.1-0.7c0.7,0,1.3,0.3,1.8,0.8c0.5,0.5,0.8,1.2,0.8,2.1c0,0.8-0.3,1.6-0.8,2.3c-0.6,0.8-1.4,1.2-2.4,1.2
		c-0.7,0-1.3-0.2-1.7-0.7c-0.9-0.9-1.4-2-1.4-3.4c0-0.9,0.2-1.7,0.5-2.5c0.4-0.8,0.9-1.5,1.5-2.1c0.7-0.6,1.3-1,1.9-1.2
		c0.6-0.2,1.2-0.3,1.7-0.3H51.1 M46.5,234.5c-0.1,0.7-0.1,1.2-0.1,1.6c0,0.5,0.1,1,0.3,1.5c0.2,0.6,0.4,1,0.8,1.3
		c0.2,0.2,0.5,0.3,0.9,0.3c0.4,0,0.8-0.2,1.1-0.6c0.3-0.4,0.5-1,0.5-1.7c0-0.8-0.2-1.5-0.5-2.2c-0.3-0.6-0.8-0.9-1.4-0.9
		c-0.2,0-0.4,0-0.6,0.1C47.2,234.1,46.9,234.3,46.5,234.5L46.5,234.5z"/>
	<path class="st4" d="M58.3,229.6l-0.6,1.2h-3l-0.7,1.3c1.3,0.2,2.3,0.7,3.1,1.4c0.6,0.7,1,1.4,1,2.3c0,0.5-0.1,1-0.3,1.5
		c-0.2,0.4-0.5,0.8-0.8,1.1s-0.7,0.6-1.1,0.8c-0.6,0.3-1.1,0.4-1.7,0.4c-0.6,0-1-0.1-1.3-0.3s-0.4-0.4-0.4-0.7c0-0.1,0-0.3,0.2-0.4
		c0.1-0.1,0.2-0.2,0.4-0.2c0.1,0,0.2,0,0.3,0.1c0.1,0,0.3,0.2,0.5,0.3c0.4,0.3,0.7,0.4,1.1,0.4c0.6,0,1.1-0.2,1.5-0.6
		c0.4-0.4,0.7-0.9,0.7-1.6c0-0.6-0.2-1.2-0.6-1.7c-0.4-0.5-0.9-0.9-1.6-1.2c-0.5-0.2-1.3-0.3-2.2-0.4l1.9-3.9H58.3L58.3,229.6z"/>
	<g>
		<defs>
			<rect id="SVGID_63_" x="66.3" y="30.6" width="610.2" height="246.5"/>
		</defs>
		<clipPath id="SVGID_64_">
			<use xlink:href="#SVGID_63_"  style="overflow:visible;"/>
		</clipPath>
		<line class="st34" x1="66.3" y1="174.9" x2="676.4" y2="174.9"/>
	</g>
	<line class="st3" x1="66.3" y1="174.9" x2="62.8" y2="174.9"/>
	<path class="st4" d="M33.6,175.1c0-1.1,0.2-2.1,0.5-2.9c0.3-0.8,0.8-1.4,1.4-1.8c0.4-0.3,0.9-0.5,1.4-0.5c0.8,0,1.4,0.4,2.1,1.2
		c0.8,1,1.1,2.3,1.1,3.9c0,1.2-0.2,2.1-0.5,2.9c-0.3,0.8-0.8,1.4-1.3,1.7c-0.5,0.4-1,0.5-1.5,0.5c-1,0-1.7-0.6-2.4-1.7
		C33.9,177.6,33.6,176.4,33.6,175.1 M35,175.3c0,1.4,0.2,2.5,0.5,3.3c0.3,0.7,0.7,1.1,1.2,1.1c0.3,0,0.5-0.1,0.8-0.3
		c0.3-0.2,0.5-0.6,0.6-1.2c0.2-0.8,0.3-2,0.3-3.6c0-1.1-0.1-2.1-0.4-2.8c-0.2-0.6-0.4-0.9-0.7-1.2c-0.2-0.2-0.5-0.3-0.7-0.3
		c-0.3,0-0.6,0.1-0.9,0.4c-0.4,0.4-0.6,1.1-0.7,1.9S35,174.4,35,175.3L35,175.3z"/>
	<path class="st4" d="M42.4,178.6c0.2,0,0.4,0.1,0.6,0.2c0.1,0.2,0.2,0.4,0.2,0.6c0,0.2-0.1,0.4-0.2,0.6c-0.2,0.1-0.4,0.2-0.6,0.2
		c-0.2,0-0.4-0.1-0.6-0.2c-0.2-0.2-0.2-0.3-0.2-0.6c0-0.2,0.1-0.4,0.2-0.6C42,178.7,42.2,178.6,42.4,178.6L42.4,178.6z"/>
	<path class="st4" d="M45.9,170.1h5.3v0.3l-3.3,9.9H47l3-8.9h-2.7c-0.6,0-0.9,0.1-1.2,0.2c-0.4,0.2-0.8,0.6-1,1l-0.2-0.1L45.9,170.1
		L45.9,170.1z"/>
	<path class="st4" d="M52.3,175.1c0-1.1,0.2-2.1,0.5-2.9c0.3-0.8,0.8-1.4,1.4-1.8c0.4-0.3,0.9-0.5,1.4-0.5c0.8,0,1.4,0.4,2.1,1.2
		c0.8,1,1.1,2.3,1.1,3.9c0,1.2-0.2,2.1-0.5,2.9c-0.3,0.8-0.8,1.4-1.3,1.7c-0.5,0.4-1,0.5-1.5,0.5c-1,0-1.7-0.6-2.4-1.7
		C52.6,177.6,52.3,176.4,52.3,175.1 M53.8,175.3c0,1.4,0.2,2.5,0.5,3.3c0.3,0.7,0.7,1.1,1.2,1.1c0.3,0,0.5-0.1,0.8-0.3
		c0.3-0.2,0.5-0.6,0.6-1.2c0.2-0.8,0.3-2,0.3-3.6c0-1.1-0.1-2.1-0.4-2.8c-0.2-0.6-0.4-0.9-0.7-1.2c-0.2-0.2-0.5-0.3-0.7-0.3
		c-0.3,0-0.6,0.1-0.9,0.4c-0.4,0.4-0.6,1.1-0.7,1.9S53.8,174.4,53.8,175.3L53.8,175.3z"/>
	<g>
		<defs>
			<rect id="SVGID_65_" x="66.3" y="30.6" width="610.2" height="246.5"/>
		</defs>
		<clipPath id="SVGID_66_">
			<use xlink:href="#SVGID_65_"  style="overflow:visible;"/>
		</clipPath>
		<line class="st35" x1="66.3" y1="115.6" x2="676.4" y2="115.6"/>
	</g>
	<line class="st3" x1="66.3" y1="115.6" x2="62.8" y2="115.6"/>
	<path class="st4" d="M33.6,115.8c0-1.1,0.2-2.1,0.5-2.9c0.3-0.8,0.8-1.4,1.4-1.8c0.4-0.3,0.9-0.5,1.4-0.5c0.8,0,1.4,0.4,2.1,1.2
		c0.8,1,1.1,2.3,1.1,3.9c0,1.2-0.2,2.1-0.5,2.9c-0.3,0.8-0.8,1.4-1.3,1.7c-0.5,0.4-1,0.5-1.5,0.5c-1,0-1.7-0.6-2.4-1.7
		C33.9,118.3,33.6,117.2,33.6,115.8 M35,116c0,1.4,0.2,2.5,0.5,3.3c0.3,0.7,0.7,1.1,1.2,1.1c0.3,0,0.5-0.1,0.8-0.3
		c0.3-0.2,0.5-0.6,0.6-1.2c0.2-0.8,0.3-2,0.3-3.6c0-1.1-0.1-2.1-0.4-2.8c-0.2-0.6-0.4-0.9-0.7-1.2c-0.2-0.2-0.5-0.3-0.7-0.3
		c-0.3,0-0.6,0.2-0.9,0.5c-0.4,0.4-0.6,1-0.7,1.9C35.1,114.3,35,115.2,35,116L35,116z"/>
	<path class="st4" d="M42.4,119.3c0.2,0,0.4,0.1,0.6,0.2c0.1,0.2,0.2,0.4,0.2,0.6c0,0.2-0.1,0.4-0.2,0.6c-0.2,0.2-0.4,0.2-0.6,0.2
		c-0.2,0-0.4-0.1-0.6-0.2c-0.2-0.1-0.2-0.3-0.2-0.6c0-0.2,0.1-0.4,0.2-0.6C42,119.4,42.2,119.3,42.4,119.3L42.4,119.3z"/>
	<path class="st4" d="M45.9,110.8h5.3v0.3l-3.3,9.9H47l3-8.9h-2.7c-0.6,0-0.9,0.1-1.2,0.2c-0.4,0.2-0.8,0.6-1,1l-0.2-0.1L45.9,110.8
		L45.9,110.8z"/>
	<path class="st4" d="M58.3,110.8l-0.6,1.2h-3l-0.7,1.3c1.3,0.2,2.3,0.7,3.1,1.4c0.6,0.7,1,1.4,1,2.3c0,0.5-0.1,1-0.3,1.5
		c-0.2,0.5-0.5,0.8-0.8,1.1c-0.3,0.3-0.7,0.6-1.1,0.8c-0.6,0.3-1.1,0.4-1.7,0.4c-0.6,0-1-0.1-1.3-0.3s-0.4-0.4-0.4-0.7
		c0-0.1,0-0.3,0.2-0.4c0.1-0.1,0.2-0.2,0.4-0.2c0.1,0,0.2,0,0.3,0.1c0.1,0,0.3,0.1,0.5,0.3c0.4,0.3,0.7,0.4,1.1,0.4
		c0.6,0,1.1-0.2,1.5-0.6c0.4-0.4,0.7-0.9,0.7-1.6c0-0.6-0.2-1.2-0.6-1.7c-0.4-0.5-0.9-0.9-1.6-1.2c-0.5-0.2-1.3-0.3-2.2-0.4l1.9-3.9
		H58.3L58.3,110.8z"/>
	<g>
		<defs>
			<rect id="SVGID_67_" x="66.3" y="30.6" width="610.2" height="246.5"/>
		</defs>
		<clipPath id="SVGID_68_">
			<use xlink:href="#SVGID_67_"  style="overflow:visible;"/>
		</clipPath>
		<line class="st36" x1="66.3" y1="56.2" x2="676.4" y2="56.2"/>
	</g>
	<line class="st3" x1="66.3" y1="56.2" x2="62.8" y2="56.2"/>
	<path class="st4" d="M33.6,56.5c0-1.1,0.2-2.1,0.5-2.9c0.3-0.8,0.8-1.4,1.4-1.8c0.4-0.3,0.9-0.5,1.4-0.5c0.8,0,1.4,0.4,2.1,1.2
		c0.8,1,1.1,2.3,1.1,3.9c0,1.2-0.2,2.1-0.5,2.9c-0.3,0.8-0.8,1.4-1.3,1.7c-0.5,0.4-1,0.5-1.5,0.5c-1,0-1.7-0.6-2.4-1.7
		C33.9,59,33.6,57.9,33.6,56.5 M35,56.7c0,1.4,0.2,2.5,0.5,3.3c0.3,0.7,0.7,1.1,1.2,1.1c0.3,0,0.5-0.1,0.8-0.3
		c0.3-0.2,0.5-0.6,0.6-1.2c0.2-0.8,0.3-2,0.3-3.6c0-1.1-0.1-2.1-0.4-2.8c-0.2-0.6-0.4-0.9-0.7-1.2c-0.2-0.2-0.5-0.3-0.7-0.3
		c-0.3,0-0.6,0.1-0.9,0.4c-0.4,0.4-0.6,1.1-0.7,1.9S35,55.9,35,56.7L35,56.7z"/>
	<path class="st4" d="M42.4,60c0.2,0,0.4,0.1,0.6,0.2c0.1,0.2,0.2,0.4,0.2,0.6c0,0.2-0.1,0.4-0.2,0.6c-0.2,0.1-0.4,0.2-0.6,0.2
		c-0.2,0-0.4-0.1-0.6-0.2c-0.2-0.1-0.2-0.3-0.2-0.6c0-0.2,0.1-0.4,0.2-0.6C42,60.1,42.2,60,42.4,60L42.4,60z"/>
	<path class="st4" d="M47.2,56.4c-0.8-0.6-1.3-1.2-1.5-1.6s-0.3-0.8-0.3-1.2c0-0.6,0.2-1.2,0.7-1.7s1.2-0.7,2-0.7
		c0.8,0,1.4,0.2,1.9,0.7c0.5,0.4,0.7,0.9,0.7,1.5c0,0.4-0.1,0.8-0.4,1.1c-0.3,0.4-0.8,0.8-1.6,1.3c0.8,0.7,1.4,1.2,1.7,1.6
		c0.4,0.5,0.6,1,0.6,1.6c0,0.7-0.3,1.3-0.8,1.8c-0.5,0.5-1.2,0.7-2.1,0.7c-1,0-1.7-0.3-2.2-0.9c-0.4-0.5-0.6-1-0.6-1.6
		c0-0.4,0.1-0.9,0.4-1.3C46,57.5,46.5,57,47.2,56.4 M48.4,55.7c0.6-0.5,0.9-0.9,1.1-1.2c0.1-0.3,0.2-0.6,0.2-1
		c0-0.5-0.1-0.9-0.4-1.2c-0.3-0.3-0.7-0.4-1.2-0.4c-0.5,0-0.9,0.1-1.2,0.4c-0.3,0.3-0.5,0.6-0.5,1c0,0.3,0.1,0.5,0.2,0.8
		c0.1,0.3,0.3,0.5,0.5,0.7L48.4,55.7 M47.6,56.7c-0.4,0.3-0.7,0.7-0.9,1.1c-0.2,0.4-0.3,0.8-0.3,1.3c0,0.6,0.2,1.1,0.5,1.5
		s0.8,0.6,1.3,0.6c0.5,0,0.9-0.1,1.3-0.4c0.3-0.3,0.5-0.7,0.5-1.1c0-0.3-0.1-0.7-0.3-0.9C49.3,58.2,48.6,57.6,47.6,56.7L47.6,56.7z"
		/>
	<path class="st4" d="M52.3,56.5c0-1.1,0.2-2.1,0.5-2.9c0.3-0.8,0.8-1.4,1.4-1.8c0.4-0.3,0.9-0.5,1.4-0.5c0.8,0,1.4,0.4,2.1,1.2
		c0.8,1,1.1,2.3,1.1,3.9c0,1.2-0.2,2.1-0.5,2.9c-0.3,0.8-0.8,1.4-1.3,1.7c-0.5,0.4-1,0.5-1.5,0.5c-1,0-1.7-0.6-2.4-1.7
		C52.6,59,52.3,57.9,52.3,56.5 M53.8,56.7c0,1.4,0.2,2.5,0.5,3.3c0.3,0.7,0.7,1.1,1.2,1.1c0.3,0,0.5-0.1,0.8-0.3
		c0.3-0.2,0.5-0.6,0.6-1.2c0.2-0.8,0.3-2,0.3-3.6c0-1.1-0.1-2.1-0.4-2.8c-0.2-0.6-0.4-0.9-0.7-1.2c-0.2-0.2-0.5-0.3-0.7-0.3
		c-0.3,0-0.6,0.1-0.9,0.4c-0.4,0.4-0.6,1.1-0.7,1.9S53.8,55.9,53.8,56.7L53.8,56.7z"/>
	<path class="st4" d="M7.7,246.4l5.4-0.4v0.4c-1.6,0.5-2.8,1.2-3.5,2.1s-1.1,2-1.1,3.2c0,1.1,0.3,2,0.8,2.9c0.5,0.9,1.4,1.5,2.5,2
		c1.2,0.5,2.6,0.7,4.4,0.7c1.4,0,2.7-0.2,3.7-0.7c1.1-0.5,1.9-1.2,2.4-2.1c0.6-0.9,0.8-2,0.8-3.2c0-1-0.2-1.9-0.6-2.7
		s-1.3-1.7-2.6-2.6l0.2-0.4c1.4,0.8,2.4,1.7,3.1,2.8c0.6,1.1,1,2.3,1,3.8c0,2.6-1,4.7-2.9,6.1c-1.4,1.1-3.2,1.6-5.1,1.6
		c-1.6,0-3-0.3-4.4-1.1c-1.3-0.7-2.4-1.7-3.1-3c-0.7-1.2-1.1-2.6-1.1-4.1c0-1.2,0.3-2.3,0.8-3.4c0.2-0.3,0.3-0.6,0.3-0.7
		c0-0.2-0.1-0.4-0.2-0.6c-0.2-0.2-0.5-0.3-0.9-0.4V246.4L7.7,246.4z"/>
	<path class="st4" d="M12.9,241.2h2.4c-1.6-0.9-2.4-1.8-2.4-2.8c0-0.4,0.1-0.8,0.4-1.1c0.3-0.3,0.6-0.4,0.9-0.4
		c0.3,0,0.6,0.1,0.8,0.3c0.2,0.2,0.3,0.4,0.3,0.7c0,0.3-0.1,0.6-0.4,0.9c-0.3,0.3-0.4,0.6-0.4,0.7c0,0.1,0.1,0.3,0.2,0.5
		c0.3,0.4,0.9,0.7,1.6,1.1h5.2c0.6,0,1.1-0.1,1.3-0.2c0.2-0.1,0.4-0.3,0.5-0.6c0.1-0.2,0.2-0.6,0.2-1.1h0.4v5.5h-0.4
		c0-0.5-0.1-0.9-0.2-1.2c-0.1-0.2-0.3-0.3-0.6-0.4c-0.1,0-0.5-0.1-1.2-0.1h-4.2c-1.2,0-2,0-2.2,0.1c-0.2,0-0.4,0.1-0.5,0.3
		c-0.1,0.1-0.2,0.3-0.2,0.5c0,0.2,0.1,0.5,0.2,0.8l-0.4,0.1l-1.3-3.3V241.2L12.9,241.2z"/>
	<path class="st4" d="M12.9,230.9c0-1.6,0.6-2.9,1.8-3.9c1.1-0.8,2.3-1.2,3.6-1.2c1,0,1.9,0.2,2.9,0.7c1,0.5,1.7,1.1,2.2,1.9
		c0.5,0.8,0.7,1.7,0.7,2.7c0,1.6-0.6,2.9-1.9,3.9c-1.1,0.8-2.3,1.2-3.6,1.2c-1,0-2-0.2-2.9-0.7c-1-0.5-1.7-1.1-2.2-1.9
		C13.1,232.6,12.9,231.8,12.9,230.9 M13.6,231.2c0,0.4,0.1,0.8,0.4,1.2c0.2,0.4,0.7,0.8,1.3,1c0.6,0.3,1.4,0.4,2.4,0.4
		c1.6,0,2.9-0.3,4-0.9c1.2-0.6,1.7-1.4,1.7-2.5c0-0.7-0.3-1.4-0.9-1.9c-0.6-0.5-1.7-0.7-3.2-0.7c-1.9,0-3.4,0.4-4.5,1.2
		C14,229.7,13.6,230.4,13.6,231.2L13.6,231.2z"/>
	<path class="st4" d="M12.9,217.2h3.6v0.4c-1.2,0.3-1.9,0.7-2.4,1.1c-0.4,0.5-0.6,1.1-0.6,1.8c0,0.6,0.1,1,0.4,1.3
		c0.3,0.3,0.6,0.5,1,0.5c0.5,0,0.8-0.1,1.1-0.4c0.3-0.2,0.7-0.7,1-1.5l0.8-1.7c0.8-1.6,1.8-2.4,3.1-2.4c1,0,1.8,0.4,2.4,1.1
		c0.6,0.7,0.9,1.6,0.9,2.5c0,0.7-0.1,1.4-0.3,2.3c-0.1,0.3-0.1,0.5-0.1,0.6c0,0.2,0.1,0.3,0.3,0.4v0.4h-3.8v-0.4
		c1.1-0.2,1.9-0.6,2.5-1.2c0.6-0.6,0.8-1.3,0.8-2.1c0-0.5-0.1-1-0.5-1.3c-0.3-0.3-0.7-0.5-1.2-0.5c-0.5,0-1,0.2-1.3,0.6
		c-0.4,0.4-0.8,1.2-1.4,2.3c-0.6,1.1-1.1,1.9-1.5,2.2c-0.4,0.4-1,0.5-1.7,0.5c-0.9,0-1.6-0.3-2.2-0.9c-0.6-0.6-0.9-1.4-0.9-2.4
		c0-0.4,0.1-0.9,0.3-1.5c0.1-0.4,0.2-0.6,0.2-0.8c0-0.1,0-0.2-0.1-0.3c0,0-0.2-0.1-0.4-0.2V217.2L12.9,217.2z"/>
	<path class="st4" d="M12.9,207.8h3.6v0.4c-1.2,0.3-1.9,0.7-2.4,1.1c-0.4,0.5-0.6,1.1-0.6,1.8c0,0.6,0.1,1,0.4,1.3
		c0.3,0.3,0.6,0.5,1,0.5c0.5,0,0.8-0.1,1.1-0.4c0.3-0.2,0.7-0.7,1-1.5l0.8-1.7c0.8-1.6,1.8-2.4,3.1-2.4c1,0,1.8,0.4,2.4,1.1
		c0.6,0.7,0.9,1.6,0.9,2.5c0,0.7-0.1,1.4-0.3,2.3c-0.1,0.3-0.1,0.5-0.1,0.6c0,0.2,0.1,0.3,0.3,0.4v0.4h-3.8v-0.4
		c1.1-0.2,1.9-0.6,2.5-1.2c0.6-0.6,0.8-1.3,0.8-2.1c0-0.5-0.1-1-0.5-1.3c-0.3-0.3-0.7-0.5-1.2-0.5c-0.5,0-1,0.2-1.3,0.6
		c-0.4,0.4-0.8,1.2-1.4,2.3c-0.6,1.1-1.1,1.9-1.5,2.2c-0.4,0.4-1,0.5-1.7,0.5c-0.9,0-1.6-0.3-2.2-0.9c-0.6-0.6-0.9-1.4-0.9-2.4
		c0-0.4,0.1-0.9,0.3-1.5c0.1-0.4,0.2-0.6,0.2-0.8c0-0.1,0-0.2-0.1-0.3c0,0-0.2-0.1-0.4-0.2V207.8L12.9,207.8z"/>
	<path class="st4" d="M8.1,183.6h0.4c0.1,0.6,0.3,1,0.5,1.3c0.4,0.4,1,0.8,1.8,1.1l13.5,5.5v0.4l-13.7,6c-0.7,0.3-1.1,0.5-1.3,0.6
		c-0.2,0.2-0.4,0.4-0.6,0.7c-0.1,0.3-0.2,0.7-0.3,1.2H8.1v-6.5h0.4c0.1,0.7,0.2,1.2,0.4,1.4c0.2,0.2,0.4,0.3,0.7,0.3
		c0.4,0,1-0.2,1.8-0.6l9.3-4l-9.2-3.7c-0.9-0.4-1.5-0.6-1.9-0.6c-0.2,0-0.4,0.1-0.6,0.3c-0.2,0.2-0.4,0.6-0.5,1.2c0,0,0,0.1,0,0.2
		H8.1V183.6L8.1,183.6z"/>
	<path class="st4" d="M22.4,179.2c0.9,1.1,1.3,1.8,1.5,2.1c0.2,0.4,0.3,0.9,0.3,1.3c0,0.7-0.2,1.3-0.7,1.8c-0.5,0.5-1.2,0.7-2,0.7
		c-0.5,0-1-0.1-1.4-0.3c-0.5-0.3-1-0.9-1.5-1.7c-0.5-0.8-1-2.1-1.7-4h-0.4c-1.1,0-1.8,0.2-2.2,0.5c-0.4,0.3-0.6,0.8-0.6,1.5
		c0,0.5,0.1,0.9,0.4,1.2c0.3,0.3,0.6,0.5,0.9,0.5l0.7,0c0.4,0,0.6,0.1,0.8,0.3c0.2,0.2,0.3,0.4,0.3,0.7s-0.1,0.5-0.3,0.7
		c-0.2,0.2-0.5,0.3-0.8,0.3c-0.7,0-1.3-0.3-1.8-1c-0.6-0.7-0.8-1.6-0.8-2.9c0-1,0.2-1.7,0.5-2.4c0.2-0.5,0.6-0.8,1.1-1
		c0.3-0.1,1-0.2,2.1-0.2h3.6c1,0,1.7,0,1.9,0c0.2,0,0.4-0.1,0.5-0.2c0.1-0.1,0.1-0.2,0.1-0.3c0-0.1,0-0.2-0.1-0.3
		c-0.1-0.2-0.4-0.5-0.9-1h0.7c1.2,0.9,1.7,1.7,1.7,2.5c0,0.4-0.1,0.7-0.4,0.9C23.5,179.1,23.1,179.2,22.4,179.2 M21.6,179.2h-4.1
		c0.5,1.2,0.8,2,1,2.3c0.3,0.6,0.7,1.1,1.1,1.3c0.4,0.3,0.8,0.4,1.2,0.4c0.6,0,1-0.2,1.4-0.5c0.4-0.3,0.6-0.7,0.6-1.2
		C22.8,180.9,22.4,180.1,21.6,179.2L21.6,179.2z"/>
	<path class="st4" d="M7.3,170.8h14.2c0.7,0,1.1,0,1.3-0.1c0.2-0.1,0.4-0.2,0.5-0.5c0.1-0.2,0.2-0.6,0.2-1.1h0.4v5.3h-0.4
		c0-0.5,0-0.8-0.1-1c-0.1-0.2-0.3-0.3-0.5-0.4c-0.2-0.1-0.7-0.2-1.3-0.2h-9.7c-1.2,0-1.9,0-2.2,0.1c-0.3,0-0.5,0.1-0.6,0.3
		s-0.1,0.3-0.1,0.5c0,0.2,0.1,0.5,0.2,0.8l-0.4,0.2l-1.3-3.2V170.8L7.3,170.8z"/>
	<path class="st4" d="M7.3,165.2c0-0.3,0.1-0.6,0.3-0.8c0.2-0.2,0.5-0.3,0.8-0.3s0.6,0.1,0.8,0.3c0.2,0.2,0.4,0.5,0.4,0.8
		s-0.1,0.6-0.4,0.8c-0.2,0.2-0.5,0.4-0.8,0.4s-0.6-0.1-0.8-0.3C7.4,165.9,7.3,165.6,7.3,165.2 M12.9,164.3h8.6c0.7,0,1.1,0,1.3-0.1
		c0.2-0.1,0.4-0.2,0.5-0.4c0.1-0.2,0.1-0.5,0.1-1h0.4v5.2h-0.4c0-0.5,0-0.9-0.1-1.1c-0.1-0.2-0.3-0.3-0.5-0.4
		c-0.2-0.1-0.7-0.2-1.3-0.2h-4.1c-1.2,0-1.9,0-2.3,0.1c-0.2,0-0.4,0.1-0.5,0.3s-0.2,0.3-0.2,0.5c0,0.2,0.1,0.5,0.2,0.8l-0.4,0.2
		l-1.3-3.2V164.3L12.9,164.3z"/>
	<path class="st4" d="M22.7,153.7c0.6,0.5,0.9,1.1,1.2,1.5c0.2,0.5,0.3,1,0.3,1.6c0,1.2-0.5,2.2-1.5,3.1c-1,0.9-2.2,1.3-3.8,1.3
		s-2.9-0.5-4.2-1.4c-1.3-1-1.9-2.2-1.9-3.8c0-0.9,0.3-1.7,0.9-2.3h-2c-1.2,0-2,0-2.3,0.1c-0.3,0-0.5,0.1-0.6,0.3
		c-0.1,0.1-0.1,0.3-0.1,0.5c0,0.2,0.1,0.5,0.2,0.8l-0.4,0.2l-1.3-3.2v-0.5h12.4c1.2,0,2,0,2.3-0.1c0.3,0,0.5-0.1,0.6-0.3
		c0.1-0.1,0.2-0.3,0.2-0.5c0-0.2-0.1-0.5-0.2-0.8l0.4-0.1l1.3,3.2v0.6H22.7 M21.9,153.7h-5.5c-0.5,0-1,0.2-1.4,0.4
		c-0.4,0.2-0.8,0.5-1,0.9c-0.2,0.4-0.3,0.8-0.3,1.1c0,0.7,0.3,1.3,0.9,1.8c0.8,0.7,2,1.1,3.6,1.1c1.6,0,2.8-0.3,3.6-1
		c0.8-0.7,1.2-1.4,1.2-2.3C23,155,22.6,154.3,21.9,153.7L21.9,153.7z"/>
	<path class="st4" d="M22.4,143.2c0.9,1.1,1.3,1.8,1.5,2.1c0.2,0.4,0.3,0.9,0.3,1.3c0,0.7-0.2,1.3-0.7,1.8c-0.5,0.5-1.2,0.7-2,0.7
		c-0.5,0-1-0.1-1.4-0.3c-0.5-0.3-1-0.9-1.5-1.7c-0.5-0.8-1-2.1-1.7-4h-0.4c-1.1,0-1.8,0.2-2.2,0.5c-0.4,0.3-0.6,0.8-0.6,1.5
		c0,0.5,0.1,0.9,0.4,1.2c0.3,0.3,0.6,0.5,0.9,0.5l0.7,0c0.4,0,0.6,0.1,0.8,0.3c0.2,0.2,0.3,0.4,0.3,0.7s-0.1,0.5-0.3,0.7
		c-0.2,0.2-0.5,0.3-0.8,0.3c-0.7,0-1.3-0.3-1.8-1c-0.6-0.7-0.8-1.6-0.8-2.9c0-1,0.2-1.7,0.5-2.4c0.2-0.5,0.6-0.8,1.1-1
		c0.3-0.1,1-0.2,2.1-0.2h3.6c1,0,1.7,0,1.9,0c0.2,0,0.4-0.1,0.5-0.2c0.1-0.1,0.1-0.2,0.1-0.3c0-0.1,0-0.2-0.1-0.3
		c-0.1-0.2-0.4-0.5-0.9-1h0.7c1.2,0.9,1.7,1.7,1.7,2.5c0,0.4-0.1,0.7-0.4,0.9C23.5,143.1,23.1,143.2,22.4,143.2 M21.6,143.2h-4.1
		c0.5,1.2,0.8,2,1,2.3c0.3,0.6,0.7,1.1,1.1,1.3c0.4,0.3,0.8,0.4,1.2,0.4c0.6,0,1-0.2,1.4-0.5c0.4-0.3,0.6-0.7,0.6-1.2
		C22.8,144.9,22.4,144.1,21.6,143.2L21.6,143.2z"/>
	<path class="st4" d="M9.7,135.3h3.5v-2.5H14v2.5h7c0.7,0,1.2-0.1,1.4-0.3c0.2-0.2,0.4-0.5,0.4-0.8c0-0.2-0.1-0.5-0.2-0.7
		c-0.1-0.2-0.4-0.4-0.7-0.6v-0.5c0.8,0.3,1.3,0.7,1.7,1.2c0.4,0.5,0.6,1,0.6,1.5c0,0.4-0.1,0.7-0.3,1.1s-0.5,0.6-0.8,0.7
		c-0.4,0.2-0.9,0.2-1.7,0.2H14v1.7h-0.4c-0.2-0.4-0.5-0.9-0.9-1.3c-0.4-0.4-0.9-0.8-1.5-1.2c-0.3-0.2-0.8-0.4-1.6-0.7V135.3
		L9.7,135.3z"/>
	<path class="st4" d="M7.3,129.2c0-0.3,0.1-0.6,0.3-0.8c0.2-0.2,0.5-0.3,0.8-0.3s0.6,0.1,0.8,0.3c0.2,0.2,0.4,0.5,0.4,0.8
		s-0.1,0.6-0.4,0.8c-0.2,0.2-0.5,0.4-0.8,0.4s-0.6-0.1-0.8-0.3C7.4,129.9,7.3,129.6,7.3,129.2 M12.9,128.3h8.6c0.7,0,1.1,0,1.3-0.1
		c0.2-0.1,0.4-0.2,0.5-0.4c0.1-0.2,0.1-0.5,0.1-1h0.4v5.2h-0.4c0-0.5,0-0.9-0.1-1.1c-0.1-0.2-0.3-0.3-0.5-0.4
		c-0.2-0.1-0.7-0.2-1.3-0.2h-4.1c-1.2,0-1.9,0-2.3,0.1c-0.2,0-0.4,0.1-0.5,0.3s-0.2,0.3-0.2,0.5c0,0.2,0.1,0.5,0.2,0.8l-0.4,0.2
		l-1.3-3.2V128.3L12.9,128.3z"/>
	<path class="st4" d="M12.9,120c0-1.6,0.6-2.9,1.8-3.9c1.1-0.8,2.3-1.2,3.6-1.2c1,0,1.9,0.2,2.9,0.7c1,0.5,1.7,1.1,2.2,1.9
		c0.5,0.8,0.7,1.7,0.7,2.7c0,1.6-0.6,2.9-1.9,3.9c-1.1,0.8-2.3,1.2-3.6,1.2c-1,0-2-0.2-2.9-0.7c-1-0.5-1.7-1.1-2.2-1.9
		C13.1,121.8,12.9,120.9,12.9,120 M13.6,120.4c0,0.4,0.1,0.8,0.4,1.2c0.2,0.4,0.7,0.8,1.3,1c0.6,0.3,1.4,0.4,2.4,0.4
		c1.6,0,2.9-0.3,4-0.9c1.2-0.6,1.7-1.4,1.7-2.5c0-0.7-0.3-1.4-0.9-1.9c-0.6-0.5-1.7-0.7-3.2-0.7c-1.9,0-3.4,0.4-4.5,1.2
		C14,118.8,13.6,119.5,13.6,120.4L13.6,120.4z"/>
	<path class="st4" d="M15.2,110.1c-1.5-1.2-2.3-2.4-2.3-3.6c0-0.6,0.1-1.1,0.4-1.5s0.8-0.8,1.4-1c0.5-0.1,1.2-0.2,2.2-0.2h4.6
		c0.7,0,1.2,0,1.4-0.2c0.2-0.1,0.4-0.2,0.5-0.4c0.1-0.2,0.1-0.6,0.1-1.1h0.4v5.3h-0.4v-0.2c0-0.5-0.1-0.8-0.2-1
		c-0.1-0.2-0.4-0.3-0.7-0.4c-0.1,0-0.5,0-1.1,0h-4.4c-1,0-1.7,0.1-2.1,0.4c-0.4,0.3-0.7,0.7-0.7,1.3c0,0.9,0.5,1.8,1.5,2.8h5.7
		c0.7,0,1.2,0,1.3-0.1c0.2-0.1,0.4-0.3,0.5-0.5s0.1-0.6,0.1-1.2h0.4v5.3h-0.4v-0.2c0-0.5-0.1-0.9-0.4-1.1c-0.3-0.2-0.8-0.3-1.6-0.3
		h-4c-1.3,0-2.1,0-2.4,0.1s-0.5,0.1-0.6,0.3s-0.2,0.3-0.2,0.5c0,0.2,0.1,0.5,0.2,0.8l-0.4,0.2l-1.3-3.2v-0.5H15.2L15.2,110.1z"/>
	<path class="st4" d="M18.6,86.4v6.2l2.5,1.1c0.6,0.3,1.1,0.4,1.4,0.4c0.3,0,0.5-0.1,0.7-0.3c0.2-0.2,0.3-0.7,0.3-1.5h0.4v5h-0.4
		c-0.1-0.6-0.3-1.1-0.5-1.3c-0.4-0.4-1.1-0.8-2.3-1.3L7.7,89v-0.4l13.2-5.5c1.1-0.4,1.8-0.8,2.1-1.2c0.3-0.4,0.5-0.9,0.5-1.5h0.4
		v6.3h-0.4c0-0.6-0.1-1-0.3-1.3C23,85.2,22.8,85,22.5,85c-0.3,0-0.9,0.2-1.6,0.5L18.6,86.4 M17.7,86.8l-6.4,2.7l6.4,2.8V86.8
		L17.7,86.8z"/>
	<path class="st4" d="M8.5,68.5H8.1v-5.6h0.4v0.6c0,0.6,0.3,1.1,0.8,1.5c0.2,0.2,0.8,0.2,1.7,0.2h6.5c1.6,0,2.8,0.2,3.7,0.5
		c0.9,0.3,1.6,0.9,2.3,1.8c0.6,0.9,0.9,2.2,0.9,3.8c0,1.7-0.3,3-0.9,3.9c-0.6,0.9-1.4,1.5-2.4,1.9c-0.7,0.2-2,0.4-3.9,0.4h-6.2
		c-1,0-1.6,0.1-1.9,0.4c-0.3,0.3-0.5,0.7-0.5,1.3v0.6H8.1v-6.9h0.4v0.6c0,0.7,0.2,1.1,0.6,1.4c0.3,0.2,0.9,0.3,1.8,0.3h6.9
		c0.6,0,1.3,0,2.1-0.2c0.8-0.1,1.4-0.3,1.9-0.6c0.4-0.3,0.8-0.7,1.1-1.3s0.4-1.2,0.4-2.1c0-1-0.2-2-0.7-2.8c-0.5-0.8-1-1.4-1.8-1.7
		c-0.7-0.3-1.9-0.5-3.6-0.5h-6.4c-1,0-1.6,0.1-1.9,0.3c-0.3,0.3-0.5,0.8-0.5,1.4V68.5L8.5,68.5z"/>
	<path class="st4" d="M7.7,48.2l5.4-0.4v0.4c-1.6,0.5-2.8,1.2-3.5,2.1c-0.7,0.9-1.1,2-1.1,3.2c0,1.1,0.3,2,0.8,2.9
		c0.5,0.9,1.4,1.5,2.5,2c1.2,0.5,2.6,0.7,4.4,0.7c1.4,0,2.7-0.2,3.7-0.7c1.1-0.5,1.9-1.2,2.4-2.1c0.6-0.9,0.8-2,0.8-3.2
		c0-1-0.2-1.9-0.6-2.7c-0.4-0.8-1.3-1.7-2.6-2.6l0.2-0.4c1.4,0.8,2.4,1.7,3.1,2.8c0.6,1.1,1,2.3,1,3.8c0,2.6-1,4.7-2.9,6.1
		c-1.4,1.1-3.2,1.6-5.1,1.6c-1.6,0-3-0.3-4.4-1.1c-1.3-0.7-2.4-1.7-3.1-3s-1.1-2.6-1.1-4.1c0-1.2,0.3-2.3,0.8-3.4
		c0.2-0.3,0.3-0.6,0.3-0.7c0-0.2-0.1-0.4-0.2-0.6c-0.2-0.2-0.5-0.3-0.9-0.4V48.2L7.7,48.2z"/>
	<polyline class="st37" points="94,265.9 114.5,106.3 135.1,100.4 155.6,72.1 176.2,74.7 196.7,87.9 217.3,76 237.8,41.7 
		258.4,61.5 278.9,56.2 299.4,51 320,54.9 340.5,57.6 361.1,66.8 381.6,93.2 402.2,89.2 422.7,112.9 443.3,107.7 463.8,103.7 
		484.3,120.8 504.9,138 525.4,130.1 546,140.6 566.5,123.5 587.1,128.8 607.6,138 628.2,135.3 648.7,145.9 	"/>
	<path class="st38" d="M66.3,277.1V30.5 M676.4,277.1V30.5 M66.3,277.1h610.2 M66.3,30.5h610.2"/>
	<path class="st39" d="M108.8,24.5h-4.4l-5.6-7.8c-0.4,0-0.8,0-1,0c-0.1,0-0.2,0-0.4,0c-0.1,0-0.2,0-0.3,0v4.8
		c0,1.1,0.1,1.7,0.3,1.9c0.3,0.4,0.8,0.5,1.4,0.5h0.6v0.5h-7.1V24h0.6c0.7,0,1.2-0.2,1.5-0.7c0.1-0.3,0.3-0.9,0.3-1.8V10.9
		c0-1-0.1-1.7-0.3-2c-0.3-0.4-0.8-0.5-1.4-0.5h-0.6V7.9h6c1.8,0,3.1,0.2,3.9,0.4c0.8,0.3,1.5,0.7,2.1,1.4c0.6,0.7,0.9,1.5,0.9,2.4
		c0,1-0.4,1.9-1,2.7c-0.7,0.8-1.7,1.3-3.1,1.6l3.4,4.8c0.8,1.1,1.4,1.8,2,2.2c0.5,0.3,1.3,0.6,2.2,0.7V24.5 M97,16
		c0.1,0,0.3,0,0.4,0c0.1,0,0.2,0,0.3,0c1.6,0,2.8-0.3,3.6-1c0.8-0.7,1.2-1.5,1.2-2.6c0-1-0.3-1.9-1-2.5c-0.6-0.7-1.5-1-2.6-1
		c-0.5,0-1.1,0.1-1.9,0.2V16L97,16z"/>
	<path class="st39" d="M111.1,17.5c0,1.7,0.4,3,1.2,3.9c0.8,1,1.8,1.4,2.9,1.4c0.7,0,1.3-0.2,1.9-0.6c0.5-0.4,1-1.1,1.4-2.1l0.4,0.2
		c-0.2,1.1-0.7,2.2-1.5,3.1c-0.8,0.9-1.9,1.3-3.1,1.3c-1.4,0-2.5-0.5-3.5-1.5c-0.9-1-1.4-2.5-1.4-4.2c0-1.9,0.5-3.4,1.5-4.5
		c1-1,2.2-1.6,3.7-1.6c1.3,0,2.3,0.4,3.1,1.3s1.2,1.9,1.2,3.3H111.1 M111.1,16.8h5.2c0-0.7-0.1-1.2-0.3-1.5c-0.2-0.5-0.5-0.8-0.9-1
		s-0.8-0.4-1.3-0.4c-0.7,0-1.3,0.3-1.8,0.8C111.5,15.2,111.2,15.9,111.1,16.8L111.1,16.8z"/>
	<path class="st39" d="M124.3,7.1V22c0,0.7,0,1.2,0.1,1.4c0.1,0.2,0.3,0.4,0.5,0.5c0.2,0.1,0.6,0.2,1.2,0.2v0.5h-5.5V24
		c0.5,0,0.8,0,1-0.2c0.2-0.1,0.3-0.3,0.4-0.5c0.1-0.3,0.2-0.7,0.2-1.4V11.8c0-1.3-0.1-2-0.1-2.3c0-0.3-0.2-0.5-0.3-0.6
		c-0.1-0.1-0.3-0.1-0.5-0.1c-0.2,0-0.5,0.1-0.8,0.2l-0.2-0.4l3.3-1.4H124.3L124.3,7.1z"/>
	<path class="st39" d="M133.8,22.9c-1.2,0.9-1.9,1.4-2.2,1.5c-0.4,0.2-0.9,0.3-1.4,0.3c-0.8,0-1.4-0.3-1.9-0.8
		c-0.5-0.5-0.8-1.2-0.8-2.1c0-0.5,0.1-1,0.4-1.4c0.3-0.5,0.9-1,1.7-1.5c0.8-0.5,2.2-1.1,4.1-1.8v-0.5c0-1.1-0.2-1.9-0.6-2.3
		c-0.3-0.4-0.9-0.6-1.5-0.6c-0.5,0-0.9,0.2-1.2,0.4c-0.3,0.3-0.5,0.6-0.5,1l0,0.7c0,0.4-0.1,0.7-0.3,0.9c-0.2,0.2-0.4,0.3-0.7,0.3
		s-0.5-0.1-0.8-0.3c-0.2-0.2-0.3-0.5-0.3-0.9c0-0.7,0.3-1.3,1.1-1.9c0.7-0.6,1.7-0.9,3-0.9c1,0,1.8,0.2,2.4,0.5
		c0.5,0.3,0.8,0.6,1.1,1.2c0.1,0.3,0.2,1.1,0.2,2.1v3.8c0,1.1,0,1.7,0.1,1.9c0.1,0.3,0.1,0.4,0.2,0.5c0.1,0.1,0.2,0.1,0.3,0.1
		c0.1,0,0.2,0,0.3-0.1c0.2-0.1,0.5-0.4,1-0.9v0.7c-0.9,1.2-1.8,1.8-2.6,1.8c-0.4,0-0.7-0.2-1-0.4C133.9,24,133.8,23.6,133.8,22.9
		 M133.8,22.1v-4.3c-1.3,0.5-2,0.9-2.4,1.1c-0.7,0.3-1.1,0.7-1.4,1.1c-0.3,0.4-0.4,0.8-0.4,1.3c0,0.6,0.2,1.1,0.5,1.5
		c0.4,0.4,0.8,0.6,1.2,0.6C131.9,23.3,132.8,22.9,133.8,22.1L133.8,22.1z"/>
	<path class="st39" d="M141.7,9.6v3.7h2.6v0.9h-2.6v7.3c0,0.7,0.1,1.2,0.3,1.5c0.2,0.3,0.5,0.4,0.8,0.4c0.3,0,0.5-0.1,0.8-0.3
		c0.3-0.1,0.4-0.4,0.6-0.8h0.5c-0.3,0.8-0.7,1.4-1.2,1.8c-0.5,0.4-1.1,0.6-1.6,0.6c-0.4,0-0.8-0.1-1.1-0.3c-0.3-0.2-0.6-0.5-0.8-0.9
		c-0.2-0.4-0.3-1-0.3-1.8v-7.5H138v-0.4c0.4-0.2,0.9-0.5,1.4-0.9c0.4-0.4,0.9-0.9,1.3-1.5c0.2-0.3,0.4-0.9,0.8-1.7H141.7L141.7,9.6z
		"/>
	<path class="st39" d="M148.3,7.1c0.4,0,0.6,0.1,0.9,0.4c0.2,0.3,0.3,0.5,0.3,0.9c0,0.3-0.1,0.6-0.3,0.9c-0.3,0.3-0.5,0.4-0.9,0.4
		s-0.6-0.1-0.9-0.4S147,8.7,147,8.4c0-0.4,0.1-0.6,0.4-0.9C147.6,7.3,147.9,7.1,148.3,7.1 M149.3,13v9c0,0.7,0.1,1.2,0.2,1.4
		c0.1,0.3,0.3,0.4,0.4,0.5s0.6,0.2,1.1,0.2v0.5h-5.4V24c0.6,0,0.9,0,1.1-0.2c0.2-0.1,0.3-0.3,0.4-0.5c0.1-0.3,0.2-0.7,0.2-1.4v-4.3
		c0-1.2,0-2-0.1-2.4c-0.1-0.3-0.1-0.4-0.3-0.5c-0.1-0.1-0.3-0.2-0.5-0.2c-0.2,0-0.5,0.1-0.8,0.2l-0.2-0.4l3.4-1.3H149.3L149.3,13z"
		/>
	<path class="st39" d="M157.9,13c1.7,0,3,0.6,4.1,1.9c0.9,1.1,1.3,2.4,1.3,3.8c0,1-0.3,2-0.7,3.1c-0.5,1-1.1,1.8-2,2.3
		c-0.9,0.5-1.8,0.8-2.8,0.8c-1.7,0-3-0.7-4-2c-0.9-1.1-1.3-2.4-1.3-3.8c0-1,0.3-2,0.8-3s1.2-1.8,2-2.3C156,13.2,156.9,13,157.9,13
		 M157.5,13.8c-0.4,0-0.9,0.2-1.3,0.4c-0.4,0.2-0.8,0.7-1.1,1.3c-0.3,0.7-0.4,1.5-0.4,2.5c0,1.6,0.3,3,1,4.2
		c0.6,1.2,1.5,1.8,2.6,1.8c0.8,0,1.4-0.3,1.9-1c0.5-0.7,0.8-1.8,0.8-3.4c0-2-0.5-3.5-1.3-4.7C159.1,14.2,158.4,13.8,157.5,13.8
		L157.5,13.8z"/>
	<path class="st39" d="M168.2,15.3c1.3-1.5,2.5-2.3,3.8-2.3c0.6,0,1.1,0.1,1.5,0.4c0.4,0.3,0.8,0.8,1.1,1.5c0.1,0.5,0.3,1.3,0.3,2.3
		V22c0,0.7,0,1.2,0.2,1.4c0.1,0.2,0.2,0.4,0.4,0.5c0.2,0.1,0.6,0.2,1.1,0.2v0.5H171V24h0.2c0.5,0,0.9-0.1,1.1-0.2
		c0.2-0.1,0.3-0.4,0.4-0.7c0-0.1,0-0.5,0-1.2v-4.6c0-1-0.1-1.8-0.4-2.2c-0.3-0.4-0.7-0.7-1.4-0.7c-1,0-1.9,0.5-2.9,1.6V22
		c0,0.8,0,1.2,0.1,1.4c0.1,0.3,0.3,0.4,0.5,0.5s0.6,0.2,1.2,0.2v0.5h-5.5V24h0.3c0.6,0,1-0.1,1.1-0.4c0.2-0.3,0.3-0.8,0.3-1.7v-4.2
		c0-1.3,0-2.1-0.1-2.4c0-0.3-0.1-0.5-0.3-0.6c-0.1-0.1-0.3-0.2-0.5-0.2c-0.3,0-0.5,0.1-0.8,0.2l-0.2-0.4l3.4-1.3h0.5V15.3
		L168.2,15.3z"/>
	<path class="st39" d="M184.6,13v3.8h-0.4c-0.3-1.2-0.7-2-1.2-2.5c-0.5-0.4-1.1-0.7-1.9-0.7c-0.6,0-1,0.2-1.4,0.5s-0.5,0.6-0.5,1
		c0,0.5,0.1,0.9,0.4,1.2c0.3,0.3,0.8,0.7,1.6,1.1l1.8,0.9c1.7,0.8,2.5,1.9,2.5,3.2c0,1-0.4,1.9-1.2,2.5c-0.8,0.6-1.6,0.9-2.6,0.9
		c-0.7,0-1.5-0.1-2.3-0.3c-0.3-0.1-0.5-0.1-0.7-0.1c-0.2,0-0.3,0.1-0.4,0.3h-0.4v-4h0.4c0.2,1.1,0.6,2,1.3,2.6
		c0.7,0.6,1.4,0.9,2.2,0.9c0.6,0,1-0.2,1.4-0.5c0.4-0.3,0.6-0.7,0.6-1.2c0-0.5-0.2-1-0.6-1.4c-0.4-0.4-1.2-0.8-2.4-1.5
		c-1.2-0.6-2-1.1-2.3-1.6c-0.4-0.5-0.5-1-0.5-1.8c0-0.9,0.3-1.7,0.9-2.3c0.6-0.6,1.4-0.9,2.4-0.9c0.4,0,1,0.1,1.6,0.3
		c0.4,0.1,0.7,0.2,0.8,0.2c0.1,0,0.2,0,0.3-0.1c0-0.1,0.1-0.2,0.3-0.4H184.6L184.6,13z"/>
	<path class="st39" d="M190.3,7.1v8.2c0.9-1,1.6-1.6,2.1-1.9c0.5-0.3,1-0.4,1.6-0.4c0.6,0,1.2,0.2,1.6,0.5c0.4,0.4,0.8,0.9,1,1.6
		c0.2,0.5,0.2,1.5,0.2,2.9v4c0,0.7,0,1.2,0.2,1.4c0.1,0.2,0.2,0.4,0.4,0.5s0.6,0.2,1.1,0.2v0.5H193V24h0.2c0.5,0,0.9-0.1,1.1-0.2
		c0.2-0.1,0.3-0.4,0.4-0.7c0-0.1,0-0.5,0-1.2v-4c0-1.2-0.1-2-0.2-2.4s-0.3-0.7-0.6-0.9c-0.3-0.2-0.6-0.3-1-0.3
		c-0.4,0-0.8,0.1-1.3,0.3c-0.4,0.2-0.9,0.6-1.5,1.3V22c0,0.8,0,1.3,0.1,1.4c0.1,0.2,0.2,0.4,0.5,0.5c0.2,0.1,0.6,0.2,1.2,0.2v0.5
		h-5.6V24c0.5,0,0.9-0.1,1.2-0.2c0.1-0.1,0.3-0.2,0.4-0.4c0.1-0.2,0.1-0.7,0.1-1.4V11.8c0-1.3-0.1-2-0.1-2.3
		c-0.1-0.3-0.2-0.5-0.3-0.6c-0.1-0.1-0.3-0.1-0.5-0.1c-0.2,0-0.5,0.1-0.8,0.2l-0.2-0.4l3.3-1.4H190.3L190.3,7.1z"/>
	<path class="st39" d="M202.5,7.1c0.3,0,0.6,0.1,0.9,0.4c0.2,0.3,0.3,0.5,0.3,0.9c0,0.3-0.1,0.6-0.3,0.9c-0.3,0.3-0.5,0.4-0.9,0.4
		c-0.4,0-0.6-0.1-0.9-0.4c-0.2-0.3-0.4-0.5-0.4-0.9c0-0.4,0.1-0.6,0.4-0.9C201.9,7.3,202.2,7.1,202.5,7.1 M203.6,13v9
		c0,0.7,0.1,1.2,0.2,1.4c0.1,0.3,0.3,0.4,0.4,0.5s0.6,0.2,1.1,0.2v0.5h-5.4V24c0.6,0,0.9,0,1.1-0.2c0.2-0.1,0.3-0.3,0.4-0.5
		c0.1-0.3,0.2-0.7,0.2-1.4v-4.3c0-1.2,0-2-0.1-2.4c-0.1-0.3-0.1-0.4-0.3-0.5c-0.1-0.1-0.3-0.2-0.5-0.2c-0.2,0-0.5,0.1-0.8,0.2
		l-0.2-0.4L203,13H203.6L203.6,13z"/>
	<path class="st39" d="M205.6,14.4L209,13h0.4v2.6c0.6-1,1.2-1.6,1.8-2c0.6-0.4,1.2-0.6,1.8-0.6c1.1,0,2.1,0.4,2.8,1.3
		c0.9,1.1,1.4,2.5,1.4,4.2c0,1.9-0.6,3.5-1.7,4.8c-0.9,1-2.1,1.5-3.4,1.5c-0.6,0-1.1-0.1-1.6-0.3c-0.3-0.1-0.7-0.3-1.1-0.7v3.4
		c0,0.8,0.1,1.3,0.2,1.4c0.1,0.2,0.3,0.4,0.5,0.5c0.2,0.1,0.6,0.2,1.3,0.2v0.4h-5.8v-0.4h0.3c0.4,0,0.8-0.1,1.2-0.3
		c0.1-0.1,0.2-0.3,0.3-0.5c0.1-0.2,0.1-0.7,0.1-1.5V16.6c0-0.7-0.1-1.2-0.1-1.4c-0.1-0.2-0.2-0.4-0.3-0.5c-0.1-0.1-0.3-0.1-0.6-0.1
		c-0.2,0-0.4,0.1-0.8,0.2L205.6,14.4 M209.5,16.4v4.2c0,0.9,0,1.5,0.1,1.8c0.1,0.5,0.4,0.9,0.8,1.3c0.4,0.4,1,0.5,1.7,0.5
		c0.8,0,1.5-0.3,2-1c0.6-0.8,1-2,1-3.5c0-1.7-0.4-3-1.1-4c-0.5-0.6-1.2-0.9-1.9-0.9c-0.4,0-0.8,0.1-1.2,0.3
		C210.6,15.2,210.2,15.6,209.5,16.4L209.5,16.4z"/>
	<path class="st39" d="M228.4,15.2c1.1-1.5,2.3-2.3,3.5-2.3c1.2,0,2.1,0.5,3,1.5s1.3,2.3,1.3,4c0,2-0.7,3.6-2,4.8
		c-1.1,1-2.4,1.5-3.8,1.5c-0.7,0-1.3-0.1-2-0.3s-1.4-0.6-2-1.1V11.8c0-1.3-0.1-2-0.1-2.3c-0.1-0.3-0.2-0.5-0.3-0.6
		c-0.2-0.1-0.3-0.1-0.5-0.1c-0.3,0-0.5,0.1-0.9,0.2l-0.1-0.4l3.3-1.4h0.6V15.2 M228.4,16v6.7c0.4,0.4,0.8,0.7,1.3,0.9
		c0.4,0.2,0.9,0.3,1.4,0.3c0.7,0,1.4-0.4,2.1-1.2c0.6-0.8,1-2,1-3.5c0-1.4-0.3-2.5-1-3.3c-0.6-0.8-1.4-1.2-2.2-1.2
		c-0.4,0-0.9,0.1-1.3,0.3C229.3,15.2,228.9,15.5,228.4,16L228.4,16z"/>
	<path class="st39" d="M239.7,17.5c0,1.7,0.4,3,1.2,3.9c0.8,1,1.8,1.4,2.9,1.4c0.7,0,1.3-0.2,1.9-0.6c0.6-0.4,1-1.1,1.4-2.1l0.4,0.2
		c-0.2,1.1-0.7,2.2-1.5,3.1c-0.8,0.9-1.9,1.3-3.1,1.3c-1.4,0-2.5-0.5-3.4-1.5c-1-1-1.4-2.5-1.4-4.2c0-1.9,0.5-3.4,1.5-4.5
		c1-1,2.2-1.6,3.7-1.6c1.2,0,2.3,0.4,3.1,1.3c0.8,0.8,1.2,1.9,1.2,3.3H239.7 M239.7,16.8h5.2c-0.1-0.7-0.1-1.2-0.3-1.5
		c-0.2-0.5-0.5-0.8-0.9-1c-0.4-0.3-0.8-0.4-1.3-0.4c-0.7,0-1.3,0.3-1.8,0.8C240.1,15.2,239.8,15.9,239.7,16.8L239.7,16.8z"/>
	<path class="st39" d="M252.1,9.6v3.7h2.6v0.9h-2.6v7.3c0,0.7,0.1,1.2,0.3,1.5c0.2,0.3,0.5,0.4,0.8,0.4c0.3,0,0.5-0.1,0.8-0.3
		c0.3-0.1,0.4-0.4,0.6-0.8h0.5c-0.3,0.8-0.7,1.4-1.2,1.8c-0.5,0.4-1,0.6-1.6,0.6c-0.4,0-0.8-0.1-1.1-0.3c-0.3-0.2-0.6-0.5-0.8-0.9
		c-0.2-0.4-0.3-1-0.3-1.8v-7.5h-1.8v-0.4c0.5-0.2,0.9-0.5,1.4-0.9c0.4-0.4,0.9-0.9,1.3-1.5c0.2-0.3,0.4-0.9,0.8-1.7H252.1L252.1,9.6
		z"/>
	<path class="st39" d="M255.2,13.3h4.7v0.5c-0.5,0-0.7,0.1-0.9,0.2c-0.1,0.1-0.2,0.3-0.2,0.5c0,0.3,0,0.6,0.2,0.9l2.4,6.4l2.4-5.2
		l-0.6-1.6c-0.2-0.5-0.5-0.8-0.8-1c-0.2-0.1-0.5-0.2-1-0.2v-0.5h5.3v0.5c-0.6,0-1,0.1-1.3,0.3c-0.2,0.2-0.3,0.3-0.3,0.6
		c0,0.2,0,0.4,0.1,0.5l2.6,6.4l2.3-6.2c0.1-0.4,0.3-0.8,0.3-1c0-0.1-0.1-0.3-0.3-0.4c-0.1-0.1-0.5-0.2-0.9-0.2v-0.5h3.5v0.5
		c-0.7,0.1-1.3,0.6-1.6,1.4l-3.7,9.6h-0.5l-2.8-7.1l-3.3,7.1h-0.5l-3.6-9.4c-0.3-0.6-0.5-1-0.7-1.2c-0.2-0.2-0.6-0.4-1.1-0.5V13.3
		L255.2,13.3z"/>
	<path class="st39" d="M275.7,17.5c0,1.7,0.4,3,1.2,3.9c0.8,1,1.8,1.4,2.9,1.4c0.7,0,1.3-0.2,1.9-0.6c0.6-0.4,1-1.1,1.4-2.1l0.4,0.2
		c-0.2,1.1-0.7,2.2-1.5,3.1c-0.8,0.9-1.9,1.3-3.1,1.3c-1.4,0-2.5-0.5-3.5-1.5c-0.9-1-1.4-2.5-1.4-4.2c0-1.9,0.5-3.4,1.5-4.5
		c1-1,2.2-1.6,3.7-1.6c1.3,0,2.3,0.4,3.1,1.3s1.2,1.9,1.2,3.3H275.7 M275.7,16.8h5.2c0-0.7-0.1-1.2-0.3-1.5c-0.2-0.5-0.5-0.8-0.9-1
		s-0.8-0.4-1.3-0.4c-0.7,0-1.3,0.3-1.8,0.8C276.1,15.2,275.8,15.9,275.7,16.8L275.7,16.8z"/>
	<path class="st39" d="M286.8,17.5c0,1.7,0.4,3,1.2,3.9c0.8,1,1.8,1.4,2.9,1.4c0.7,0,1.3-0.2,1.9-0.6c0.6-0.4,1-1.1,1.4-2.1l0.4,0.2
		c-0.2,1.1-0.7,2.2-1.5,3.1c-0.8,0.9-1.9,1.3-3.1,1.3c-1.3,0-2.5-0.5-3.4-1.5c-1-1-1.4-2.5-1.4-4.2c0-1.9,0.5-3.4,1.5-4.5
		c1-1,2.2-1.6,3.7-1.6c1.3,0,2.3,0.4,3.1,1.3c0.8,0.8,1.2,1.9,1.2,3.3H286.8 M286.8,16.8h5.2c0-0.7-0.1-1.2-0.2-1.5
		c-0.2-0.5-0.5-0.8-0.9-1c-0.4-0.3-0.8-0.4-1.3-0.4c-0.7,0-1.3,0.3-1.8,0.8C287.2,15.2,286.9,15.9,286.8,16.8L286.8,16.8z"/>
	<path class="st39" d="M299.4,15.3c1.3-1.5,2.6-2.3,3.8-2.3c0.6,0,1.1,0.1,1.6,0.4c0.5,0.3,0.8,0.8,1.1,1.5c0.2,0.5,0.3,1.3,0.3,2.3
		V22c0,0.7,0.1,1.2,0.2,1.4c0.1,0.2,0.2,0.4,0.4,0.5c0.2,0.1,0.6,0.2,1.1,0.2v0.5h-5.5V24h0.3c0.5,0,0.9-0.1,1.1-0.2
		c0.2-0.1,0.4-0.4,0.5-0.7c0-0.1,0-0.5,0-1.2v-4.6c0-1-0.1-1.8-0.4-2.2c-0.3-0.4-0.7-0.7-1.4-0.7c-1,0-1.9,0.5-2.9,1.6V22
		c0,0.8,0,1.2,0.1,1.4c0.1,0.3,0.3,0.4,0.5,0.5c0.2,0.1,0.6,0.2,1.2,0.2v0.5h-5.5V24h0.3c0.5,0,0.9-0.1,1.1-0.4
		c0.2-0.3,0.3-0.8,0.3-1.7v-4.2c0-1.3,0-2.1-0.1-2.4c0-0.3-0.1-0.5-0.3-0.6c-0.1-0.1-0.3-0.2-0.5-0.2c-0.3,0-0.5,0.1-0.8,0.2
		l-0.2-0.4l3.4-1.3h0.5V15.3L299.4,15.3z"/>
	<path class="st39" d="M318.1,9.6v3.7h2.6v0.9h-2.6v7.3c0,0.7,0.1,1.2,0.3,1.5c0.2,0.3,0.5,0.4,0.8,0.4c0.3,0,0.5-0.1,0.8-0.3
		c0.3-0.1,0.4-0.4,0.6-0.8h0.5c-0.3,0.8-0.7,1.4-1.2,1.8c-0.5,0.4-1,0.6-1.6,0.6c-0.4,0-0.8-0.1-1.1-0.3c-0.3-0.2-0.6-0.5-0.8-0.9
		c-0.2-0.4-0.3-1-0.3-1.8v-7.5h-1.8v-0.4c0.5-0.2,0.9-0.5,1.4-0.9c0.5-0.4,0.9-0.9,1.3-1.5c0.2-0.3,0.4-0.9,0.8-1.7H318.1L318.1,9.6
		z"/>
	<path class="st39" d="M325.1,7.1v8.2c0.9-1,1.6-1.6,2.1-1.9c0.5-0.3,1-0.4,1.6-0.4c0.6,0,1.2,0.2,1.6,0.5c0.4,0.4,0.8,0.9,1,1.6
		c0.1,0.5,0.2,1.5,0.2,2.9v4c0,0.7,0,1.2,0.2,1.4c0.1,0.2,0.2,0.4,0.4,0.5c0.2,0.1,0.6,0.2,1.1,0.2v0.5h-5.5V24h0.3
		c0.5,0,0.9-0.1,1.1-0.2c0.2-0.1,0.4-0.4,0.4-0.7c0-0.1,0-0.5,0-1.2v-4c0-1.2-0.1-2-0.2-2.4s-0.3-0.7-0.6-0.9s-0.6-0.3-1-0.3
		s-0.8,0.1-1.3,0.3c-0.4,0.2-0.9,0.6-1.5,1.3V22c0,0.8,0,1.3,0.1,1.4c0.1,0.2,0.2,0.4,0.5,0.5c0.2,0.1,0.6,0.2,1.2,0.2v0.5h-5.5V24
		c0.5,0,0.9-0.1,1.2-0.2c0.2-0.1,0.3-0.2,0.4-0.4c0.1-0.2,0.1-0.7,0.1-1.4V11.8c0-1.3-0.1-2-0.1-2.3c-0.1-0.3-0.2-0.5-0.3-0.6
		s-0.3-0.1-0.5-0.1c-0.2,0-0.5,0.1-0.8,0.2l-0.2-0.4l3.3-1.4H325.1L325.1,7.1z"/>
	<path class="st39" d="M336.2,17.5c0,1.7,0.4,3,1.2,3.9c0.8,1,1.8,1.4,2.9,1.4c0.7,0,1.3-0.2,1.9-0.6c0.5-0.4,1-1.1,1.4-2.1l0.4,0.2
		c-0.2,1.1-0.7,2.2-1.5,3.1c-0.8,0.9-1.8,1.3-3.1,1.3c-1.3,0-2.5-0.5-3.4-1.5s-1.4-2.5-1.4-4.2c0-1.9,0.5-3.4,1.5-4.5
		c1-1,2.2-1.6,3.7-1.6c1.3,0,2.3,0.4,3.1,1.3c0.8,0.8,1.2,1.9,1.2,3.3H336.2 M336.2,16.8h5.2c-0.1-0.7-0.1-1.2-0.3-1.5
		c-0.2-0.5-0.5-0.8-0.9-1c-0.4-0.3-0.8-0.4-1.3-0.4c-0.7,0-1.3,0.3-1.8,0.8C336.6,15.2,336.3,15.9,336.2,16.8L336.2,16.8z"/>
	<path class="st39" d="M360.8,18.9h-6.4l-1.1,2.6c-0.3,0.7-0.4,1.1-0.4,1.4c0,0.3,0.1,0.5,0.4,0.7c0.2,0.2,0.8,0.3,1.5,0.4v0.5h-5.2
		V24c0.7-0.1,1.1-0.3,1.4-0.5c0.4-0.4,0.8-1.2,1.4-2.4l5.8-13.6h0.4l5.8,13.8c0.4,1.1,0.9,1.8,1.3,2.2c0.4,0.3,0.9,0.5,1.6,0.5v0.5
		h-6.5V24c0.6,0,1.1-0.1,1.3-0.3c0.2-0.2,0.4-0.4,0.4-0.7c0-0.4-0.2-0.9-0.5-1.7L360.8,18.9 M360.5,18l-2.8-6.7l-2.9,6.7H360.5
		L360.5,18z"/>
	<path class="st39" d="M379.3,8.4V7.9h5.8v0.5h-0.6c-0.7,0-1.2,0.3-1.5,0.8c-0.2,0.3-0.3,0.8-0.3,1.8v6.7c0,1.7-0.2,3-0.5,3.8
		c-0.3,0.9-1,1.7-1.9,2.4c-1,0.6-2.3,1-4,1c-1.8,0-3.2-0.3-4.1-0.9c-1-0.6-1.6-1.5-2-2.5c-0.3-0.7-0.4-2.1-0.4-4.1v-6.5
		c0-1-0.2-1.7-0.4-2c-0.3-0.3-0.8-0.5-1.4-0.5h-0.6V7.9h7.2v0.5H374c-0.7,0-1.2,0.2-1.4,0.7c-0.2,0.3-0.3,0.9-0.3,1.8v7.2
		c0,0.7,0.1,1.4,0.2,2.2c0.1,0.8,0.3,1.5,0.6,2c0.3,0.4,0.8,0.8,1.3,1.1c0.6,0.3,1.3,0.5,2.2,0.5c1.1,0,2-0.2,2.9-0.7
		s1.4-1.1,1.8-1.8c0.3-0.7,0.5-2,0.5-3.8v-6.7c0-1-0.1-1.7-0.3-2c-0.3-0.4-0.8-0.5-1.4-0.5H379.3L379.3,8.4z"/>
	<path class="st39" d="M400.7,7.6l0.4,5.6h-0.4c-0.5-1.7-1.2-2.9-2.2-3.6c-1-0.8-2.1-1.1-3.4-1.1c-1.1,0-2.1,0.3-3,0.9
		s-1.6,1.5-2.1,2.6c-0.5,1.2-0.8,2.8-0.8,4.6c0,1.5,0.2,2.8,0.7,3.9c0.5,1.1,1.2,2,2.2,2.5c1,0.6,2.1,0.9,3.3,0.9c1,0,2-0.2,2.8-0.7
		c0.8-0.5,1.7-1.4,2.7-2.8l0.4,0.3c-0.8,1.5-1.8,2.5-2.9,3.2c-1.1,0.7-2.4,1-4,1c-2.8,0-4.9-1-6.4-3c-1.1-1.5-1.7-3.3-1.7-5.3
		c0-1.7,0.4-3.2,1.1-4.5c0.8-1.4,1.8-2.5,3.1-3.2c1.3-0.8,2.7-1.2,4.3-1.2c1.2,0,2.4,0.3,3.6,0.9c0.3,0.2,0.6,0.3,0.7,0.3
		c0.2,0,0.4-0.1,0.6-0.3c0.2-0.2,0.4-0.5,0.5-0.9H400.7L400.7,7.6z"/>
	<path class="st39" d="M415.5,22.9c-1.1,0.9-1.9,1.4-2.2,1.5c-0.5,0.2-0.9,0.3-1.4,0.3c-0.8,0-1.4-0.3-1.9-0.8
		c-0.5-0.5-0.8-1.2-0.8-2.1c0-0.5,0.1-1,0.4-1.4c0.3-0.5,0.9-1,1.7-1.5c0.8-0.5,2.2-1.1,4.1-1.8v-0.5c0-1.1-0.2-1.9-0.5-2.3
		c-0.4-0.4-0.9-0.6-1.5-0.6c-0.5,0-0.9,0.2-1.2,0.4c-0.3,0.3-0.5,0.6-0.5,1l0,0.7c0,0.4-0.1,0.7-0.3,0.9c-0.2,0.2-0.4,0.3-0.7,0.3
		s-0.6-0.1-0.8-0.3c-0.2-0.2-0.3-0.5-0.3-0.9c0-0.7,0.4-1.3,1.1-1.9c0.7-0.6,1.7-0.9,3-0.9c1,0,1.8,0.2,2.5,0.5
		c0.5,0.3,0.8,0.6,1,1.2c0.2,0.3,0.2,1.1,0.2,2.1v3.8c0,1.1,0,1.7,0.1,1.9c0,0.3,0.1,0.4,0.2,0.5c0.1,0.1,0.2,0.1,0.4,0.1
		c0.1,0,0.2,0,0.3-0.1c0.2-0.1,0.5-0.4,1-0.9v0.7c-0.9,1.2-1.8,1.8-2.6,1.8c-0.4,0-0.7-0.2-1-0.4C415.6,24,415.5,23.6,415.5,22.9
		 M415.5,22.1v-4.3c-1.3,0.5-2,0.9-2.4,1.1c-0.6,0.3-1.1,0.7-1.4,1.1c-0.3,0.4-0.4,0.8-0.4,1.3c0,0.6,0.2,1.1,0.5,1.5
		c0.4,0.4,0.8,0.6,1.2,0.6C413.7,23.3,414.5,22.9,415.5,22.1L415.5,22.1z"/>
	<path class="st39" d="M423.5,15.3c1.3-1.5,2.5-2.3,3.8-2.3c0.6,0,1.1,0.1,1.6,0.4c0.4,0.3,0.8,0.8,1.1,1.5c0.1,0.5,0.3,1.3,0.3,2.3
		V22c0,0.7,0,1.2,0.2,1.4c0.1,0.2,0.2,0.4,0.4,0.5c0.2,0.1,0.6,0.2,1.1,0.2v0.5h-5.5V24h0.3c0.5,0,0.9-0.1,1.1-0.2
		c0.2-0.1,0.4-0.4,0.5-0.7c0-0.1,0-0.5,0-1.2v-4.6c0-1-0.1-1.8-0.4-2.2c-0.3-0.4-0.7-0.7-1.4-0.7c-1,0-1.9,0.5-2.9,1.6V22
		c0,0.8,0,1.2,0.1,1.4c0.1,0.3,0.3,0.4,0.5,0.5c0.2,0.1,0.6,0.2,1.2,0.2v0.5h-5.5V24h0.2c0.6,0,1-0.1,1.1-0.4
		c0.2-0.3,0.3-0.8,0.3-1.7v-4.2c0-1.3,0-2.1-0.1-2.4c0-0.3-0.1-0.5-0.3-0.6c-0.1-0.1-0.3-0.2-0.5-0.2c-0.3,0-0.5,0.1-0.8,0.2
		l-0.2-0.4L423,13h0.5V15.3L423.5,15.3z"/>
	<path class="st39" d="M440.9,23.2c-0.5,0.6-1.1,1-1.6,1.2c-0.5,0.2-1.1,0.3-1.7,0.3c-1.2,0-2.3-0.5-3.2-1.5c-0.9-1-1.4-2.3-1.4-3.9
		c0-1.6,0.5-3.1,1.5-4.4c1-1.3,2.3-2,3.9-2c1,0,1.8,0.3,2.4,1v-2.1c0-1.3,0-2-0.1-2.3c0-0.3-0.1-0.5-0.3-0.6
		c-0.1-0.1-0.3-0.1-0.5-0.1c-0.2,0-0.5,0.1-0.8,0.2L439,8.5l3.4-1.4h0.5v12.9c0,1.3,0,2.1,0.1,2.4s0.1,0.5,0.3,0.6
		c0.1,0.1,0.3,0.2,0.5,0.2c0.2,0,0.5-0.1,0.9-0.2l0.1,0.4l-3.3,1.4h-0.6V23.2 M440.9,22.4v-5.8c0-0.6-0.2-1.1-0.4-1.5
		c-0.3-0.5-0.6-0.8-1-1.1c-0.4-0.2-0.8-0.3-1.2-0.3c-0.7,0-1.4,0.3-1.9,1c-0.8,0.8-1.1,2.1-1.1,3.7c0,1.6,0.4,2.9,1.1,3.8
		c0.7,0.9,1.5,1.3,2.4,1.3C439.5,23.5,440.2,23.1,440.9,22.4L440.9,22.4z"/>
	<path class="st39" d="M450.6,7.9h4.5l10.1,12.4v-9.5c0-1-0.1-1.7-0.3-1.9c-0.3-0.3-0.8-0.5-1.4-0.5h-0.6V7.9h5.8v0.5H468
		c-0.7,0-1.2,0.2-1.5,0.6c-0.2,0.3-0.3,0.9-0.3,1.8v13.9h-0.4l-10.9-13.3v10.2c0,1,0.1,1.6,0.3,1.9c0.3,0.4,0.8,0.5,1.4,0.5h0.6v0.5
		h-5.8V24h0.6c0.7,0,1.2-0.2,1.5-0.6c0.2-0.2,0.3-0.8,0.3-1.8V10.1c-0.5-0.6-0.8-0.9-1.1-1.1c-0.3-0.2-0.6-0.3-1.1-0.5
		c-0.3-0.1-0.6-0.1-1.1-0.1V7.9L450.6,7.9z"/>
	<path class="st39" d="M479.5,13.3v6.8c0,1.3,0,2.1,0.1,2.4c0,0.3,0.1,0.5,0.3,0.6c0.1,0.1,0.3,0.2,0.5,0.2c0.2,0,0.5-0.1,0.8-0.2
		l0.2,0.4l-3.3,1.4h-0.6v-2.3c-1,1-1.7,1.7-2.2,2c-0.5,0.3-1.1,0.4-1.6,0.4c-0.6,0-1.2-0.2-1.6-0.5c-0.5-0.4-0.8-0.8-1-1.4
		c-0.2-0.5-0.3-1.4-0.3-2.4v-5c0-0.5-0.1-0.9-0.2-1.1c-0.1-0.2-0.3-0.4-0.5-0.5c-0.2-0.1-0.6-0.2-1.2-0.2v-0.5h3.9v7.5
		c0,1.1,0.2,1.8,0.5,2.1c0.4,0.3,0.8,0.5,1.3,0.5c0.4,0,0.7-0.1,1.2-0.3c0.5-0.2,1-0.6,1.6-1.3v-6.3c0-0.6-0.1-1-0.4-1.3
		c-0.3-0.2-0.7-0.3-1.4-0.4v-0.5H479.5L479.5,13.3z"/>
	<path class="st39" d="M485.5,15.4c0.8-0.8,1.3-1.3,1.5-1.4c0.4-0.3,0.8-0.5,1.2-0.7c0.4-0.2,0.8-0.3,1.3-0.3c0.7,0,1.3,0.2,1.8,0.6
		s0.8,1,1,1.8c0.8-1,1.5-1.6,2.1-1.9c0.6-0.3,1.2-0.4,1.8-0.4s1.1,0.1,1.6,0.4c0.4,0.3,0.8,0.8,1.1,1.5c0.2,0.5,0.3,1.2,0.3,2.2V22
		c0,0.7,0,1.2,0.1,1.4c0.1,0.2,0.2,0.3,0.4,0.5c0.2,0.1,0.6,0.2,1.1,0.2v0.5h-5.5V24h0.2c0.5,0,0.9-0.1,1.1-0.3
		c0.2-0.1,0.3-0.3,0.4-0.6c0-0.1,0-0.5,0-1.2v-4.8c0-0.9-0.1-1.5-0.3-2c-0.3-0.5-0.8-0.8-1.5-0.8c-0.5,0-0.9,0.1-1.3,0.3
		c-0.4,0.2-1,0.6-1.6,1.2l0,0.2l0,0.5V22c0,0.8,0,1.3,0.1,1.4c0.1,0.2,0.2,0.4,0.5,0.5c0.2,0.1,0.6,0.2,1.2,0.2v0.5h-5.6V24
		c0.6,0,1,0,1.3-0.2c0.2-0.2,0.4-0.4,0.5-0.7c0-0.1,0-0.5,0-1.2v-4.8c0-0.9-0.1-1.6-0.4-2c-0.4-0.5-0.9-0.8-1.5-0.8
		c-0.4,0-0.9,0.1-1.3,0.4c-0.7,0.4-1.2,0.8-1.6,1.2v6c0,0.8,0.1,1.2,0.1,1.4c0.1,0.2,0.3,0.4,0.5,0.5s0.6,0.2,1.2,0.2v0.5h-5.5V24
		c0.5,0,0.8,0,1-0.2s0.4-0.3,0.5-0.5s0.1-0.7,0.1-1.4v-4.3c0-1.2,0-2-0.1-2.4c0-0.3-0.1-0.4-0.3-0.5c-0.1-0.1-0.3-0.2-0.5-0.2
		c-0.2,0-0.5,0.1-0.8,0.2l-0.2-0.4L485,13h0.5V15.4L485.5,15.4z"/>
	<path class="st39" d="M504.7,15.2c1.1-1.5,2.3-2.3,3.5-2.3c1.1,0,2.1,0.5,3,1.5c0.8,1,1.3,2.3,1.3,4c0,2-0.7,3.6-2,4.8
		c-1.2,1-2.4,1.5-3.8,1.5c-0.6,0-1.3-0.1-2-0.3s-1.4-0.6-2-1.1V11.8c0-1.3-0.1-2-0.1-2.3c0-0.3-0.1-0.5-0.3-0.6
		c-0.1-0.1-0.3-0.1-0.5-0.1c-0.3,0-0.5,0.1-0.9,0.2l-0.1-0.4l3.3-1.4h0.5V15.2 M504.7,16v6.7c0.4,0.4,0.8,0.7,1.3,0.9
		c0.5,0.2,0.9,0.3,1.4,0.3c0.7,0,1.4-0.4,2-1.2c0.7-0.8,1-2,1-3.5c0-1.4-0.3-2.5-1-3.3c-0.6-0.8-1.4-1.2-2.2-1.2
		c-0.5,0-0.9,0.1-1.3,0.3C505.6,15.2,505.2,15.5,504.7,16L504.7,16z"/>
	<path class="st39" d="M516,17.5c0,1.7,0.4,3,1.2,3.9c0.8,1,1.8,1.4,2.9,1.4c0.7,0,1.3-0.2,1.9-0.6c0.6-0.4,1-1.1,1.4-2.1l0.4,0.2
		c-0.2,1.1-0.7,2.2-1.5,3.1c-0.8,0.9-1.8,1.3-3.1,1.3c-1.4,0-2.5-0.5-3.5-1.5c-0.9-1-1.4-2.5-1.4-4.2c0-1.9,0.5-3.4,1.5-4.5
		c1-1,2.2-1.6,3.7-1.6c1.3,0,2.3,0.4,3.1,1.3c0.8,0.8,1.2,1.9,1.2,3.3H516 M516,16.8h5.2c0-0.7-0.1-1.2-0.3-1.5
		c-0.2-0.5-0.5-0.8-0.9-1c-0.4-0.3-0.8-0.4-1.3-0.4c-0.7,0-1.3,0.3-1.8,0.8C516.4,15.2,516.1,15.9,516,16.8L516,16.8z"/>
	<path class="st39" d="M528.4,13v2.5c0.9-1.7,1.9-2.5,2.9-2.5c0.5,0,0.8,0.1,1.1,0.4c0.3,0.3,0.5,0.6,0.5,1c0,0.3-0.1,0.6-0.3,0.8
		c-0.2,0.2-0.5,0.3-0.8,0.3s-0.6-0.1-1-0.4c-0.3-0.3-0.6-0.4-0.8-0.4c-0.1,0-0.3,0.1-0.5,0.3c-0.4,0.3-0.8,0.9-1.2,1.6v5.4
		c0,0.6,0.1,1.1,0.2,1.4c0.1,0.2,0.3,0.4,0.6,0.5c0.3,0.2,0.7,0.2,1.2,0.2v0.5h-5.7V24c0.5,0,1-0.1,1.3-0.3c0.2-0.1,0.3-0.3,0.4-0.6
		c0-0.2,0.1-0.5,0.1-1.2v-4.3c0-1.3,0-2.1-0.1-2.3c0-0.3-0.2-0.4-0.3-0.5c-0.1-0.1-0.3-0.2-0.5-0.2c-0.3,0-0.6,0.1-0.9,0.2l-0.1-0.4
		l3.4-1.3H528.4L528.4,13z"/>
	<path class="st39" d="M545.2,13c1.7,0,3,0.6,4.1,1.9c0.8,1.1,1.3,2.4,1.3,3.8c0,1-0.3,2-0.7,3.1c-0.5,1-1.1,1.8-2,2.3
		c-0.8,0.5-1.8,0.8-2.8,0.8c-1.7,0-3-0.7-4-2c-0.9-1.1-1.3-2.4-1.3-3.8c0-1,0.3-2,0.8-3s1.2-1.8,2-2.3C543.4,13.2,544.3,13,545.2,13
		 M544.9,13.8c-0.5,0-0.9,0.2-1.3,0.4c-0.4,0.2-0.8,0.7-1.1,1.3c-0.3,0.7-0.4,1.5-0.4,2.5c0,1.6,0.3,3,1,4.2
		c0.7,1.2,1.5,1.8,2.6,1.8c0.8,0,1.4-0.3,2-1c0.5-0.7,0.8-1.8,0.8-3.4c0-2-0.5-3.5-1.3-4.7C546.5,14.2,545.8,13.8,544.9,13.8
		L544.9,13.8z"/>
	<path class="st39" d="M556.6,14.2v7.3c0,1.1,0.1,1.7,0.3,2c0.3,0.4,0.7,0.5,1.2,0.5h1v0.5h-6.7V24h0.5c0.3,0,0.6-0.1,0.9-0.2
		c0.3-0.1,0.5-0.4,0.6-0.6c0.1-0.3,0.2-0.8,0.2-1.6v-7.3h-2.2v-0.9h2.2v-0.8c0-1.1,0.2-2,0.5-2.8c0.3-0.8,0.9-1.4,1.6-1.9
		c0.8-0.5,1.6-0.7,2.5-0.7c0.9,0,1.6,0.3,2.4,0.8c0.5,0.4,0.7,0.8,0.7,1.2c0,0.3-0.1,0.5-0.3,0.7c-0.2,0.2-0.4,0.3-0.7,0.3
		c-0.2,0-0.4-0.1-0.6-0.2c-0.2-0.1-0.5-0.4-0.8-0.9c-0.3-0.4-0.6-0.8-0.8-0.9S558.6,8,558.3,8c-0.4,0-0.7,0.1-0.9,0.3
		s-0.5,0.5-0.6,0.9c-0.1,0.4-0.2,1.5-0.2,3.3v0.8h2.9v0.9H556.6L556.6,14.2z"/>
	<path class="st39" d="M571.2,8.8v6.5h3c0.7,0,1.2-0.2,1.5-0.5c0.3-0.3,0.5-0.9,0.7-1.8h0.5v5.6h-0.5c0-0.6-0.1-1.1-0.3-1.4
		c-0.1-0.3-0.4-0.5-0.6-0.7c-0.3-0.2-0.7-0.2-1.3-0.2h-3v5.2c0,0.9,0,1.4,0.2,1.7c0.1,0.2,0.2,0.4,0.5,0.5c0.4,0.2,0.7,0.3,1.1,0.3
		h0.6v0.5h-7.1V24h0.6c0.7,0,1.2-0.2,1.5-0.6c0.2-0.3,0.3-0.9,0.3-1.9V10.9c0-0.8-0.1-1.4-0.2-1.7c-0.1-0.2-0.3-0.4-0.5-0.5
		c-0.3-0.2-0.7-0.3-1.1-0.3h-0.6V7.9h12.3l0.2,3.6h-0.4c-0.2-0.8-0.5-1.3-0.8-1.7s-0.6-0.6-1-0.8c-0.4-0.2-1-0.3-1.9-0.3H571.2
		L571.2,8.8z"/>
	<path class="st39" d="M582.7,17.5c0,1.7,0.4,3,1.2,3.9c0.8,1,1.8,1.4,2.9,1.4c0.7,0,1.3-0.2,1.9-0.6c0.6-0.4,1-1.1,1.4-2.1l0.4,0.2
		c-0.2,1.1-0.7,2.2-1.5,3.1c-0.8,0.9-1.8,1.3-3.1,1.3c-1.3,0-2.5-0.5-3.4-1.5c-1-1-1.4-2.5-1.4-4.2c0-1.9,0.5-3.4,1.5-4.5
		c1-1,2.2-1.6,3.7-1.6c1.3,0,2.3,0.4,3.1,1.3s1.2,1.9,1.2,3.3H582.7 M582.7,16.8h5.2c-0.1-0.7-0.1-1.2-0.3-1.5
		c-0.2-0.5-0.5-0.8-0.9-1s-0.8-0.4-1.3-0.4c-0.7,0-1.3,0.3-1.8,0.8C583.1,15.2,582.8,15.9,582.7,16.8L582.7,16.8z"/>
	<path class="st39" d="M598.2,22.9c-1.2,0.9-1.9,1.4-2.2,1.5c-0.4,0.2-0.9,0.3-1.4,0.3c-0.8,0-1.4-0.3-1.9-0.8
		c-0.5-0.5-0.8-1.2-0.8-2.1c0-0.5,0.1-1,0.3-1.4c0.3-0.5,0.9-1,1.7-1.5c0.8-0.5,2.2-1.1,4.2-1.8v-0.5c0-1.1-0.2-1.9-0.6-2.3
		c-0.3-0.4-0.9-0.6-1.5-0.6c-0.5,0-0.9,0.2-1.2,0.4c-0.3,0.3-0.5,0.6-0.5,1l0,0.7c0,0.4-0.1,0.7-0.3,0.9c-0.2,0.2-0.4,0.3-0.7,0.3
		c-0.3,0-0.5-0.1-0.8-0.3c-0.2-0.2-0.3-0.5-0.3-0.9c0-0.7,0.4-1.3,1.1-1.9c0.7-0.6,1.7-0.9,3-0.9c1,0,1.8,0.2,2.4,0.5
		c0.5,0.3,0.8,0.6,1.1,1.2c0.2,0.3,0.2,1.1,0.2,2.1v3.8c0,1.1,0,1.7,0.1,1.9c0,0.3,0.1,0.4,0.2,0.5c0.1,0.1,0.2,0.1,0.3,0.1
		c0.1,0,0.2,0,0.3-0.1c0.2-0.1,0.5-0.4,1-0.9v0.7c-0.9,1.2-1.8,1.8-2.6,1.8c-0.4,0-0.7-0.2-1-0.4C598.3,24,598.2,23.6,598.2,22.9
		 M598.2,22.1v-4.3c-1.3,0.5-2.1,0.9-2.4,1.1c-0.7,0.3-1.1,0.7-1.4,1.1c-0.3,0.4-0.4,0.8-0.4,1.3c0,0.6,0.2,1.1,0.5,1.5
		c0.3,0.4,0.8,0.6,1.2,0.6C596.3,23.3,597.2,22.9,598.2,22.1L598.2,22.1z"/>
	<path class="st39" d="M606.1,9.6v3.7h2.6v0.9h-2.6v7.3c0,0.7,0.1,1.2,0.3,1.5c0.2,0.3,0.5,0.4,0.8,0.4c0.3,0,0.5-0.1,0.8-0.3
		c0.3-0.1,0.4-0.4,0.6-0.8h0.5c-0.3,0.8-0.7,1.4-1.2,1.8c-0.5,0.4-1,0.6-1.6,0.6c-0.4,0-0.8-0.1-1.1-0.3c-0.3-0.2-0.6-0.5-0.8-0.9
		c-0.2-0.4-0.3-1-0.3-1.8v-7.5h-1.8v-0.4c0.4-0.2,0.9-0.5,1.4-0.9c0.4-0.4,0.9-0.9,1.3-1.5c0.2-0.3,0.4-0.9,0.8-1.7H606.1L606.1,9.6
		z"/>
	<path class="st39" d="M619.6,13.3v6.8c0,1.3,0,2.1,0.1,2.4c0,0.3,0.1,0.5,0.3,0.6c0.1,0.1,0.3,0.2,0.5,0.2c0.3,0,0.5-0.1,0.9-0.2
		l0.2,0.4l-3.3,1.4h-0.6v-2.3c-1,1-1.7,1.7-2.2,2c-0.5,0.3-1.1,0.4-1.6,0.4c-0.7,0-1.2-0.2-1.7-0.5c-0.4-0.4-0.8-0.8-0.9-1.4
		c-0.2-0.5-0.3-1.4-0.3-2.4v-5c0-0.5-0.1-0.9-0.2-1.1c-0.1-0.2-0.3-0.4-0.5-0.5c-0.2-0.1-0.6-0.2-1.2-0.2v-0.5h3.9v7.5
		c0,1.1,0.2,1.8,0.5,2.1c0.3,0.3,0.8,0.5,1.3,0.5c0.3,0,0.7-0.1,1.2-0.3c0.5-0.2,1-0.6,1.6-1.3v-6.3c0-0.6-0.1-1-0.3-1.3
		c-0.3-0.2-0.7-0.3-1.4-0.4v-0.5H619.6L619.6,13.3z"/>
	<path class="st39" d="M625.6,13v2.5c0.9-1.7,1.9-2.5,2.9-2.5c0.4,0,0.8,0.1,1.1,0.4c0.3,0.3,0.4,0.6,0.4,1c0,0.3-0.1,0.6-0.3,0.8
		c-0.2,0.2-0.4,0.3-0.8,0.3s-0.6-0.1-0.9-0.4c-0.4-0.3-0.6-0.4-0.8-0.4s-0.3,0.1-0.5,0.3c-0.4,0.3-0.8,0.9-1.1,1.6v5.4
		c0,0.6,0.1,1.1,0.2,1.4c0.1,0.2,0.3,0.4,0.6,0.5c0.3,0.2,0.7,0.2,1.2,0.2v0.5h-5.7V24c0.6,0,1-0.1,1.3-0.3c0.2-0.1,0.3-0.3,0.4-0.6
		c0.1-0.2,0.1-0.5,0.1-1.2v-4.3c0-1.3-0.1-2.1-0.1-2.3c-0.1-0.3-0.2-0.4-0.3-0.5c-0.2-0.1-0.3-0.2-0.5-0.2c-0.3,0-0.5,0.1-0.8,0.2
		l-0.1-0.4l3.4-1.3H625.6L625.6,13z"/>
	<path class="st39" d="M632.6,17.5c0,1.7,0.4,3,1.2,3.9c0.8,1,1.8,1.4,2.9,1.4c0.7,0,1.3-0.2,1.9-0.6c0.6-0.4,1-1.1,1.4-2.1l0.4,0.2
		c-0.2,1.1-0.7,2.2-1.5,3.1c-0.8,0.9-1.8,1.3-3.1,1.3c-1.4,0-2.5-0.5-3.5-1.5c-0.9-1-1.4-2.5-1.4-4.2c0-1.9,0.5-3.4,1.5-4.5
		c1-1,2.2-1.6,3.7-1.6c1.3,0,2.3,0.4,3.1,1.3c0.8,0.8,1.2,1.9,1.2,3.3H632.6 M632.6,16.8h5.2c0-0.7-0.1-1.2-0.3-1.5
		c-0.2-0.5-0.5-0.8-0.9-1c-0.4-0.3-0.8-0.4-1.3-0.4c-0.7,0-1.3,0.3-1.8,0.8C633,15.2,632.7,15.9,632.6,16.8L632.6,16.8z"/>
	<path class="st39" d="M649,13v3.8h-0.4c-0.3-1.2-0.7-2-1.2-2.5c-0.5-0.4-1.1-0.7-1.8-0.7c-0.6,0-1,0.2-1.4,0.5
		c-0.3,0.3-0.5,0.6-0.5,1c0,0.5,0.1,0.9,0.4,1.2c0.3,0.3,0.8,0.7,1.6,1.1l1.8,0.9c1.7,0.8,2.5,1.9,2.5,3.2c0,1-0.4,1.9-1.2,2.5
		c-0.8,0.6-1.6,0.9-2.6,0.9c-0.7,0-1.5-0.1-2.3-0.3c-0.3-0.1-0.5-0.1-0.7-0.1c-0.2,0-0.3,0.1-0.4,0.3h-0.4v-4h0.4
		c0.2,1.1,0.7,2,1.3,2.6s1.4,0.9,2.2,0.9c0.5,0,1-0.2,1.3-0.5c0.3-0.3,0.5-0.7,0.5-1.2c0-0.5-0.2-1-0.6-1.4
		c-0.4-0.4-1.2-0.8-2.4-1.5c-1.2-0.6-1.9-1.1-2.3-1.6c-0.4-0.5-0.6-1-0.6-1.8c0-0.9,0.3-1.7,0.9-2.3c0.6-0.6,1.5-0.9,2.5-0.9
		c0.4,0,0.9,0.1,1.6,0.3c0.4,0.1,0.7,0.2,0.8,0.2c0.1,0,0.2,0,0.3-0.1c0.1-0.1,0.2-0.2,0.3-0.4H649L649,13z"/>
</g>
</svg>
